<?xml version="1.0" standalone="no"?>
<!DOCTYPE svg PUBLIC "-//W3C//DTD SVG 1.1//EN" "http://www.w3.org/Graphics/SVG/1.1/DTD/svg11.dtd" >
<svg xmlns="http://www.w3.org/2000/svg">
<metadata>Generated by IcoMoon</metadata>
<defs>
<font id="bnpiconfont" horiz-adv-x="512">
<font-face units-per-em="512" ascent="480" descent="-32" />
<missing-glyph horiz-adv-x="512" />
<glyph unicode="&#x20;" d="" horiz-adv-x="256" />
<glyph unicode="&#xe600;" d="M64.364 360.59h576.683c26.521 0 48.071 21.538 48.071 48.059s-21.549 48.060-48.071 48.060h-576.683c-26.522 0-48.059-21.527-48.059-48.060s21.538-48.059 48.059-48.059zM641.047 264.482h-576.683c-26.522 0-48.059-21.538-48.059-48.059s21.538-48.060 48.059-48.060h576.683c26.521 0 48.071 21.538 48.071 48.060s-21.549 48.060-48.071 48.060zM641.047 72.255h-576.683c-26.522 0-48.059-21.55-48.059-48.071 0-26.51 21.538-48.060 48.059-48.060h576.683c26.521 0 48.071 21.55 48.071 48.060-0.011 26.533-21.549 48.071-48.071 48.071z" horiz-adv-x="706" />
<glyph unicode="&#xe601;" d="M226.593 245.537c-1.321 0-2.387-0.446-3.213-1.437-0.892-0.966-1.321-2.287-1.321-4.079s0.429-3.22 1.371-4.228c0.892-1.057 1.999-1.553 3.295-1.544 1.206 0 2.238 0.438 3.113 1.379 0.76 0.917 1.181 2.321 1.206 4.105-0.025 1.94-0.495 3.369-1.297 4.31-0.793 1.007-1.899 1.494-3.155 1.494zM166.053 242.423v10.537l-8.869-10.537h8.869zM8.274 108.428c-0.017-19.398 15.691-35.138 35.105-35.138h425.249c19.341 0 35.047 15.699 35.113 35.089l-0.017 19.687-495.451 0.017v-19.654zM272.359 256.793c-1.511 0-2.61-0.768-3.27-2.329-0.661-1.594-1.041-4.41-1.041-8.662-0.025-4.22 0.404-7.126 1.115-8.655 0.776-1.561 1.841-2.353 3.295-2.353 0.942 0 1.743 0.355 2.452 1.007 0.685 0.603 1.205 1.677 1.511 3.097 0.305 1.412 0.503 3.675 0.503 6.697-0.025 4.459-0.38 7.399-1.139 8.911-0.752 1.544-1.866 2.287-3.427 2.287zM429.262 322.585l-48.103 0.049c-13.419-0.049-24.56-11.297-24.56-25.517l-0.050-37.343c0.050-14.212 11.182-25.468 24.601-25.517h48.053c13.493 0.025 24.642 11.305 24.601 25.517l0.041 37.302c0.017 14.253-11.14 25.509-24.584 25.509zM468.579 374.709h-425.216c-19.398 0.025-35.105-15.682-35.105-35.089l0.017-157.58 495.467-0.058-0.066 157.597c0 19.439-15.682 35.13-35.097 35.13zM62.464 229.029h-9.414v22.222c-1.52-1.156-2.989-2.065-4.418-2.774-1.355-0.743-3.188-1.379-5.327-2.065l0.050 7.597c3.105 1.041 5.566 2.246 7.342 3.65 1.742 1.421 3.088 3.163 4.087 5.285h7.647l0.033-33.916zM99.633 229.029l-27.805 0.049c0.314 2.725 1.272 5.285 2.891 7.73 1.618 2.395 4.641 5.268 9.1 8.555 2.717 2.006 4.451 3.526 5.186 4.591 0.776 1.024 1.172 2.006 1.172 2.973 0 0.982-0.397 1.891-1.172 2.585-0.694 0.735-1.66 1.098-2.799 1.073-1.181 0-2.156-0.388-2.874-1.099-0.793-0.719-1.272-2.023-1.528-3.939l-9.307 0.776c0.38 2.601 1.016 4.641 1.99 6.102 0.983 1.453 2.37 2.552 4.145 3.337 1.743 0.81 4.195 1.181 7.333 1.181 3.221 0 5.805-0.372 7.556-1.082 1.867-0.735 3.278-1.933 4.327-3.436 0.991-1.561 1.536-3.27 1.536-5.186-0.025-2.040-0.561-3.997-1.808-5.789-1.165-1.867-3.328-3.906-6.433-6.102-1.891-1.321-3.138-2.238-3.757-2.742-0.636-0.495-1.395-1.181-2.222-1.999h14.418l0.049-7.581zM129.305 234.059c-1.007-1.767-2.453-3.171-4.361-4.162-1.9-0.933-4.427-1.429-7.589-1.404-2.998 0-5.409 0.38-7.118 1.049-1.759 0.743-3.229 1.784-4.311 3.147-1.156 1.346-2.023 3.089-2.609 5.12l9.29 1.297c0.331-1.891 0.867-3.188 1.66-3.923 0.776-0.726 1.677-1.082 2.907-1.082 1.272 0 2.313 0.47 3.138 1.363 0.859 0.925 1.222 2.106 1.222 3.633 0.025 1.553-0.421 2.783-1.206 3.584-0.801 0.859-1.891 1.297-3.204 1.263-0.735 0.033-1.751-0.132-3.031-0.512l0.487 6.614c0.504-0.058 0.892-0.107 1.181-0.107 1.222 0 2.197 0.38 3.039 1.181 0.826 0.76 1.222 1.677 1.222 2.733 0 1.016-0.305 1.825-0.916 2.461-0.611 0.537-1.437 0.9-2.478 0.9-1.106 0-1.982-0.363-2.668-1.024-0.694-0.685-1.172-1.767-1.395-3.444l-8.754 1.536c0.71 2.783 2.13 4.98 4.178 6.458 2.073 1.454 4.988 2.238 8.82 2.196 4.368 0 7.482-0.817 9.414-2.403 1.957-1.627 2.907-3.675 2.924-6.153 0-1.421-0.38-2.75-1.181-3.906-0.834-1.197-2.007-2.213-3.567-3.030 1.272-0.355 2.263-0.685 2.948-1.156 1.107-0.661 1.974-1.577 2.569-2.717 0.636-1.082 0.925-2.411 0.925-3.988 0.008-1.899-0.545-3.757-1.536-5.524zM147.184 237.643h-13.419l-0.049 7.126h13.518l-0.049-7.126zM178.341 235.256l-4.171-0.025v-6.202h-8.109v6.202l-16.863 0.049 0.025 7.631 16.838 20.034h8.109v-20.471h4.171v-7.218zM206.964 234.595c-1.057-1.999-2.585-3.501-4.55-4.525-1.982-1.090-4.509-1.627-7.572-1.577-2.172 0-4.030 0.198-5.615 0.611-1.577 0.429-2.923 1.016-4.030 1.841-1.107 0.859-1.999 1.792-2.635 2.833-0.71 1.016-1.297 2.353-1.701 3.915l9.34 1.041c0.256-1.511 0.735-2.651 1.602-3.469 0.801-0.743 1.841-1.156 2.989-1.156 1.247 0 2.287 0.512 3.163 1.453 0.875 0.999 1.297 2.461 1.222 4.418 0.075 1.957-0.347 3.419-1.222 4.361-0.867 0.917-1.974 1.371-3.394 1.371-0.892 0-1.743-0.239-2.577-0.661-0.611-0.331-1.338-0.867-2.023-1.75l-7.928 1.139 2.948 17.92 22 0.049v-7.382h-14.93l-0.801-5.021c1.032 0.487 2.073 0.826 3.039 1.131 1.041 0.173 2.048 0.305 3.039 0.305 3.328 0.025 6.020-0.999 8.109-3.014 2.031-2.031 3.113-4.534 3.113-7.647 0.025-2.155-0.545-4.22-1.585-6.185zM238.245 234.009c-1.032-1.867-2.452-3.188-4.31-4.154-1.841-0.917-4.154-1.363-6.962-1.338-3.295-0.075-5.987 0.561-7.994 1.643-2.031 1.165-3.609 2.973-4.839 5.475-1.181 2.477-1.817 5.797-1.817 9.876 0 6.061 1.272 10.463 3.774 13.238 2.577 2.816 6.086 4.195 10.562 4.195 2.643 0 4.715-0.305 6.301-0.892 1.553-0.661 2.808-1.553 3.849-2.734 1.032-1.156 1.792-2.675 2.304-4.434l-9.216-1.131c-0.256 1.272-0.661 2.18-1.222 2.708-0.561 0.562-1.272 0.817-2.123 0.817-1.494 0-2.667-0.768-3.493-2.271-0.611-1.115-0.991-3.444-1.321-7.019 1.115 1.131 2.238 1.965 3.369 2.502 1.206 0.537 2.552 0.826 4.079 0.826 2.948 0 5.475-1.073 7.523-3.171 2.056-2.172 3.089-4.881 3.113-8.109 0-2.23-0.537-4.212-1.577-6.029zM255.925 237.643h-13.46v7.126l13.46-0.008v-7.119zM283.045 232.688c-2.048-2.833-5.591-4.22-10.587-4.22-2.783-0.025-5.070 0.47-6.788 1.346-1.75 0.892-3.138 2.221-4.253 3.906-0.826 1.28-1.437 2.931-1.858 5.054-0.471 2.123-0.71 4.484-0.661 7.069-0.050 6.326 1.106 10.793 3.419 13.287 2.238 2.535 5.723 3.832 10.397 3.856 2.238-0.049 4.079-0.355 5.517-0.842 1.47-0.587 2.618-1.329 3.518-2.205 0.942-0.826 1.627-1.858 2.147-2.774 0.545-0.974 0.991-2.13 1.322-3.476 0.587-2.452 0.892-5.021 0.916-7.755-0.025-6.029-1.057-10.463-3.089-13.246zM314.128 232.679c-2.023-2.825-5.591-4.212-10.587-4.237-2.783 0.025-5.062 0.454-6.813 1.346-1.717 0.917-3.113 2.196-4.22 3.981-0.834 1.206-1.47 2.882-1.908 4.996-0.454 2.123-0.636 4.484-0.685 7.069 0.050 6.326 1.205 10.793 3.493 13.279 2.262 2.543 5.681 3.84 10.38 3.815 2.255 0 4.055-0.281 5.541-0.851 1.437-0.529 2.593-1.247 3.534-2.147 0.875-0.916 1.577-1.792 2.13-2.774 0.537-1.024 0.966-2.106 1.247-3.427 0.636-2.502 0.942-5.095 0.942-7.804-0.009-6.004-0.999-10.454-3.055-13.246zM464.755 259.774c-0.066-19.952-15.773-36.401-35.493-36.401h-48.103c-19.745 0-35.502 16.45-35.476 36.435v37.318c0 19.976 15.731 36.41 35.476 36.427h48.053c19.77-0.017 35.476-16.401 35.592-36.427l-0.050-37.351zM303.476 256.743c-1.519 0-2.642-0.751-3.303-2.255-0.71-1.594-1.041-4.435-1.041-8.638 0-4.269 0.355-7.119 1.139-8.754 0.735-1.519 1.792-2.304 3.253-2.329 0.9 0.025 1.726 0.38 2.436 1.057 0.677 0.627 1.205 1.701 1.553 3.072 0.305 1.412 0.471 3.65 0.512 6.648-0.075 4.459-0.404 7.424-1.156 8.944-0.784 1.503-1.908 2.304-3.394 2.254z" />
<glyph unicode="&#xe602;" d="M717.675 480h-705.524c-6.708 0-12.152-5.779-12.152-12.906v-367.856c0-7.127 5.443-12.906 12.152-12.906h299.091v-54.332l-91.144-63.999h289.63l-91.144 59.166-2.023 59.166h301.114c6.712 0 12.152 5.779 12.152 12.906v367.856c0 7.127-5.44 12.906-12.152 12.906zM687.191 125.050h-642.047v311.904h642.047v-311.904zM1411.735 279.929h-152.727c-7.128 0-12.907-5.779-12.907-12.906v-283.942c0-7.127 5.779-12.906 12.907-12.906h152.727c7.128 0 12.907 5.779 12.907 12.906v283.942c0 7.127-5.779 12.906-12.907 12.906zM1335.371-12.882c-6.24 0-11.296 4.875-11.296 10.889s5.056 10.889 11.296 10.889 11.296-4.875 11.296-10.889-5.056-10.889-11.296-10.889zM1405.284 26.104h-137.668v210.802h137.668v-210.802zM1145.4 414.12h-310.287c-7.128 0-12.907-5.779-12.907-12.906v-419.207c0-7.127 5.779-12.906 12.907-12.906h310.287c7.128 0 12.907 5.779 12.907 12.906v419.207c0 7.127-5.779 12.906-12.907 12.906zM990.256-18.923c-6.24 0-11.297 4.875-11.297 10.889s5.056 10.889 11.297 10.889 11.297-4.875 11.297-10.889-5.056-10.889-11.297-10.889zM1118.513 14.147h-256.513v354.927h256.513v-354.927z" horiz-adv-x="1425" />
<glyph unicode="&#xe603;" d="M506.476 245.422c-0.38 0.512-14.832 20.496-24.642 34.056l7.671 7.631c6.97 6.986 6.97 18.275 0 25.236l-162.337 162.337c-6.714 6.705-18.556 6.705-25.236 0l-294.565-294.59c-6.978-6.962-6.978-18.284 0-25.22l88.362-88.345v-19.745c0 0 0-5.714 0-8.721 0-45.824 83.951-69.772 166.871-69.772 82.935 0 166.921 23.949 166.921 69.772 0 2.998 0 8.721 0 8.721v120.841l72.985 52.827c3.84 2.758 6.409 6.97 7.118 11.636 0.81 4.683-0.355 9.505-3.147 13.337zM95.868 163.237c-0.049-0.942-0.148-1.825-0.148-2.741v-43.553l-50.539 50.548 269.378 269.361 137.117-137.117-83.935-83.935c-30.076 9.62-67.675 14.501-105.133 14.501-81.276 0-163.469-23.032-166.738-67.064zM262.606-3.147c-22.206 0-41.918 1.66-58.979 4.41-27.681 4.426-48.343 11.635-61.663 19.019-11.487 6.367-17.556 12.767-17.68 17.664 0 0.066-0.016 0.115-0.016 0.14 0 3.955 4.046 9.034 11.727 14.204 10.843-5.046 23.395-9.298 37.095-12.692 4.913-1.205 9.935-2.329 15.088-3.303 0.099-0.009 0.181-0.009 0.298-0.033 14.138-2.733 29.109-4.633 44.453-5.69 2.163-0.157 4.352-0.272 6.532-0.421 7.68-0.397 15.418-0.62 23.139-0.62 47.046 0 94.439 7.738 126.629 22.767 7.721-5.17 11.751-10.24 11.751-14.204 0.009-13.989-48.822-41.274-138.372-41.241zM389.236 85.099c-4.31-2.915-9.703-5.822-16.351-8.695-6.416-2.725-13.981-5.334-22.561-7.721-18.952-5.269-42.95-9.257-71.862-10.339-5.111-0.19-10.405-0.314-15.847-0.314-0.726 0-1.404 0.025-2.172 0.025-14.484 0.099-27.846 0.909-40.15 2.238-2.452 0.256-4.864 0.529-7.218 0.859-14.418 1.858-27.144 4.484-38.169 7.539-8.53 2.37-16.128 4.988-22.519 7.721-6.656 2.874-12.082 5.781-16.392 8.695-7.638 5.195-11.71 10.231-11.71 14.195 0 3.981 4.047 9.043 11.71 14.204 12.494-5.855 27.268-10.587 43.429-14.221 15.22-3.377 31.653-5.764 48.566-7.143 4.988-0.413 10.034-0.735 15.104-0.983 6.367-0.272 12.816-0.446 19.233-0.446 0.108 0 0.182 0 0.281 0 10.595 0 21.182 0.388 31.62 1.181 1.024 0.066 2.015 0.149 3.047 0.248 11.529 0.933 22.842 2.32 33.701 4.22 5.070 0.9 10 1.883 14.839 2.923 16.178 3.625 30.951 8.365 43.438 14.221 7.697-5.161 11.726-10.215 11.726-14.204 0.009-3.972-4.030-9.010-11.743-14.204zM408.353 196.352c-0.62 0.487-6.358 3.476-8.341 4.716 0 0 54.239 51.959 54.718 51.308 0 0 9.596-9.522 12.404-13.436l-58.781-42.587z" />
<glyph unicode="&#xe604;" d="M502.396 178.548c-8.406 42.257-86.107 64.347-162.931 64.347-1.082 0-2.163-0.042-3.27-0.058v162.139c0 47.261-82.341 71.986-163.7 71.986-81.35 0-163.675-24.724-163.675-71.986v-255.686c0-47.261 82.341-71.986 163.675-71.986 1.115 0 2.196 0.033 3.295 0.050v-34.304c0-47.245 82.341-72.019 163.667-72.019 81.375 0 163.724 24.774 163.724 72.019v135.499h-0.784zM339.456-0.966c-82.82 0-135.696 26.063-135.696 44.015 0 4.822 3.956 10.24 11.19 15.616 31.563-15.649 78.188-23.676 124.482-23.676 46.336 0 92.953 8.035 124.548 23.676 7.226-5.351 11.182-10.793 11.182-15.616 0.017-17.953-52.827-44.015-135.705-44.015zM36.789 149.273c0 4.839 3.956 10.273 11.181 15.599 31.571-15.632 78.195-23.627 124.499-23.627 1.115 0 2.196 0.033 3.295 0.033v-35.914c-1.123 0-2.172-0.066-3.295-0.066-82.82-0.009-135.68 26.038-135.68 43.974zM448.743 82.597c-5.781-2.692-12.404-5.26-19.926-7.598-22.817-7.053-53.207-12.015-89.353-12.015-36.096 0-66.519 4.971-89.327 12.015-6.797 2.13-12.907 4.401-18.3 6.821-0.561 0.256-1.065 0.512-1.619 0.776-6.086 2.808-11.181 5.805-15.236 8.77-0.933 0.661-1.841 1.371-2.651 2.081-5.359 4.534-8.324 9.051-8.473 13.163 0 0.132-0.066 0.223-0.066 0.355 0 4.822 3.956 10.24 11.181 15.583 8.035-3.964 17.020-7.449 26.732-10.421 6.292-1.933 12.891-3.659 19.737-5.161 2.717-0.627 5.491-1.164 8.283-1.709 8.952-1.709 18.226-3.097 27.681-4.129 4.41-0.471 8.885-0.867 13.353-1.197 9.514-0.677 19.109-1.049 28.73-1.049 9.629 0 19.241 0.372 28.747 1.049 17.103 1.222 33.817 3.617 49.35 7.036 17.366 3.824 33.214 9.067 46.452 15.583 7.226-5.334 11.181-10.76 11.181-15.583 0-4.839-3.955-10.257-11.182-15.599-4.113-2.964-9.175-5.962-15.294-8.77zM63.224 188.837c-6.102 2.825-11.19 5.772-15.252 8.77-7.226 5.334-11.181 10.777-11.181 15.599 0 4.839 3.956 10.257 11.181 15.591 13.221-6.541 29.085-11.743 46.484-15.591 15.501-3.452 32.223-5.789 49.367-7.036 9.488-0.677 19.093-1.033 28.672-1.033 7.143 0 14.311 0.173 21.422 0.578-4.583-3.923-8.357-8.142-11.305-12.643-4.369-6.722-6.804-14.13-6.804-22.197v0-1.611c-1.115 0-2.163-0.066-3.286-0.066-36.112 0-66.535 4.938-89.353 12.048-7.548 2.32-14.146 4.88-19.943 7.589zM36.789 277.149c0 4.822 3.956 10.24 11.181 15.6 13.221-6.565 29.077-11.76 46.452-15.6 15.501-3.452 32.215-5.789 49.35-7.028 9.472-0.693 19.101-1.049 28.721-1.049 9.629 0 19.242 0.355 28.73 1.049 17.127 1.214 33.85 3.576 49.375 7.028 17.375 3.84 33.205 9.034 46.435 15.6 7.243-5.343 11.19-10.777 11.19-15.6 0-4.839-3.955-10.256-11.181-15.616-4.063-2.998-9.142-5.938-15.245-8.762-5.813-2.708-12.412-5.277-19.926-7.597-22.817-7.077-53.248-12.048-89.377-12.048s-66.543 4.971-89.353 12.048c-7.523 2.321-14.113 4.889-19.894 7.597-6.119 2.825-11.222 5.756-15.269 8.762-7.226 5.334-11.19 10.777-11.19 15.616zM36.789 341.075c0 4.815 3.956 10.232 11.181 15.591 13.246-6.557 29.077-11.767 46.485-15.591 15.558-3.452 32.289-5.797 49.433-7.027 9.456-0.71 19.035-1.049 28.581-1.049 9.563 0 19.134 0.339 28.597 1.049 17.152 1.222 33.891 3.575 49.45 7.027 17.375 3.824 33.239 9.035 46.477 15.591 7.243-5.343 11.181-10.777 11.181-15.591 0-4.831-3.955-10.265-11.182-15.616-4.038-2.998-9.134-5.946-15.236-8.77-5.797-2.692-12.428-5.277-19.926-7.581-22.834-7.085-53.231-12.032-89.361-12.032-36.096 0-66.527 4.946-89.335 12.032-7.515 2.304-14.113 4.889-19.91 7.581-6.102 2.841-11.19 5.764-15.252 8.77-7.218 5.351-11.181 10.785-11.181 15.616z" />
<glyph unicode="&#xe605;" d="M0 285.935h513.371v-125.935h-513.371v125.935z" />
<glyph unicode="&#xe606;" d="M500.786 171.487h-190.753v-190.753c0-6.177-5.038-11.214-11.214-11.214h-89.757c-6.185 0-11.222 5.038-11.222 11.214v190.753h-190.745c-6.186 0-11.223 5.038-11.223 11.214v89.724c0 6.194 5.037 11.223 11.223 11.223h190.745v190.745c0 6.193 5.037 11.222 11.222 11.222h89.757c6.177 0 11.214-5.029 11.214-11.222v-190.745h190.753c6.177 0 11.214-5.029 11.214-11.223v-89.724c0-6.177-5.038-11.214-11.214-11.214z" />
<glyph unicode="&#xe607;" d="M366.642 350.447h31.612c8.737 0 15.806 7.077 15.806 15.806v94.844c0 8.729-7.069 15.806-15.806 15.806h-31.612c-8.737 0-15.806-7.077-15.806-15.806v-94.835c0-8.729 7.077-15.814 15.806-15.814zM113.739 350.447h31.612c8.729 0 15.806 7.077 15.806 15.806v94.844c0 8.729-7.077 15.806-15.806 15.806h-31.612c-8.729 0-15.806-7.077-15.806-15.806v-94.835c0-8.729 7.085-15.814 15.806-15.814zM477.291 413.68h-31.612v-79.030c0-8.729-7.069-15.806-15.806-15.806h-94.844c-8.737 0-15.806 7.077-15.806 15.806v79.030h-126.447v-79.030c0-8.729-7.085-15.806-15.806-15.806h-94.844c-8.729 0-15.806 7.077-15.806 15.806v79.030h-31.612c-17.45 0-31.612-14.163-31.612-31.612v-379.359c0-17.45 14.162-31.612 31.612-31.612h442.582c17.45 0 31.612 14.163 31.612 31.612v379.359c0 17.45-14.163 31.612-31.612 31.612zM477.291 18.514c0-8.737-7.069-15.806-15.806-15.806h-410.971c-8.729 0-15.806 7.069-15.806 15.806v252.903c0 8.729 7.077 15.806 15.806 15.806h410.971c8.737 0 15.806-7.077 15.806-15.806v-252.903zM172.354 136.688h-46.162c-8.498 0-15.385-6.202-15.385-13.873v-41.637c0-7.68 6.887-13.89 15.385-13.89h46.154c8.506 0 15.385 6.21 15.385 13.89v0 41.637c0 7.671-6.879 13.873-15.376 13.873zM280.064 136.688h-46.162c-8.489 0-15.393-6.202-15.393-13.873v-41.637c0-7.68 6.904-13.89 15.393-13.89h46.162c8.473 0 15.385 6.21 15.385 13.89v41.637c0 7.671-6.912 13.873-15.385 13.873zM387.774 136.688h-46.163c-8.506 0-15.377-6.202-15.377-13.873v-41.637c0-7.68 6.87-13.89 15.377-13.89h46.163c8.49 0 15.377 6.21 15.377 13.89v41.637c0 7.671-6.887 13.873-15.377 13.873zM172.354 233.869h-46.162c-8.498 0-15.385-6.202-15.385-13.882v-41.637c0-7.68 6.887-13.89 15.385-13.89h46.154c8.506 0 15.385 6.21 15.385 13.89v0 41.637c0 7.68-6.879 13.882-15.376 13.882zM280.064 233.869h-46.162c-8.489 0-15.393-6.202-15.393-13.882v-41.637c0-7.68 6.904-13.89 15.393-13.89h46.162c8.473 0 15.385 6.21 15.385 13.89v41.637c0 7.68-6.912 13.882-15.385 13.882zM387.774 233.869h-46.163c-8.506 0-15.377-6.202-15.377-13.882v-41.637c0-7.68 6.87-13.89 15.377-13.89h46.163c8.49 0 15.377 6.21 15.377 13.89v41.637c0 7.68-6.887 13.882-15.377 13.882z" />
<glyph unicode="&#xe608;" d="M1.429-29.184c0 0-14.294 71.894 47.418 99.832 61.712 27.921 58.013 25.096 74.876 39.433 16.871 14.353 14.311 33.66 26.401 39.449s10.703-5.789 13.213 0c2.486 5.789-1.784 45.808 0 39.44 1.759-6.367-21.843 41.472-22.784 66.089-1.181 30.745-22.049 44.528-19.695 61.267 5.451 38.441 28.102 65.618 28.102 65.618s-52.183 4.79-25.237 30.563c26.971 25.774 37.277 35.601 66.015 52.588 28.721 16.987 67.832 15.327 105.596 0 37.756-15.327 47.418-26.261 59.755-48.673 10.546-19.184 11.239-33.668 10.405-45.782-0.842-12.123 0.479-22.066 0.479-22.066s12.742-2.783 13.122-21.017c0.388-17.416-4.484-43.066-14.080-54.743-3.791-4.616-10.389-20.703-20.381-42.091-9.984-21.405-22.892-54.916-22.892-54.916s0.157-18.399-0.173-23.378c-0.735-11.487 16.475-0.256 24.526-12.916 8.019-12.659 2.502-21.521 20.158-29.431 17.714-7.903 66.932-39.68 91.136-54.577 28.185-17.375 15.731-84.745 15.731-84.745l-471.692 0.058z" horiz-adv-x="476" />
<glyph unicode="&#xe609;" d="M440.974 96.010c-4.352-5.13-12.383-11.302-23.789-14.45-14.023-3.887-28.027-1.943-39.386 5.727-8.609 5.442-15.683 14.336-20.688 26.33l-10.781-2.958-2.332 8.457 9.851 2.74c-0.218 0.873-0.464 1.783-0.692 2.617-0.777 2.797-1.327 5.423-1.783 7.898l-10.24-2.825-2.389 8.647 11.406 3.148c-1.242 12.705 1.156 24.197 6.154 33.195 6.276 11.606 16.062 19.901 30.303 23.827 10.221 2.825 18.982 2.067 24.567 0.796l-0.303-12.383c-5.015 1.385-12.971 1.668-20.774-0.502-9.292-2.57-16.005-7.983-20.205-15.815-3.793-6.495-5.091-15.209-4.314-24.87l48.337 13.331 2.37-8.647-49.873-13.757c0.464-2.313 0.986-4.94 1.65-7.386 0.294-0.995 0.531-1.906 0.882-3.129l50.262 13.843 2.304-8.457-48.991-13.558c4.153-9.642 9.661-16.109 15.805-20.091 8.221-4.911 17.788-5.85 27.108-3.271 9.197 2.57 16.223 8.221 19.551 11.548l5.993-10.003zM341.362 473.088l-344.832-314.055 139.055-152.661 344.889 314.017-139.113 152.7zM238.497 153.467c-47.635 0-86.253 38.618-86.253 86.262 0 47.635 38.618 86.253 86.253 86.253s86.253-38.618 86.253-86.253c0-47.644-38.618-86.262-86.253-86.262zM237.312 248.471c-0.199-0.057-0.322-0.085-0.512-0.18l-20.745 22.841c6.694 5.395 12.895 7.13 16.289 7.888l-4.030 10.25c-5.158-1.071-11.587-3.546-18.755-9.642l-10.202 11.226-8.021-7.263 10.809-11.909c-8.306-11.197-8.334-24.188 0.171-33.498 8.476-9.339 19.541-8.837 33.821-3.869l23.647-25.998c-6.125-4.892-13.208-7.794-19.276-8.714l4.267-10.231c6.666 0.759 15.474 4.988 22.291 10.923l6.855-7.556 0.048 0.048 3.755-4.144 7.3 6.608-3.755 4.153-7.178 7.879c10.145 12.81 8.714 27.155 0.398 36.286-9.368 10.306-20.85 10.885-37.177 4.902zM210.982 248.605c-3.167 3.489-4.779 9.093-1.612 15.142l16.839-18.508c-6.855-1.422-11.492-0.749-15.227 3.366zM266.477 215.675l-19.94 21.911c8.041 1.906 14.070 1.043 18.612-3.935 4.522-4.988 4.911-11.748 1.327-17.977zM590.090 298.307l-144.962-40.126-39.803-36.997c32.531-4.769 60.776-28.113 70.068-61.829 12.544-45.502-14.147-92.653-59.705-105.216-45.568-12.582-92.625 14.166-105.197 59.714-1.517 5.518-2.437 11.055-2.844 16.555l-123.278-114.631 11.34-41.017 449.574 124.521-55.192 199.026z" horiz-adv-x="645" />
<glyph unicode="&#xe60a;" d="M256 477.935c-140.238 0-253.935-113.705-253.935-253.935 0-140.246 113.697-253.935 253.935-253.935 140.246 0 253.935 113.689 253.935 253.935 0 140.23-113.689 253.935-253.935 253.935zM416.487 284.036l-191.166-202.661c-4.509-4.493-11.743-4.493-16.244 0l-33.313 33.322c-0.554 0.372-1.181 0.62-1.668 1.115l-64.933 64.925c-4.484 4.484-4.633 11.586-0.347 15.897l33.907 33.907c4.294 4.294 11.421 4.154 15.897-0.339l54.512-54.503 151.305 160.397c4.476 4.476 11.743 4.476 16.219 0l35.824-35.823c4.509-4.493 4.509-11.76 0.009-16.236z" />
<glyph unicode="&#xe60b;" d="M163.452-0.082c0 17.044-13.865 30.819-30.935 30.819-17.028 0-30.852-13.774-30.852-30.819 0-17.070 13.832-30.885 30.852-30.885 17.070 0 30.935 13.815 30.935 30.885zM128.941 77.072h-0.083c-11.784 0.050-21.314 9.613-21.281 21.462 0.421 99.212 11.743 119.007 59.822 160.859 37.385 33.049 55.082 53.504 55.238 97.577 0.099 22.024-8.052 43.066-22.519 57.641-13.956 14.13-33.132 21.579-55.56 21.678h-0.843c-54.627 0-81.119-27.697-88.469-92.49-1.379-11.693-11.718-20.149-23.627-18.796-11.694 1.379-20.125 11.883-18.77 23.585 9.877 86.519 53.884 130.379 130.891 130.379h1.057c33.933-0.149 63.645-12.041 85.686-34.387 22.33-22.561 34.99-54.577 34.816-87.808-0.223-62.993-30.406-94.662-69.781-129.494-37.12-32.314-44.891-38.97-45.279-129.008-0.049-11.693-9.579-21.199-21.298-21.199z" horiz-adv-x="278" />
<glyph unicode="&#xe60c;" d="M279.75 6.268c0 16.582-13.469 29.961-30.060 29.961-16.532 0-29.977-13.378-29.977-29.961 0-16.591 13.444-30.010 29.977-30.010 16.591 0 30.060 13.42 30.060 30.010zM246.222 81.235h-0.075c-11.454 0.050-20.711 9.348-20.686 20.844 0.405 96.397 11.405 115.637 58.12 156.309 36.336 32.115 53.52 51.984 53.685 94.811 0.099 21.405-7.812 41.844-21.875 56.014-13.568 13.733-32.181 20.976-53.974 21.067h-0.817c-53.091 0-78.823-26.913-85.966-89.873-1.346-11.363-11.388-19.58-22.958-18.267-11.363 1.346-19.555 11.553-18.242 22.916 9.588 84.076 52.348 126.687 127.166 126.687h1.033c32.974-0.149 61.837-11.702 83.258-33.412 21.694-21.925 34.007-53.034 33.825-85.322-0.214-61.209-29.531-91.986-67.807-125.82-36.063-31.397-43.611-37.863-43.999-125.349-0.058-11.355-9.307-20.604-20.686-20.604z" />
<glyph unicode="&#xe60d;" d="M148.942 168.473v153.452h-95.951c-27.78 0-50.514-22.272-50.514-49.499v-148.505c0-27.227 22.726-49.499 50.514-49.499h25.245v-74.257l75.76 74.257h126.167c27.772 0 50.498 22.272 50.498 49.499v45.081c-1.627-0.363-3.32-0.521-5.012-0.521h-176.706zM458.637 448.281h-227.237c-27.788 0-50.474-22.281-50.474-49.507v-198.004h176.714l75.76-74.24v74.24h25.236c27.78 0 50.523 22.272 50.523 49.516v148.505c0 27.211-22.743 49.49-50.523 49.49z" />
<glyph unicode="&#xe60e;" d="M261.087 88.252h-261.087v-75.356h261.087c22.302 0 40.42 16.892 40.42 37.687 0 20.786-18.101 37.671-40.42 37.671zM261.087 356.903c22.286 0 40.42 16.287 40.42 36.332 0 20.052-18.101 36.332-40.42 36.332h-261.087v-72.663h261.087zM261.087 261.259h-261.087v-76.905h261.087c22.302 0 40.42 17.223 40.42 38.445 0 21.214-18.101 38.461-40.42 38.461z" horiz-adv-x="314" />
<glyph unicode="&#xe60f;" d="M379.656 374.033c-12.734 8.605-30.076 5.293-38.681-7.457-8.63-12.742-5.285-30.076 7.457-38.697 45.577-30.828 72.77-81.904 72.77-136.605 0-91.103-74.116-165.219-165.219-165.219-91.070 0-165.169 74.116-165.169 165.219 0 56.097 28.209 107.908 75.462 138.562 12.916 8.365 16.599 25.625 8.225 38.532-8.374 12.899-25.625 16.632-38.548 8.217-63.157-40.952-100.873-110.237-100.873-185.303 0-121.839 99.097-220.953 220.903-220.953 121.839 0 220.936 99.113 220.936 220.953 0 73.233-36.352 141.56-97.264 182.751zM264.258 242.894c19.084 0 33.032 15.459 33.032 34.535v165.715c0 19.068-13.948 34.527-33.033 34.527s-33.032-15.459-33.032-34.527v-165.723c0-19.068 13.948-34.527 33.032-34.527z" />
<glyph unicode="&#xe610;" d="M256 471.742c-136.836 0-247.733-110.923-247.733-247.75 0-136.82 110.897-247.733 247.733-247.733 136.82 0 247.733 110.914 247.733 247.733 0 136.828-110.914 247.75-247.733 247.75zM255.992 102.714c-11.801 0-21.356 9.587-21.356 21.372s9.554 21.38 21.356 21.38c11.818 0 21.372-9.596 21.372-21.38s-9.555-21.372-21.372-21.372zM280.774 189.555c0-10.248-12.462-18.556-22.652-18.556-10.224 0-20.588 8.308-20.604 18.556l-1.206 141.948c-0.017 10.298 11.974 18.638 22.214 18.638s22.247-8.34 22.247-18.638v-141.948z" />
<glyph unicode="&#xe611;" d="M350.555 452.124c-342.55 91.197-352.396-86.247-340.081-192.206 14.646-125.895 260.497-325.904 315.153-277.666 93.921 82.936 241.796 156.868 295.536 174.431 10.058 3.279 177.209 176.24-270.608 295.44zM296.601 158.408l-11.74 135.964-43.459-120.988h-26.131l-43.49 120.988-11.73-135.954h-29.058l17.062 187.299h34.422l45.886-124.405 45.864 124.405h34.38l17.062-187.299h-29.068zM472.745 158.408h-111.739v26.738h43.235v127.673l-42.948-21.947v29.452l48.813 25.396h23.991v-160.573h38.647v-26.738z" horiz-adv-x="660" />
<glyph unicode="&#xe612;" d="M303.301 441.817c-431.582-114.901-270.489-281.581-260.788-284.736 51.781-16.916 194.287-88.17 284.818-168.103 52.677-46.512 289.642 146.259 303.744 267.582 11.865 102.118 2.381 273.138-327.774 185.257zM354.968 158.854l-11.319 131.002-41.884-116.57h-25.163l-41.894 116.57-11.309-131.002h-28.029l16.442 180.505h33.163l44.204-119.921 44.224 119.921h33.142l16.473-180.505h-28.050zM522.711 158.854h-111.045v22.431l58.635 67.553c12.855 14.711 17.978 25.277 17.978 38.688 0 19.339-9.257 29.401-25.442 29.401-18.257 0-27.276-12.896-28.308-30.699l-27.483 5.175c1.268 24.503 17.473 51.306 55.532 51.306 35.719 0 56.038-18.298 56.038-54.656 0-19.339-9.236-37.41-25.988-55.965l-41.368-46.677h71.46l-0.010-26.555z" horiz-adv-x="639" />
<glyph unicode="&#xe613;" d="M256 476.903c-139.694 0-252.903-113.226-252.903-252.903 0-139.693 113.21-252.903 252.903-252.903s252.903 113.21 252.903 252.903c0 139.677-113.21 252.903-252.903 252.903zM175.286 118.181c-40.267 0-70.235 25.732-70.235 95.678 0 70.731 30.233 96.719 71.028 96.719 41.356 0 70.507-25.988 70.507-96.19-0.008-70.474-29.944-96.207-71.3-96.207zM378.5 121.633l-46.897 83.456-21.735-29.671v-53.793h-28.614v185.509h28.614v-89.303l64.413 89.303h32.041l-55.643-76.313 60.953-109.18h-33.132zM175.55 284.077c-24.625 0-41.323-16.45-41.323-69.962 0-52.745 16.698-69.434 41.323-69.434 25.715 0 40.836 16.69 40.836 69.962 0 52.992-15.12 69.434-40.836 69.434z" />
<glyph unicode="&#xe614;" d="M589.054 385.243l-67.243 67.243c-8.395 8.406-22.036 8.406-30.452 0l-284.027-301.071-102.299 102.309c-8.425 8.425-21.784 8.677-29.84 0.62l-63.656-63.646c-8.056-8.086-7.785-21.425 0.659-29.87l121.854-121.844c0.95-0.96 2.094-1.396 3.131-2.133l62.56-62.512c8.415-8.444 22.036-8.444 30.461 0l358.852 380.423c8.444 8.396 8.444 22.036 0 30.481z" horiz-adv-x="601" />
<glyph unicode="&#xe615;" d="M324.31 224.248l165.261 165.261c9.166 9.158 14.171 21.306 14.171 34.205 0 12.882-5.054 24.972-14.221 34.114-18.218 18.176-49.904 18.176-68.171 0l-165.302-165.334-165.409 165.376c-18.275 18.201-50.044 18.176-68.319-0.042-18.754-18.82-18.754-49.45 0-68.294l165.31-165.261-165.31-165.244c-18.754-18.82-18.754-49.375 0-68.253 18.127-18.325 50.192-18.151 68.319-0.050l165.359 165.36 165.31-165.351c9.018-9.158 21.173-14.245 34.156-14.245 13.023 0 25.146 5.079 34.065 14.171 9.207 9.117 14.212 21.257 14.212 34.139 0 12.858-5.005 25.022-14.171 34.089l-165.261 165.359z" />
<glyph unicode="&#xe616;" d="M495.789 47.583l-125.911 125.919c19.060 30.455 30.282 66.346 30.282 104.869 0 109.469-89.072 198.541-198.541 198.541-109.46 0-198.524-89.072-198.524-198.541 0-109.46 89.063-198.54 198.524-198.54 38.532 0 74.413 11.214 104.894 30.283l125.877-125.894c8.762-8.745 20.216-13.122 31.702-13.122 11.462 0 22.941 4.377 31.678 13.122 17.499 17.483 17.499 45.857 0.017 63.364zM201.62 139.578c-76.528 0-138.785 62.257-138.785 138.793s62.257 138.793 138.785 138.793c76.528 0 138.802-62.257 138.802-138.793 0-21.925-5.26-42.603-14.361-61.060-13.535-27.5-35.865-49.821-63.347-63.364-18.474-9.108-39.151-14.369-61.093-14.369z" />
<glyph unicode="&#xe617;" d="M486.714 30.439v96.644c0 8.737-4.269 15.798-9.53 15.798h-9.505c-5.277 0-9.538-7.060-9.538-15.798v-63.95l-404.851-1.296v65.238c0 8.737-4.17 15.798-9.323 15.798h-9.331c-5.153 0-9.315-7.060-9.315-15.798v-126.472c0-1.346 0.124-2.642 0.322-3.906h-0.338v-12.057c0-7.3 5.913-13.204 13.197-13.204h435.035c7.292 0 13.188 5.904 13.188 13.204v13.502h-0.149c0.075 0.801 0.149 1.618 0.149 2.461v29.837zM52.983-3.212c0.181 1.214 0.314 2.486 0.314 3.807v35.906h404.835v-35.906c0-0.867 0.075-1.701 0.173-2.543l-405.322-1.264zM230.358 137.646c6.598-8.63 15.938-13.593 25.649-13.593s19.093 4.971 25.675 13.593l102.524 134.094c4.666 6.111 7.027 11.322 7.027 17.045 0 9.101-6.714 18.944-25.591 18.944h-44.586v152.857c0 6.631-7.226 14.435-13.857 14.435h-102.358c-6.623 0-13.899-7.804-13.899-14.435v-152.849h-44.553c-18.886 0-25.575-9.852-25.575-18.952 0-5.714 2.353-11.33 7.028-17.425l102.516-133.714z" />
<glyph unicode="&#xe618;" d="M488.357 360.547c0.19 1.379-0.446 3.84-5.45 3.84h-70.004v73.439c0 19.555-19.159 33.916-38.714 33.916h-241.086c-19.538 0-25.749-14.361-25.749-33.916v-73.439h-49.706c-0.314 0-0.603-0.075-0.908-0.091-0.306 0.017-0.603 0.091-0.908 0.091h-28.341c-7.837 0-10.975-9.819-10.975-17.664v-170.174c0-7.82 3.138-10.356 10.975-10.356h28.341c7.837 0 18.49-3.625 18.49 10.546v88.551h363.355v-88.741c0-7.82 7.416-10.356 15.261-10.356h28.341c7.837 0 14.204-3.625 14.204 10.546v169.984c0 5.104-2.601 11.273-7.127 13.824zM148.645 430.452h222.968v-66.065h-222.968v66.065zM431.757 298.281c-10.454 0-18.919 8.473-18.919 18.928 0 10.463 8.464 18.935 18.919 18.935s18.935-8.473 18.935-18.935c0-10.454-8.481-18.928-18.935-18.928zM450.692 317.209c0-10.454-8.474-18.928-18.928-18.928s-18.928 8.474-18.928 18.928c0 10.454 8.474 18.928 18.928 18.928s18.928-8.474 18.928-18.928zM371.613 17.548h-132.129v83.935c0 11.52-6.747 15.162-18.275 15.162h-80.822v99.097h-41.291v-115.374c0 11.529 8.258 19.646 19.787 19.646-11.528 0-19.101-8.175-19.101-19.695l42.653-42.868 36.31-37.673 42.224-43.52h176.656c7.845 0 15.277 8.481 15.277 16.326v223.157h-41.291v-198.193z" />
<glyph unicode="&#xe619;" d="M262.098 214.627c-4.991 0-10.991-0.38-10.991-0.891v-34.178c0-0.642 5.869-0.891 9.694-0.891 13.676 0 21.995 6.655 21.995 18.76 0.026 11.567-8.188 17.2-20.699 17.2zM340.451 214.627c-5.882 0-11.738-0.537-11.738-1.179v-69.366c0-0.511 5.423-0.642 9.877-0.642 24.353 0 37.558 13.533 37.558 37.257 0.171 20.724-11.62 33.93-35.699 33.93zM468.258 271.377l-281.159-0.091c-2.673 0.053-4.232 0.091-4.232 0.091-0.302 0-0.629-0.065-0.943-0.091h-0.484l0.327-0.013c-7.153-0.537-16.572-6.184-16.572-13.074v-169.714c0-7.245 10.415-13.022 17.659-13.022h178.348v-61.257h-314.29v419.211h221.736l-0.668-73.886c-0.105-10.638 12.615-17.319 23.227-17.423l69.982-0.615v-70.113h39.248v78.458c1.585 2.751 2.738 5.843 2.791 9.524l-110.593 113.75h-1.101c-0.917-0.039-1.899-0.223-2.843-0.393h-263.408c-7.232 0-17.633-5.935-17.633-13.179v-471.586c0-7.271 10.402-13.048 17.633-13.048h366.639c7.219 0 8.515 5.777 8.515 13.048v87.51h70.31c7.219 0 8.515 5.777 8.515 13.022v169.714c1.074 13.703-11.005 13.179-11.005 13.179zM393.127 342.971c0.459 0.209 0.812 0.563 1.231 0.812-0.406-0.262-0.747-0.603-1.231-0.812zM288.718 178.391c-6.013-6.367-16.113-9.642-27.262-9.642-3.445 0-9.471 0.131-9.471 0.799v-36.668h-13.113v88.322c13.113 0.917 13.86 1.716 23.031 1.716 11.253 0 20.083-2.633 25.336-7.349 4.834-4.166 8.005-10.637 8.005-18.393 0-7.991-2.083-14.201-6.524-18.786zM375.547 146.204c-8.214-8.214-20.935-12.642-38.070-12.642-8.109 0-19.925 0.38-19.925 1.022v86.488c0 1.048 14.476 1.847 23.411 1.847 16.375 0 27.576-3.812 35.253-11.005 7.834-7.192 12.183-17.371 12.183-31.546 0-14.332-4.637-26.082-12.851-34.166zM461.171 211.103h-39.118v-26.082h39.118v-13.022h-40.428l1.31-39.118h-13.022v91.375h52.139v-13.152zM473.223 259.993c-0.053 0-0.105 0.013-0.183 0.026h0.183c0-0.013 0-0.026 0-0.026z" horiz-adv-x="487" />
<glyph unicode="&#xe61a;" d="M192.859 376.874c-0.207 0-0.405-0.058-0.611-0.066h0.677l-0.066 0.066zM458.611 273.548h-62.224v89.642l-105.101 116.81h-270.501c-7.341 0-20.785-8.060-20.785-15.393v-477.935c0-7.333 13.444-18.671 20.785-18.671h371.737c7.308 0 3.865 11.339 3.865 18.671v96.942h62.224c7.349 0 3.84 2.238 3.84 9.563v172.594c0 7.333 3.51 7.779-3.84 7.779zM355.097 17.548h-305.548v412.903h214.709v-74.158c0-10.785 15.541-16.681 26.327-16.681h64.512v-66.065h-188.548c-7.341 0-17.904-0.446-17.904-7.771v-172.594c0-7.333 10.562-9.571 17.904-9.571h188.548v-66.065zM310.899 174.369c-14.608 5.178-23.618 12.726-23.618 25.336 0 13.932 11.536 24.279 28.928 24.279 9.158 0 15.789-2.123 19.778-4.377l-3.196-9.439c-2.907 1.594-8.869 4.261-16.987 4.261-12.214 0-16.855-7.3-16.855-13.403 0-8.365 5.434-12.469 17.772-17.243 15.146-5.846 22.834-13.147 22.834-26.286 0-13.799-10.215-25.732-31.315-25.732-8.622 0-18.036 2.51-22.825 5.69l2.923 9.695c5.178-3.196 12.734-5.839 20.695-5.839 11.834 0 18.738 6.243 18.738 15.252-0.017 8.39-4.806 13.18-16.871 17.805zM247.569 141.461c7.053 0 14.212 1.462 18.845 3.708l2.387-9.15c-4.253-2.13-12.734-4.236-23.618-4.236-25.203 0-44.197 15.921-44.197 45.246 0 27.995 18.986 46.972 46.716 46.972 11.14 0 18.168-2.403 21.215-3.98l-2.774-9.43c-4.377 2.13-10.612 3.716-18.052 3.716-20.976 0-34.907-13.394-34.907-36.889 0.017-21.884 12.619-35.955 34.387-35.955zM390.954 133.161h-12.734l-29.184 90.839h12.469l13.932-42.678c3.856-12.56 7.151-23.387 9.546-31.645h0.256c2.519 8.258 6.243 19.373 10.224 31.497l15.12 42.827h12.337l-31.967-90.839z" horiz-adv-x="464" />
<glyph unicode="&#xe61b;" d="M424.225 407.825c23.791 24.048 47.203 47.707 71.433 72.175 0-57.311 0-113.598 0-170.818-56.584 0-113.226 0-171.545 0 24.014 23.246 47.261 45.725 70.59 68.335-77.799 68.831-203.181 61.803-277.495-13.229-77.287-78.022-79.938-202.628-6.012-284.259 73.546-81.152 205.642-95.406 297.984-8.432 9.207-9.365 18.449-18.721 27.723-28.077-73.373-78.485-216.188-104.077-324.459-20.067-106.999 83.002-127.579 235.413-47.071 343.221 82.11 109.915 241.359 136.035 358.854 41.15z" />
<glyph unicode="&#xe61c;" d="M256 480c-141.37 0-256-114.63-256-256 0-141.394 114.63-256 256-256 141.394 0 256 114.606 256 256 0 141.37-114.606 256-256 256zM416 282.434l-190.769-201.934c-9.678-8.183-17.367 0.256-17.367 0.256l-99.469 99.212c-9.158 7.928 0 17.631 0 17.631l32.999 32.743c8.184 7.689 15.632 0.504 15.632 0.504l55.313-55.569c0 0 142.881 152.56 153.055 161.486 10.174 8.935 17.111-0.999 17.111-0.999s25.046-25.542 34.725-34.478c9.67-8.935-1.231-18.853-1.231-18.853z" />
<glyph unicode="&#xe61d;" d="M256 480c-141.37 0-256-114.63-256-256 0-141.394 114.63-256 256-256 141.394 0 256 114.606 256 256 0 141.37-114.606 256-256 256zM378.442 141.42h-0.33l-35.766-34.825c-4.534-4.534-11.875-4.055-16.359 0.462l-42.628 40.077-25.839 24.386-66.799-70.020c-4.517-4.526-17.3-4.467-17.3 0.058v0.33l-34.825 35.765c-4.534 4.558-4.063 11.867 0.47 16.359l40.084 42.628 24.229 25.683-69.871 65.677c-4.509 4.509-4.476 11.842 0.033 16.342l36.129 36.113c4.534 4.542 11.883 4.526 16.393 0l68.187-64.091 65.792 70.061c4.509 4.509 11.834 4.509 16.342 0l36.096-36.121c4.558-4.534 4.534-11.858 0-16.368l-64.223-68.344 70.202-66.907c4.517-4.493 4.517-17.267-0.017-17.267z" />
<glyph unicode="&#xe61e;" d="M532.949 283.819l-184.133 26.756-82.341 166.851-82.34-166.851-184.135-26.756 133.243-129.88-31.457-183.366 164.69 86.562 164.69-86.562-31.455 183.366 133.239 129.88zM266.24 100.116l-117.573-61.808 22.462 130.926-95.133 92.769 131.467 19.101 58.778 119.13 58.787-119.13 131.464-19.101-95.132-92.771 22.462-130.926-117.581 61.81z" horiz-adv-x="533" />
<glyph unicode="&#xe61f;" d="M266.486 397.784l63.43-112.891 128.949-24.298-89.801-94.090 16.322-127.875-118.892 54.745-118.903-54.745 16.287 127.875-89.791 94.090 128.976 24.298 63.424 112.891z" horiz-adv-x="533" />
<glyph unicode="&#xe620;" d="M256 480c-141.387 0-256-114.63-256-256 0-141.394 114.614-256 256-256s256 114.606 256 256c0 141.37-114.613 256-256 256zM421.334 237.065l-30.588-6.887c1.618-37.012-10.149-72.779-33.883-101.459-16.004-19.308-36.129-33.957-58.74-43.082-13.353-5.368-27.541-8.836-42.281-10.182-81.945-7.507-155.004 53.050-162.891 135.019-3.823 39.787 8.085 78.633 33.536 109.362 25.418 30.645 61.316 49.565 101.013 53.231 15.385 1.412 29.002-9.909 30.431-25.303 1.371-15.351-9.959-28.986-25.303-30.398-24.849-2.255-47.203-14.080-63.067-33.205-15.888-19.184-23.338-43.446-20.934-68.327 4.93-51.39 50.73-89.377 102.102-84.661 24.791 2.271 47.17 14.105 63.058 33.238 12.618 15.261 19.811 33.75 21.058 53.173l-28.647-6.466c-9.918-2.221-14.774 2.51-15.938 7.243-0.735 2.981-0.24 6.392 1.445 10.108l36.963 81.928c2.37 5.277 6.664 8.96 11.76 10.108 5.087 1.148 10.628-0.322 15.178-4.030l70.738-57.65c3.237-2.642 5.219-5.475 5.971-8.473 1.115-4.732-1.057-11.058-10.983-13.287z" />
<glyph unicode="&#xe621;" d="M515.943 122.272h-84.822v85.487c0 5.124 0 20.766-24.657 20.766-21.536 0-24.010-11.857-24.010-20.766v-85.486h-84.822c-8.936 0-20.784-2.492-20.784-24.010 0-24.657 15.625-24.657 20.784-24.657h84.822v-84.839c0-8.927 2.474-20.766 24.010-20.766 24.657 0 24.657 15.625 24.657 20.766v84.839h84.822c5.124 0 20.784 0 20.784 24.657 0 21.518-11.856 24.010-20.784 24.010zM284.194 145.32h52.514v14.759c-3.865 4.223-8.796 7.887-15.144 10.719-43.404 19.297-65.131 30.795-65.131 30.795s-0.385 8.062-1.565 12.81c-1.18 4.731-20.88 3.873-20.88 3.873h-8.158c-1.276 20.661-3.367 37.125 0.166 41.226 4.651 5.421 18.597 22.069 22.034 49.41 0.787 6.251 10.117-2.23 14.645 23.599 6.724 38.498-6.497 27.709-5.902 33.016 0.621 5.465 1.478 10.553 1.775 14.952 5.701 79.672-40.255 99.511-85.233 99.511-44.995 0-68.672-40.195-78.133-66.268-3.961-10.894 4.748-48.344 0.315-48.956-11.349-1.582-6.811-18.886-3.052-37.58 4.608-22.978 12.722-12.311 13.806-18.86 0.367-2.3 6.549-26.484 7.284-28.295 4.739-11.847 14.2-22.121 14.2-22.121l0.263-39.635h-14.707c0 0-14.891 2.649-16.919-5.072-7.091-27.175-45.738-21.824-83.353-48.151-18.020-12.626-12.075-71.697-12.075-71.697l251.677 0.76c-0.97 4.94-0.586 10.23-0.586 16.464 0 21.754 12.031 34.738 32.159 34.738z" horiz-adv-x="540" />
<glyph unicode="&#xe622;" d="M255.958-32c-26.624 0-45.209 20.975-45.209 51.029v159.702h-159.744c-29.986 0-51.004 18.645-51.004 45.278 0 26.624 21.017 45.218 51.004 45.218h159.752v159.795c-0.008 29.986 18.577 50.978 45.201 50.978 26.633 0 45.321-20.992 45.321-50.978v-159.795h159.65c30.072 0 51.089-18.594 51.089-45.218 0-26.641-21.017-45.278-51.089-45.278h-159.65v-159.702c0-30.055-18.688-51.030-45.321-51.030z" />
<glyph unicode="&#xe623;" d="M244.885 334.823c-8.646 8.655-22.66 8.655-31.315 0-8.655-8.646-8.655-22.676 0-31.323l83.514-83.514-83.514-83.531c-8.655-8.654-8.655-22.676 0-31.323 4.327-4.327 9.993-6.483 15.657-6.483 5.673 0 11.346 2.156 15.657 6.483l99.188 99.18c8.646 8.654 8.646 22.685 0 31.323l-99.188 99.187zM256 478.555c-139.454 0-252.903-113.466-252.903-252.928 0-139.454 113.45-252.903 252.903-252.903 139.446 0 252.903 113.441 252.903 252.903s-113.457 252.928-252.903 252.928zM256 5.054c-121.633 0-220.581 98.948-220.581 220.565 0 121.642 98.948 220.606 220.581 220.606 121.625 0 220.573-98.957 220.573-220.597 0-121.617-98.948-220.573-220.573-220.573z" />
<glyph unicode="&#xe624;" d="M256-16.781c132.988 0 240.772 107.809 240.772 240.797 0 132.963-107.784 240.772-240.772 240.772-132.996 0-240.772-107.809-240.772-240.772 0-132.996 107.776-240.797 240.772-240.797zM256 441.311c119.817 0 217.311-97.494 217.311-217.302 0-119.825-97.503-217.327-217.311-217.327-119.825 0-217.303 97.503-217.303 217.327 0 119.817 97.478 217.303 217.303 217.303zM332.379 119.478c-4.319 0-8.671 1.486-12.222 4.517l-88.122 74.802c-4.154 3.592-7.226 8.795-7.226 14.303v132.716c0 10.397 10.405 18.82 20.794 18.82s20.794-8.423 20.794-18.82v-124.053l79.534-69.202c7.887-6.731 8.159-18.613 1.421-26.509-3.741-4.344-9.67-6.574-14.972-6.574z" />
<glyph unicode="&#xe625;" d="M256-28.903c139.693 0 252.903 113.235 252.903 252.911s-113.21 252.895-252.903 252.895c-139.685 0-252.903-113.218-252.903-252.895s113.218-252.911 252.903-252.911zM256 452.253c125.853 0 228.278-102.383 228.278-228.244s-102.425-228.269-228.278-228.269c-125.853 0-228.244 102.409-228.244 228.269s102.391 228.245 228.244 228.245zM256.793 347.805c12.041 0 21.801-9.794 21.801-21.818s-9.761-21.818-21.801-21.818c-12.065 0-21.818 9.786-21.818 21.818s9.753 21.818 21.818 21.818zM231.226 255.719c0 10.471 14.162 18.944 24.576 18.944v0c10.438 0 21.751-8.473 21.768-18.944l1.594-144.896c0.017-10.521-13.502-19.035-23.948-19.035v0c-10.454 0-23.982 8.514-23.982 19.035v144.896z" />
<glyph unicode="&#xe626;" d="M256-30.967c140.833 0 254.959 114.151 254.959 254.976 0 140.817-114.127 254.959-254.959 254.959-140.816 0-254.959-114.143-254.959-254.959 0-140.825 114.143-254.976 254.959-254.976zM256.009 348.821c12.147 0 21.974-9.869 21.974-21.991s-9.827-22.007-21.974-22.007c-12.164 0-21.991 9.876-21.991 22.007s9.827 21.991 21.991 21.991zM231.226 259.443c0 10.546 12.462 19.093 22.949 19.093 10.521 0 21-8.547 21.017-19.093l1.156-146.093c0.017-10.595-11.999-19.175-22.536-19.175-10.529 0-22.577 8.58-22.577 19.175v146.094z" />
<glyph unicode="&#xe627;" d="M256 476.903c-139.694 0-252.903-113.226-252.903-252.911 0-139.668 113.21-252.895 252.903-252.895 139.677 0 252.903 113.226 252.903 252.895 0 139.685-113.226 252.911-252.903 252.911zM256-4.261c-125.861 0-228.269 102.383-228.269 228.253s102.409 228.269 228.269 228.269c125.844 0 228.253-102.4 228.253-228.269s-102.409-228.253-228.253-228.253zM255.207 100.204c-12.041 0-21.802 9.786-21.802 21.818 0 12.024 9.761 21.818 21.802 21.818 12.065 0 21.818-9.794 21.818-21.818 0-12.041-9.753-21.818-21.818-21.818zM280.774 192.281c0-10.479-14.163-18.952-24.576-18.952v0c-10.438 0-21.751 8.473-21.768 18.952l-1.594 144.896c-0.017 10.512 13.502 19.026 23.948 19.026v0c10.454 0 23.981-8.506 23.981-19.026v-144.896z" />
<glyph unicode="&#xe628;" d="M255.988 480c-141.389 0-255.988-114.611-255.988-256s114.6-256 255.988-256 255.988 114.611 255.988 256-114.6 256-255.988 256zM219.173 374.616c0.202 6.394 5.536 11.394 11.93 11.192l50.781-0.297c6.406-0.203 11.418-5.56 11.204-11.942l0.072-22.622-0.178-146.996c-0.214-6.37-5.56-11.394-11.93-11.168l-51.054-0.25c-6.417 0.202-11.418 5.56-11.192 11.93l0.369 170.155zM256.512 62.656c-23.646 0-42.827 19.157-42.827 42.839 0 23.646 19.169 42.839 42.827 42.839 23.67 0 42.851-19.17 42.851-42.839 0-23.646-19.181-42.839-42.851-42.839z" />
<glyph unicode="&#xe629;" d="M420.716 69.565l250.651 252.861c8.798 8.987 11.372 22.258 6.575 33.779-4.823 11.534-16.168 18.984-28.659 18.93l-503.485-2.304c-12.463-0.041-23.713-7.599-28.43-19.146-1.617-3.881-2.304-7.855-2.277-11.83 0.040-8.084 3.112-15.953 9.148-21.908l252.901-250.583c5.726-5.673 13.716-8.974 21.814-8.947 8.138 0.041 16.168 3.409 21.76 9.149z" horiz-adv-x="768" />
<glyph unicode="&#xe62a;" d="M374.69 365.986l-250.637-252.861c-8.799-8.974-11.372-22.259-6.575-33.792 4.823-11.52 16.169-18.971 28.658-18.917l503.485 2.304c12.463 0.041 23.713 7.599 28.416 19.146 1.617 3.867 2.304 7.855 2.29 11.83-0.054 8.098-3.126 15.953-9.162 21.908l-252.901 250.583c-5.713 5.673-13.716 8.974-21.8 8.947-8.151-0.040-16.182-3.409-21.774-9.149z" horiz-adv-x="768" />
<glyph unicode="&#xe62b;" d="M267.041 243.191l-220.763 220.614c-7.837 7.762-19.465 10.050-29.597 5.897-10.124-4.187-16.689-14.105-16.681-25.047l0.19-441.369c-0.009-10.925 6.59-20.81 16.689-24.981 3.394-1.437 6.887-2.048 10.372-2.048 7.085 0 13.981 2.675 19.233 7.936l220.565 220.796c4.988 4.988 7.92 11.974 7.92 19.084 0 7.143-2.932 14.196-7.928 19.118z" horiz-adv-x="275" />
<glyph unicode="&#xe62c;" d="M7.894 205.287l220.309-221.069c7.821-7.771 19.447-10.091 29.581-5.962 10.116 4.178 16.706 14.055 16.723 24.989l0.726 441.369c0.017 10.933-6.548 20.819-16.649 25.030-3.369 1.462-6.87 2.089-10.347 2.097-7.069 0.009-13.989-2.651-19.242-7.903l-221.043-220.333c-4.996-4.98-7.936-11.966-7.952-19.068-0.009-7.143 2.915-14.204 7.894-19.15z" horiz-adv-x="275" />
<glyph unicode="&#xe62d;" d="M286.152 254.161l-213.33 213.321c-16.657 16.683-43.656 16.683-60.33 0-16.657-16.657-16.657-43.673 0-60.329l183.173-183.157-183.173-183.165c-16.657-16.649-16.657-43.682 0-60.329 8.337-8.337 19.268-12.501 30.174-12.501s21.837 4.164 30.157 12.501l213.33 213.33c16.674 16.649 16.674 43.673 0 60.329z" horiz-adv-x="299" />
<glyph unicode="&#xe62e;" d="M12.502 193.834l213.333-213.316c16.649-16.683 43.648-16.683 60.313 0 16.666 16.649 16.666 43.665 0 60.331l-183.16 183.151 183.168 183.176c16.657 16.649 16.657 43.674 0 60.322-8.32 8.354-19.277 12.502-30.166 12.502-10.905 0-21.863-4.156-30.149-12.502l-213.333-213.325c-16.683-16.657-16.683-43.674-0.008-60.339z" horiz-adv-x="299" />
<glyph unicode="&#xe62f;" d="M161.709 150.744v166.605h-104.175c-30.162 0-54.844-24.19-54.844-53.751v-161.234c0-29.56 24.674-53.742 54.844-53.742h27.409v-80.622l82.254 80.621h136.982c30.152 0 54.827 24.181 54.827 53.742v48.945c-1.767-0.394-3.604-0.565-5.442-0.565h-191.853zM497.95 454.528h-246.716c-30.171 0-54.8-24.19-54.8-53.751v-214.967h191.862l82.254-80.613v80.613h27.4c30.162 0 54.854 24.181 54.854 53.76v161.226c0 29.543-24.692 53.733-54.853 53.733z" horiz-adv-x="556" />
<glyph unicode="&#xe630;" d="M462.452 471.742h-412.903c-22.8 0-41.291-18.49-41.291-41.291v-412.903c0-22.809 18.49-41.291 41.291-41.291h412.903c22.809 0 41.291 18.481 41.291 41.291v412.903c0 22.8-18.481 41.291-41.291 41.291zM346.839 323.097h-52.298c-6.070 0-22.024-1.527-22.024-12.213v-37.335h74.322v-49.548h-74.322v-165.161h-49.548v165.161h-57.806v49.548h57.806v31.373c0 44.594 29.077 84.24 71.572 84.24h52.298v-66.065z" />
<glyph unicode="&#xe631;" d="M462.452 471.742h-412.903c-22.8 0-41.291-18.49-41.291-41.291v-412.903c0-22.809 18.49-41.291 41.291-41.291h412.903c22.809 0 41.291 18.481 41.291 41.291v412.903c0 22.8-18.481 41.291-41.291 41.291zM376.692 285.919c0.124-2.684 0.182-5.359 0.182-8.068 0-82.308-62.645-177.193-177.177-177.193-35.188 0-67.906 10.306-95.472 27.986 4.88-0.578 9.819-0.884 14.865-0.884 29.167 0 56.023 9.959 77.337 26.657-27.26 0.512-50.267 18.507-58.186 43.248 3.807-0.726 7.705-1.115 11.71-1.115 5.681 0 11.19 0.768 16.409 2.18-28.482 5.723-49.962 30.91-49.962 61.077 0 0.256 0 0.521 0.025 0.785 8.39-4.674 18.002-7.457 28.202-7.779-16.706 11.173-27.698 30.233-27.698 51.836 0 11.421 3.064 22.107 8.431 31.298 30.712-37.665 76.61-62.455 128.347-65.057-1.049 4.559-1.585 9.315-1.585 14.195 0 34.395 27.879 62.274 62.258 62.274 17.92 0 34.089-7.556 45.461-19.67 14.179 2.799 27.524 7.986 39.539 15.12-4.641-14.534-14.517-26.756-27.375-34.453 12.594 1.511 24.601 4.856 35.765 9.819-8.349-12.519-18.894-23.486-31.075-32.256z" />
<glyph unicode="&#xe632;" d="M392.737 231.209h-122.872v111.748c0 5.698-4.666 10.306-10.397 10.306-5.739 0-10.372-4.608-10.372-10.306v-122.070c0-5.070 3.716-9.059 8.522-9.918 0.397-0.24 0.966-0.397 1.858-0.397h133.293c5.748 0 10.405 4.633 10.405 10.331-0.017 5.681-4.666 10.306-10.438 10.306zM504.080 220.903c0 43.454-11.603 84.158-31.744 119.42 9.951-0.181 18.688 2.329 24.807 8.308 15.269 15.186 9.488 46.179-11.925 74.050l4.88 4.889c6.325 6.226 6.325 16.433 0 22.685-6.268 6.259-16.516 6.259-22.875 0l-4.583-4.55c-28.788 23.056-61.548 29.688-77.303 14.005-6.325-6.268-8.877-15.327-8.39-25.716-25.361 13.833-53.488 23.28-83.315 27.442v-11.049h-66.899v11.033c-25.493-3.469-49.788-10.686-72.183-21.306-0.685 7.762-3.179 14.634-8.209 19.58-15.344 15.228-46.848 9.398-75.041-12.246l-2.832 2.791c-6.309 6.251-16.541 6.251-22.867 0-6.301-6.252-6.301-16.459 0-22.685l2.609-2.601c-22.908-28.449-29.325-60.73-13.684-76.329 3.485-3.403 7.977-5.508 12.916-6.854-20.62-35.625-32.603-76.817-32.603-120.882 0-79.822 38.92-150.429 98.733-194.709l-40.357-74.141 18.275-6.854 58.864 58.45c32.867-16.293 69.846-25.716 109.106-25.716 39.276 0 76.222 9.406 109.072 25.716l58.814-58.417 18.308 6.821-40.39 74.141c59.871 44.296 98.816 114.902 98.816 194.725zM269.865 18.275h-20.778c-104.638 5.228-188.367 88.386-193.651 192.314v20.62c5.285 103.952 89.055 187.169 193.75 192.355 0-0.215-0.099-0.331-0.099-0.471h20.778c0 0.173-0.050 0.281-0.091 0.471 104.679-5.17 188.424-88.394 193.709-192.355v-20.637c-5.285-103.911-88.964-187.070-193.618-192.298zM293.64 450.387v44.296h-66.899v-44.296z" />
<glyph unicode="&#xe633;" d="M432.029 402.796c-96.966 96.322-254.745 96.322-351.686 0.025-96.975-96.306-96.975-252.97 0-349.267 96.942-96.298 254.728-96.298 351.695 0 96.958 96.298 96.958 252.961-0.009 349.242zM404.909 80.483c-82.019-81.433-215.453-81.433-297.439 0-82.028 81.457-82.028 213.941 0 295.391 82.011 81.45 215.42 81.45 297.439 0 81.995-81.45 81.995-213.933 0-295.391zM368.615 130.585c3.097-7.086-0.207-15.31-7.325-18.39-7.118-3.063-15.401 0.207-18.498 7.308-13.543 31.141-45.601 51.242-81.647 51.242-36.88 0-69.145-20.108-82.143-51.216-2.246-5.368-7.474-8.63-12.99-8.63-1.8 0-3.625 0.347-5.393 1.090-7.177 2.957-10.562 11.14-7.597 18.25 17.392 41.596 59.838 68.443 108.107 68.443 47.302 0.009 89.468-26.74 107.487-68.096zM163.411 295.011c0 15.938 13.014 28.862 29.069 28.862s29.069-12.94 29.069-28.862c0-15.946-13.014-28.886-29.069-28.886s-29.069 12.932-29.069 28.886zM295.201 295.011c0 15.938 13.039 28.862 29.093 28.862 16.029 0 29.052-12.94 29.052-28.862 0-15.946-13.014-28.886-29.052-28.886-16.053 0-29.093 12.932-29.093 28.886z" />
<glyph unicode="&#xe634;" d="M289.644 193.313c-2.61 0-6.598-0.652-9.175-1.99-2.543-1.338-7.952-3.328-7.952-5.88v38.557h-16.516v-115.613h16.516v5.707c0-2.585 5.615-4.5 8.192-5.723 2.577-1.238 5.459-1.841 8.779-1.841 5.021 0 8.894 1.586 11.529 4.789 2.642 3.196 4.534 7.804 4.534 13.799v46.98c0 6.937-1.106 12.214-3.931 15.814-2.816 3.592-6.598 5.401-11.974 5.401zM287.43 121.6c-0.991-1.197-2.139-1.792-4.22-1.792-1.437 0-4.418 0.314-5.723 0.916-1.296 0.594-4.971 1.611-4.971 2.981v52.752c0 1.181 3.014 2.048 4.178 2.585 1.197 0.578 2.048 0.826 3.262 0.826 2.271 0 5.062-0.719 6.293-2.197 1.189-1.462 2.783-3.642 2.783-6.507v-43.726c0-2.717-0.661-4.649-1.602-5.839zM132.129 199.226h16.516v-90.839h24.774v90.839h8.258v24.774h-49.548zM222.968 127.967c0-1.825-0.982-3.337-2.899-4.526-1.916-1.205-1.651-1.792-2.882-1.792-1.585 0-1.965 0.446-2.692 1.363-0.71 0.875 0.214 2.329 0.214 4.336v63.62h-24.774v-69.475c0-5.054 3.642-8.812 5.607-11.346 2.015-2.527 6.524-3.774 10.454-3.774 3.188 0 5.401 0.884 8.77 2.7 3.403 1.792 8.201 4.394 8.201 7.837v-8.522h24.774v82.581h-24.774v-63.001zM462.452 471.742h-412.903c-22.8 0-41.291-18.49-41.291-41.291v-412.903c0-22.809 18.49-41.291 41.291-41.291h412.903c22.809 0 41.291 18.481 41.291 41.291v412.903c0 22.8-18.481 41.291-41.291 41.291zM289.033 356.129h16.516v-68.831c0-2.221 2.635-3.815 3.443-4.798 0.768-0.991 3.749-1.495 5.524-1.495 1.387 0 5.153 0.661 7.308 1.966 2.123 1.313 8.498 2.981 8.498 5.029v68.129h16.516v-90.839h-16.516v10.529c-16.516-3.782-9.53-6.697-13.337-8.679-3.815-1.973-9.356-2.973-12.924-2.973-4.435 0-8.605 1.404-10.834 4.178-2.229 2.783-4.195 6.945-4.195 12.502v75.281zM224.999 354.725c5.145 4.286 14.65 6.433 23.296 6.433 7.903 0 12.767-2.271 17.804-6.788 5.012-4.493 6.409-10.322 6.409-17.425v-48.186c0-7.986-1.354-14.229-6.252-18.771-4.988-4.542-11.661-6.829-20.332-6.829-8.324 0-16.863 2.362-21.859 7.044s-9.357 10.992-9.357 18.919v48.343c0 7.242 5.169 12.981 10.29 17.26zM167.572 389.161l13.915-49.548h1.355l13.287 49.548h21.793l-27.987-71.176v-52.695h-16.516v50.325l-27.458 73.546h21.612zM437.678 122.707c0-34.362-26.013-63.868-60.375-63.868h-249.749c-34.353 0-61.489 29.506-61.489 63.868v66.337c0 32.207 25.377 51.472 57.575 51.472h257.586c32.19 0 56.452-19.266 56.452-51.465v-66.346zM237.262 281.427c1.355-1.412 6.276-2.106 8.77-2.106 2.601 0 5.318 0.726 6.829 2.139 1.553 1.445 3.138 3.41 3.138 5.904v50.803c0 2.039-1.553 3.683-3.105 4.938s-4.377 1.875-6.912 1.875c-2.321 0-7.185-0.619-8.655-1.875-1.437-1.255-6.102-2.899-6.102-4.93v-50.804c0-2.569 4.683-4.542 6.036-5.946zM340.967 194.403c-7.581 0-14.897-2.304-19.695-6.928s-7.466-10.637-7.466-17.953v-38.036c0-8.142 1.858-14.575 6.21-19.209 4.327-4.649 8.943-6.978 16.524-6.978 8.432 0 14.031 3.212 18.267 7.589 4.212 4.327 4.426 12.015 4.418 20.274h-12.387v-1.197c0-4.988-1.065-8.192-2.18-9.646-1.106-1.478-4.055-2.205-6.879-2.205-2.7 0-4.195 0.851-5.327 2.577-1.123 1.717-2.13 4.815-2.13 9.274v17.714h24.774v19.844c0 8.019 2.932 14.163-1.238 18.44-4.154 4.294-5.145 6.442-12.891 6.442zM346.839 157.935h-16.516v11.726c0 3.534 1.305 6.094 2.502 7.598 1.164 1.561 3.452 2.313 6.152 2.313 2.577 0 4.699-0.752 5.846-2.313 1.173-1.503 2.015-4.063 2.015-7.598v-11.726z" />
<glyph unicode="&#xe635;" d="M175.115 244.873c1.389-2.798 2.191-4.363 2.945-5.958 6.662-14.020 13.364-28.030 19.948-42.079 2.103-4.471 5.332-6.887 10.341-6.281 4.774 0.587 8.032 3.14 9.343 7.925 0.304 1.086 0.597 2.182 0.87 3.288 10.439 41.198 20.868 82.397 31.327 123.605 0.362 1.399 0.919 2.74 1.722 5.077 0.645-1.731 0.949-2.289 1.066-2.886 6.173-28.93 12.347-57.87 18.51-86.79 3.023-14.235 6.017-28.47 9.001-42.705 1.017-4.794 3.14-8.541 8.551-9.197 4.53-0.567 9.519 2.475 11.721 7.093 0.616 1.311 1.096 2.69 1.604 4.050 9.411 25.291 18.813 50.601 28.235 75.89 0.606 1.624 1.33 3.209 2.397 5.792 0.87-2.495 1.418-3.923 1.868-5.39 7.993-25.437 16.006-50.874 24.009-76.312 2.084-6.643 5.557-10.048 10.781-10.253 5.841-0.225 8.404 3.786 10.723 8.336 5.117 10.038 10.449 19.968 16.182 30.867 1.017-2.505 1.702-4.079 2.289-5.694 3.238-8.786 6.36-17.639 9.705-26.396 2.387-6.281 5.45-8.238 12.171-8.238 32.051-0.019 64.131 0 96.201 0 0.147 0 0.303-0.019 0.47 0 7.308 0.108 11.486 4.089 11.408 10.88-0.058 6.702-3.972 10.459-11.192 10.469-28.5 0.039-57.009 0.019-85.498 0-2.358 0-4.716-0.205-6.144-0.274-6.066 16.671-11.838 32.794-17.806 48.839-1.673 4.462-5.411 6.926-10.106 7.25-4.598 0.313-7.377-2.524-9.382-6.418-4.666-9.060-9.431-18.070-14.186-27.081-0.606-1.174-1.418-2.24-2.553-3.992-5.224 16.642-10.165 32.354-15.096 48.066-4.216 13.413-8.375 26.846-12.65 40.25-1.791 5.625-5.293 8.727-9.852 8.551-5.214-0.205-8.747-2.994-10.586-7.896-0.411-1.056-0.851-2.093-1.243-3.15-8.854-23.784-17.718-47.558-26.582-71.341-0.499-1.35-1.154-2.651-2.074-4.755-0.616 1.605-0.93 2.172-1.057 2.759-5.87 27.511-11.74 55.023-17.591 82.534-3.962 18.657-7.896 37.314-11.877 55.971-1.428 6.643-4.627 9.451-10.4 9.402-5.645-0.049-8.982-2.916-10.615-9.353-9.715-38.214-19.4-76.438-29.106-114.663-2.632-10.38-5.303-20.751-8.257-32.315-1.34 2.564-2.123 3.923-2.798 5.342-6.114 12.845-12.131 25.731-18.334 38.547-3.571 7.377-10.831 8.56-16.564 2.632-1.624-1.683-2.788-3.972-3.639-6.173-7.445-19.312-14.871-38.625-22.062-58.016-1.36-3.678-3.258-4.901-7.123-4.774-8.57 0.284-17.16 0.156-25.75 0.068-6.643-0.079-10.752-4.119-10.84-10.419-0.079-6.496 4.197-10.86 10.977-10.918 12.298-0.068 24.606 0.039 36.913-0.049 5.362-0.039 8.962 2.416 10.947 7.24 2.016 4.931 3.864 9.94 5.752 14.91 4.207 10.997 8.375 21.983 12.982 34.135zM595.61 479.892c-197.558 0-395.136 0-592.704 0-0.978 0-1.937 0.059-2.905 0.098v-407.18c16.348 0.049 32.706 0.137 49.055 0.137 53.438 0.019 106.875 0 160.322 0h6.399v-83.356h162.357v83.18h222.908v407.121h-5.43zM540.519 135.454h-479.166v282.039h479.176v-282.039zM128.272-13.099h337.217v-17.082h-337.217v17.082zM108.538 188.618c12.298-0.068 24.605 0.039 36.913-0.049 5.362-0.039 8.962 2.416 10.947 7.24 2.016 4.931 3.864 9.94 5.752 14.91 4.188 11.007 8.355 21.994 12.963 34.154 1.389-2.798 2.191-4.363 2.945-5.958 6.662-14.020 13.364-28.030 19.948-42.079 2.103-4.471 5.332-6.887 10.341-6.281 4.774 0.587 8.032 3.14 9.343 7.925 0.304 1.086 0.597 2.182 0.87 3.288 10.439 41.198 20.868 82.397 31.327 123.605 0.362 1.399 0.919 2.739 1.722 5.077 0.645-1.732 0.949-2.29 1.066-2.886 6.173-28.93 12.347-57.869 18.51-86.789 3.023-14.235 6.017-28.47 9.001-42.705 1.017-4.794 3.14-8.541 8.551-9.197 4.53-0.567 9.519 2.475 11.721 7.093 0.616 1.311 1.096 2.69 1.604 4.050 9.411 25.291 18.813 50.601 28.235 75.891 0.606 1.624 1.33 3.209 2.397 5.792 0.87-2.495 1.418-3.923 1.868-5.391 7.993-25.437 16.006-50.874 24.009-76.311 2.084-6.643 5.557-10.048 10.781-10.253 5.841-0.225 8.404 3.786 10.723 8.336 5.117 10.038 10.449 19.968 16.182 30.867 1.017-2.505 1.702-4.079 2.289-5.694 3.238-8.786 6.36-17.639 9.705-26.396 2.387-6.281 5.45-8.238 12.171-8.238 32.051-0.019 64.131 0 96.201 0 0.147 0 0.303-0.019 0.47 0 7.308 0.108 11.486 4.089 11.408 10.88-0.058 6.702-3.972 10.459-11.192 10.469-28.5 0.039-57.009 0.019-85.498 0-2.358 0-4.716-0.205-6.144-0.274-6.066 16.671-11.838 32.794-17.806 48.839-1.673 4.462-5.411 6.927-10.106 7.25-4.598 0.313-7.377-2.524-9.382-6.418-4.666-9.060-9.431-18.070-14.186-27.081-0.606-1.174-1.418-2.24-2.553-3.992-5.224 16.642-10.165 32.354-15.096 48.067-4.216 13.413-8.375 26.846-12.65 40.249-1.791 5.625-5.293 8.727-9.852 8.551-5.214-0.206-8.747-2.994-10.586-7.895-0.411-1.057-0.851-2.094-1.243-3.151-8.854-23.784-17.718-47.558-26.582-71.341-0.499-1.35-1.154-2.651-2.074-4.755-0.616 1.605-0.93 2.172-1.057 2.759-5.87 27.511-11.74 55.023-17.591 82.533-3.962 18.657-7.896 37.315-11.877 55.971-1.428 6.643-4.627 9.451-10.4 9.402-5.645-0.049-8.982-2.916-10.615-9.353-9.715-38.214-19.4-76.439-29.106-114.662-2.632-10.381-5.303-20.751-8.257-32.315-1.34 2.564-2.123 3.923-2.798 5.342-6.114 12.845-12.131 25.731-18.334 38.547-3.571 7.377-10.831 8.561-16.564 2.632-1.624-1.683-2.788-3.972-3.639-6.173-7.445-19.313-14.871-38.626-22.062-58.016-1.36-3.678-3.258-4.901-7.123-4.774-8.57 0.284-17.16 0.156-25.75 0.068-6.643-0.079-10.752-4.119-10.84-10.42-0.058-6.516 4.216-10.88 10.996-10.938z" horiz-adv-x="597" />
<glyph unicode="&#xe636;" d="M256.014 478.356c-140.491 0-254.362-113.87-254.362-254.361 0-140.481 113.87-254.361 254.362-254.361s254.371 113.88 254.371 254.361c-0.010 140.491-113.889 254.361-254.371 254.361zM477.142 232.203h-98.412c-0.9 36.345-7.377 71.077-18.824 102.864 22.159 9.236 42.647 21.524 61.303 36.052 33.195-37.275 53.966-85.655 55.933-138.916zM246.935 2.898c-27.276 22.727-50.16 52.205-66.89 86.466 21.475 6.731 44.231 10.39 67.76 11.144v-97.63c-0.284 0-0.577 0.019-0.87 0.019zM265.055 445.092c30.955-25.779 56.216-60.295 73.298-100.525-23.421-8.003-48.272-12.64-74.149-13.462v114.036c0.303-0.019 0.577-0.039 0.851-0.049zM292.389 442.284c45.298-7.534 85.928-28.675 117.568-59.308-17.18-13.188-35.954-24.341-56.245-32.794-14.949 35.416-35.915 66.704-61.323 92.102zM247.806 445.142v-114.046c-25.887 0.841-50.757 5.469-74.149 13.462 17.092 40.239 42.343 74.755 73.298 100.525 0.284 0.019 0.567 0.039 0.851 0.058zM158.297 350.183c-20.262 8.453-39.055 19.606-56.236 32.784 31.62 30.623 72.27 51.775 117.569 59.308-25.447-25.388-46.374-56.676-61.333-92.092zM167.474 329.413c25.291-8.776 52.274-13.893 80.332-14.754v-82.465h-98.118c0.891 34.369 6.966 67.213 17.786 97.219zM247.806 215.796v-98.872c-25.887-0.783-50.904-5.029-74.492-12.63-14.215 33.851-22.6 71.537-23.627 111.502h98.118zM219.63 5.705c-40.582 6.741-77.446 24.41-107.413 50.082 16.172 11.212 33.646 20.683 52.312 27.913 14.314-29.673 33.048-56.001 55.101-77.994zM264.213 2.878v97.63c23.481-0.763 46.286-4.452 67.771-11.163-16.769-34.243-39.623-63.74-66.899-86.447-0.274 0-0.577-0.019-0.87-0.019zM347.49 83.7c18.647-7.22 36.12-16.73 52.313-27.913-29.967-25.633-66.841-43.341-107.413-50.082 22.042 21.993 40.768 48.32 55.101 77.994zM338.705 104.294c-23.598 7.602-48.624 11.848-74.492 12.63v98.872h98.099c-1.017-39.966-9.411-77.651-23.608-111.502zM264.213 232.203v82.465c28.050 0.861 54.993 5.958 80.313 14.734 10.801-30.006 16.916-62.849 17.786-97.209l-98.099 0.010zM90.82 371.12c18.667-14.529 39.154-26.817 61.293-36.052-11.466-31.786-17.933-66.518-18.833-102.863h-98.403c1.977 53.262 22.737 101.641 55.942 138.916zM34.878 215.796h98.403c1.018-41.923 9.784-81.526 24.664-117.118-20.79-8.101-40.171-18.931-58.065-31.709-38.528 38.38-62.849 90.791-65.001 148.827zM412.13 67.009c-17.884 12.748-37.265 23.568-58.075 31.669 14.901 35.621 23.647 75.196 24.664 117.128h98.412c-2.152-58.046-26.464-110.455-65.001-148.798z" />
<glyph unicode="&#xe637;" d="M256 471.75c-136.836 0-247.742-110.923-247.742-247.75 0-136.82 110.906-247.75 247.742-247.75 136.82 0 247.742 110.93 247.742 247.75 0 136.828-110.923 247.75-247.742 247.75zM253.226 102.722c-11.801 0-21.363 9.579-21.363 21.372 0 11.784 9.571 21.372 21.363 21.372 11.809 0 21.363-9.587 21.363-21.372s-9.555-21.372-21.363-21.372zM284.341 229.071c-2.642-2.304-4.93-3.849-6.87-5.343-7.482-5.789-8.448-9.365-8.58-37.946-0.017-9.472-7.746-19.588-17.251-19.588h-0.025c-9.554 0-17.226 10.248-17.21 19.745 0.165 40.457 5.178 47.252 22.528 61.911 1.651 1.387 3.427 3.691 5.327 5.359 14.964 13.237 19.663 20.010 19.728 34.056 0.017 6.846-2.469 13.526-6.854 17.978-4.129 4.145-10 6.475-16.921 6.532-15.426 0-25.369-5.054-28.267-30.456-1.065-9.117-9.282-15.798-18.523-14.7-9.133 1.057-15.732 9.357-14.716 18.507 5.681 49.722 36.418 60.176 61.217 60.176 16.442-0.066 30.455-5.714 41.002-16.334 10.546-10.686 16.582-25.683 16.483-41.356-0.149-28.879-14.154-43.536-31.067-58.541z" />
<glyph unicode="&#xe638;" d="M506.92 459.288l-15.616 15.64-235.304-235.288-235.288 235.288-15.632-15.64 235.288-235.288-235.288-235.288 15.632-15.648 235.288 235.32 235.304-235.32 15.616 15.648-235.288 235.288z" />
<glyph unicode="&#xe639;" d="M196.953 447.783h313.688v-62.738h-313.688v62.738zM196.953 259.57h313.688v-62.738h-313.688v62.738zM196.953 71.365h313.688v-62.738h-313.688v62.738zM8.74 416.414c0 34.649 28.089 62.738 62.737 62.738s62.737-28.089 62.737-62.738-28.089-62.737-62.737-62.737-62.737 28.089-62.737 62.737zM8.74 228.202c0 34.649 28.089 62.738 62.737 62.738s62.737-28.089 62.737-62.738c0-34.631-28.089-62.738-62.737-62.738s-62.737 28.106-62.737 62.738zM8.74 39.997c0 34.649 28.089 62.738 62.737 62.738s62.737-28.089 62.737-62.738c0-34.64-28.089-62.738-62.737-62.738s-62.737 28.098-62.737 62.738z" horiz-adv-x="519" />
<glyph unicode="&#xe63a;" d="M367.063 391.391h-76.131v51.952c0 19.084-15.517 34.593-34.585 34.593h-124.548c-19.084 0-34.609-15.517-34.609-34.593v-51.952h-76.115c-7.647 0-13.841-6.202-13.841-13.841v-41.513c0-7.647 6.194-13.841 13.841-13.841h13.733v-332.115c0-7.647 6.194-13.841 13.84-13.841h290.585c7.671 0 13.841 6.193 13.841 13.841v332.115h13.989c7.647 0 13.841 6.193 13.841 13.841v41.513c0 7.638-6.193 13.841-13.841 13.841zM138.702 436.422h110.716v-45.031h-110.716v45.031zM311.56 17.755h-235.239v304.442h235.231v-304.442zM261.897 59.276c7.63 0 13.841 6.194 13.841 13.841v193.743c0 7.647-6.21 13.841-13.841 13.841-7.638 0-13.84-6.194-13.84-13.841v-193.75c0-7.639 6.202-13.832 13.84-13.832zM193.437 59.276c7.647 0 13.849 6.194 13.849 13.841v193.743c0 7.647-6.202 13.841-13.849 13.841-7.622 0-13.84-6.194-13.84-13.841v-193.75c0.008-7.639 6.219-13.832 13.84-13.832zM125.977 59.276c7.647 0 13.84 6.194 13.84 13.841v193.743c0 7.647-6.194 13.841-13.841 13.841-7.622 0-13.841-6.194-13.841-13.841v-193.75c0-7.639 6.219-13.832 13.841-13.832z" horiz-adv-x="386" />
<glyph unicode="&#xe63b;" d="M509.101 371.779c-26.635 0.329-265.748 0.182-371.252 0.095-2.232 16.918-3.721 43.995-3.989 46.512-1.549 14.079-6.585 26.142-21.088 30.962-29.872 9.943-59.9 19.471-89.892 29.084-39.019 12.513-20.37-53.781-1.116-60.012 21.062-6.81 42.186-13.43 63.291-20.041 3.288-1.021 5.425-2.259 5.789-6.387 2.891-31.706 34.276-273.406 37.547-301.617 3.176-27.259 4.352-40.238 27.639-42.012 1.834-0.139 4.344-0.355 6.248-0.355 25.736-0.017 50.744-0.017 75.476-0.017 60.67 0 72.014 0 132.078 0 26.618 0.017 53.678 0.017 81.282 0.017 7.036 0 19.695 0.034 26.817 0.034 8.039 0 14.841 9.043 14.269 25.113-0.536 15.057-7.892 21.435-16.182 21.435-110.54 0-186.197-0.052-296.736-0.052 0 0-6.351 47.084-7.511 55.711 99.757 0 289.77 0.069 292.332 0.069 25.589 0 32.105 10.644 35.306 25.658 10.116 47.092 28.435 109.873 36.371 157.389 3.375 19.972-7.779 38.188-26.678 38.413zM486.879 311.422c-3.038-18.276-9.224-48.468-14.399-74.593l-11.673 77.856h-28.721l18.873-125.769c-0.554-0.034-1.012-0.087-1.627-0.087-1.471 0-2.933-0.034-4.378-0.034-8.255 0-19.142 0-31.542 0l-18.882 125.882h-28.704l18.882-125.882c-11.838 0-24.472 0-37.548 0l-18.873 125.882h-28.695l18.865-125.882c-12.505 0-25.103 0-37.556 0l-18.865 125.882h-28.703l18.873-125.882c-13.231 0-25.84 0-37.556 0l-18.882 125.882h-28.695l18.873-125.916c-8.151 0-15.567 0-21.547 0l-20.665 144.686c60.306 0.018 312.65 0.13 327.872-0.060 10.817-0.121 17.186-10.54 15.274-21.963zM192.332 35.454c-1.367 0-2.674 0.173-3.998 0.251-6.369-7.018-10.35-16.243-10.35-26.471 0-21.807 17.688-39.495 39.512-39.495s39.512 17.697 39.512 39.495c0 10.108-3.903 19.219-10.125 26.194-17.878 0.009-35.947 0.009-54.552 0.026zM392.21 35.437c-6.231-6.983-10.133-16.087-10.133-26.194 0-21.807 17.697-39.495 39.512-39.495s39.512 17.697 39.512 39.495c0 10.108-3.902 19.254-10.151 26.228-19.947 0-39.486-0.017-58.74-0.034z" horiz-adv-x="537" />
<glyph unicode="&#xe63c;" d="M0 480v-512h512v512h-512zM480 0h-448v448h448v-448z" />
<glyph unicode="&#xe63d;" d="M509.101 371.779c-26.635 0.329-265.748 0.182-371.252 0.095-2.232 16.918-3.721 43.995-3.989 46.512-1.549 14.079-6.585 26.142-21.088 30.962-29.872 9.943-59.9 19.471-89.892 29.084-39.019 12.513-20.37-53.781-1.116-60.012 21.062-6.81 42.186-13.43 63.291-20.041 3.288-1.021 5.425-2.259 5.789-6.387 2.891-31.706 34.276-273.406 37.547-301.617 3.176-27.259 4.352-40.238 27.639-42.012 1.834-0.139 4.344-0.355 6.248-0.355 25.736-0.017 50.744-0.017 75.476-0.017 60.67 0 72.014 0 132.078 0 26.618 0.017 53.678 0.017 81.282 0.017 7.036 0 19.695 0.034 26.817 0.034 8.039 0 14.841 9.043 14.269 25.113-0.536 15.057-7.892 21.435-16.182 21.435-110.54 0-186.197-0.052-296.736-0.052 0 0-6.351 47.084-7.511 55.711 99.757 0 289.77 0.069 292.332 0.069 25.589 0 32.105 10.644 35.306 25.658 10.116 47.092 28.435 109.873 36.371 157.389 3.375 19.972-7.779 38.188-26.678 38.413zM486.879 311.422c-3.038-18.276-9.224-48.468-14.399-74.593l-11.673 77.856h-28.721l18.873-125.769c-0.554-0.034-1.012-0.087-1.627-0.087-1.471 0-2.933-0.034-4.378-0.034-8.255 0-19.142 0-31.542 0l-18.882 125.882h-28.704l18.882-125.882c-11.838 0-24.472 0-37.548 0l-18.873 125.882h-28.695l18.865-125.882c-12.505 0-25.103 0-37.556 0l-18.865 125.882h-28.703l18.873-125.882c-13.231 0-25.84 0-37.556 0l-18.882 125.882h-28.695l18.873-125.916c-8.151 0-15.567 0-21.547 0l-20.665 144.686c60.306 0.018 312.65 0.13 327.872-0.060 10.817-0.121 17.186-10.54 15.274-21.963zM192.332 35.454c-1.367 0-2.674 0.173-3.998 0.251-6.369-7.018-10.35-16.243-10.35-26.471 0-21.807 17.688-39.495 39.512-39.495s39.512 17.697 39.512 39.495c0 10.108-3.903 19.219-10.125 26.194-17.878 0.009-35.947 0.009-54.552 0.026zM392.21 35.437c-6.231-6.983-10.133-16.087-10.133-26.194 0-21.807 17.697-39.495 39.512-39.495s39.512 17.697 39.512 39.495c0 10.108-3.902 19.254-10.151 26.228-19.947 0-39.486-0.017-58.74-0.034z" horiz-adv-x="545" />
<glyph unicode="&#xe63e;" d="M256 480c-141.392 0-256-114.608-256-256s114.608-256 256-256 256 114.608 256 256-114.608 256-256 256zM256 32c-106.032 0-192 85.968-192 192s85.968 192 192 192 192-85.968 192-192-85.968-192-192-192z" />
<glyph unicode="&#xe63f;" d="M256 61.328c-89.84 0-162.672 72.848-162.672 162.672 0 89.84 72.832 162.672 162.672 162.672 89.824 0 162.672-72.832 162.672-162.672 0-89.824-72.848-162.672-162.672-162.672z" />
<glyph unicode="&#xe640;" d="M489.628 211.623h-222.798v224.343h-19.34v-224.343h-224.343v-19.34h224.343v-224.343h19.34v224.343h224.343v19.34z" />
<glyph unicode="&#xe641;" d="M266.512 449.148l-218.789-225.156 218.789-225.907-7.11-11.908-230.689 237.815 230.689 237.833z" horiz-adv-x="287" />
<glyph unicode="&#xe642;" d="M28.705-1.148l218.798 225.156-218.798 225.916 7.118 11.9 230.689-237.815-230.689-237.833z" horiz-adv-x="287" />
<glyph unicode="&#xe643;" d="M443.052 172.975c-1.86 4.427-4.469 8.442-7.836 11.758l-145.37 145.387c-14.115 14.115-36.957 14.115-51.037 0-14.114-14.097-14.114-40.323 0-54.421l83.786-87.178h-240.838l0.008 242.925c0 19.973-16.135 36.106-36.106 36.106-19.939 0-36.099-16.135-36.099-36.106l-0.008-274.849c-0.168-1.439 1.237-40.273 36.418-40.273h276.625l-82.793-79.426c-14.123-14.098-14.123-35.248 0-49.337 7.044-7.070 16.294-9.738 25.502-9.738 9.241 0 18.474 3.964 25.536 10.992l144.368 144.612c3.358 3.325 5.976 7.55 7.836 11.993 3.67 8.82 3.67 18.752 0.009 27.555z" horiz-adv-x="452" />
<glyph unicode="&#xe644;" d="M205.906 111.277l150.288 112.723-150.288 112.722v-225.445zM256 474.492c-137.769 0-250.492-112.723-250.492-250.492s112.722-250.492 250.492-250.492c137.769 0 250.492 112.722 250.492 250.492s-112.722 250.492-250.492 250.492v0zM256 23.61c-110.212 0-200.399 90.161-200.399 200.39 0 110.212 90.186 200.399 200.399 200.399 110.228 0 200.39-90.178 200.39-200.399 0-110.228-90.161-200.39-200.39-200.39v0z" />
</font>
</defs>
</svg>
