<?xml version="1.0" standalone="no"?>
<!DOCTYPE svg PUBLIC "-//W3C//DTD SVG 1.1//EN" "http://www.w3.org/Graphics/SVG/1.1/DTD/svg11.dtd" >
<svg xmlns="http://www.w3.org/2000/svg">
<metadata></metadata>
<defs>
<font id="hello_typelight" horiz-adv-x="1256" >
<font-face units-per-em="2048" ascent="1546" descent="-502" />
<missing-glyph horiz-adv-x="579" />
<glyph unicode="&#xfb01;" horiz-adv-x="1270" d="M-92 -257q0 23 14 38t32 15q20 0 66 -11t68 -11q42 0 74.5 10.5t56.5 42t24 81.5v1013h-155q-48 0 -48 49q0 43 48 43h157v82q0 82 27 144t75 98.5t109 54t135 17.5q24 0 38.5 -0.5t40.5 -2t42.5 -5t34 -9.5t26 -16.5t8.5 -23.5q0 -50 -40 -50q-21 0 -72 7.5t-80 7.5 q-114 0 -178.5 -51t-64.5 -171v-82h655q47 0 47 -48v-863q0 -48 -47 -48h-6q-47 0 -47 48v819h-602v-1020q0 -111 -72.5 -169t-183.5 -58q-25 0 -53 3.5t-58.5 10t-50.5 21t-20 34.5zM948 1195v76q0 48 47 48h6q47 0 47 -48v-76q0 -48 -47 -48h-6q-47 0 -47 48z" />
<glyph unicode="&#xfb02;" horiz-adv-x="1395" d="M-92 -257q0 24 14 38.5t32 14.5q20 0 66 -10.5t68 -10.5q42 0 75 10.5t56.5 42t23.5 81.5v1012h-155q-48 0 -48 50q0 42 48 42h157v83q0 82 27 143.5t75 98t109 54t135 17.5q24 0 38.5 -0.5t40.5 -1.5t42.5 -5t34 -9.5t26 -16t8.5 -23.5q0 -51 -40 -51q-21 0 -72 7.5 t-80 7.5q-114 0 -178.5 -50.5t-64.5 -170.5v-83h292q46 0 46 -40q0 -52 -54 -52h-284v-863q0 -65 -1.5 -105.5t-7.5 -85t-17 -70t-31 -50t-49.5 -39t-70.5 -24.5q-43 -9 -79 -9q-25 0 -53 3t-58.5 10t-50.5 21.5t-20 33.5zM948 348v1021q0 23 14 36.5t35 13.5q22 0 36.5 -13 t14.5 -37v-1147q0 -93 125 -93q28 0 84.5 16.5t77.5 16.5q18 0 30 -14t12 -37q0 -35 -72 -57t-142 -22q-55 0 -92 10.5t-62 31.5t-38.5 60.5t-18 89t-4.5 124.5z" />
<glyph horiz-adv-x="2048" />
<glyph horiz-adv-x="2048" />
<glyph unicode="&#xd;" horiz-adv-x="582" />
<glyph unicode=" "  horiz-adv-x="579" />
<glyph unicode="&#x09;" horiz-adv-x="579" />
<glyph unicode="&#xa0;" horiz-adv-x="579" />
<glyph unicode="!" horiz-adv-x="595" d="M234 118v33q0 50 50 50h24q48 0 48 -50v-33q0 -48 -48 -48h-24q-50 0 -50 48zM239 1266q0 33 11.5 51t42.5 18h9q31 0 41.5 -18t10.5 -51l-7 -874q0 -47 -50 -47t-50 47z" />
<glyph unicode="&#x22;" horiz-adv-x="923" d="M197 1010.5v33.5v247q0 29 1 42t6 26.5t16 17.5t31 4q15 0 26 -6t16 -14.5t7 -25t2 -27t-0.5 -31t-0.5 -29.5v-204q0 -23 -0.5 -34t-3.5 -24.5t-8.5 -19.5t-16 -9.5t-25.5 -2.5q-16 0 -25.5 4.5t-14.5 9t-7.5 19.5t-2.5 23.5zM623 1044v247q0 29 1 42t5.5 26.5t16 17.5 t31.5 4q16 0 27 -6t15.5 -14.5t7 -24.5t2 -27.5t-1.5 -31t-1 -29.5v-204q0 -24 -0.5 -34t-2.5 -24.5t-7.5 -20t-15.5 -9t-25 -2.5q-15 0 -25.5 4.5t-16 9.5t-7.5 19t-2.5 23.5t-0.5 33.5z" />
<glyph unicode="#" horiz-adv-x="1452" d="M67 454q0 16 7.5 27t18 16t28.5 7t32 1.5t36 -1.5t33 -1h147l70 397h-120q-11 0 -39.5 -1.5t-46 -1t-38.5 3.5t-31.5 12t-10.5 24q0 10 1.5 18t5.5 13.5t7.5 10t11.5 6.5t11.5 4t14.5 2.5t15.5 0.5h18.5h18h199l42 248q1 6 3.5 20.5t3.5 20.5t4.5 17t7.5 16t10 10.5t15 8 t21 2.5q52 0 44 -52l-50 -291h442l43 248q1 6 3 20.5t3.5 20.5t4.5 17t7 16t10.5 10.5t15.5 8t21 2.5q52 0 44 -52l-50 -291h178q7 0 22 0.5t22.5 0t19.5 -1.5t18 -3.5t13 -7t9.5 -12.5t2.5 -18q0 -17 -7.5 -28t-18 -16t-28.5 -7t-31.5 -1.5t-36 1.5t-32.5 1h-148l-70 -397 h118q11 0 40.5 1.5t47 1.5t38.5 -3t31.5 -13t10.5 -27q0 -16 -5.5 -25.5t-11 -15t-20.5 -8.5t-23 -3h-30h-13h-199l-44 -247q-1 -6 -4 -23.5t-4 -23.5t-5.5 -18t-10 -16.5t-16 -8.5t-23.5 -4q-46 0 -46 41q0 7 51 300h-442l-44 -247q-1 -6 -3.5 -23.5t-4 -23.5t-6 -18 t-10 -16.5t-16 -8.5t-23.5 -4q-46 0 -46 41q0 7 2 11l49 289h-178q-6 0 -21.5 -0.5t-22.5 0t-19 1.5t-18 4t-13.5 7.5t-10 12t-2.5 18.5zM470 503h443l70 397h-443z" />
<glyph unicode="$" horiz-adv-x="1219" d="M125 282q0 17 17 35.5t33 18.5q6 0 17 -4q9 -3 36.5 -23.5t44.5 -27.5q157 -89 359 -89q69 0 120 7q118 14 189 62t71 128q0 51 -29.5 88.5t-78.5 60t-113 38.5t-134.5 29t-141 27t-134.5 36.5t-113 53.5t-78.5 82t-29.5 117q0 63 23.5 113.5t63 84.5t95 58t115.5 37 t129 17v142q0 48 48 48t48 -48v-144q343 -26 402 -281q1 -6 1 -15q0 -16 -12 -28t-34 -12q-2 -3 -10 -3q-17 0 -31 18t-27 45t-40 59t-63 59t-103 45t-153 18q-94 0 -168.5 -19.5t-124.5 -66.5t-50 -117q0 -50 29.5 -87.5t78.5 -60t112.5 -39t134.5 -30t141.5 -28 t134.5 -36.5t113 -52.5t78 -79.5t29 -114q0 -76 -32.5 -133.5t-93.5 -93t-138.5 -55.5t-173.5 -24v-142q0 -48 -48 -48t-48 48v142q-137 6 -272.5 50t-183.5 116q-5 8 -5 18z" />
<glyph unicode="%" horiz-adv-x="1546" d="M95 1053q0 151 79 227.5t213 76.5t211.5 -75.5t77.5 -230.5q0 -146 -79 -224t-210.5 -78t-211.5 76t-80 228zM188 1053q0 -117 52 -166.5t147 -49.5q195 0 195 214q0 118 -52 168.5t-143 50.5q-95 0 -147 -50t-52 -167zM226 100q0 13 15 30l970 1175q14 20 31.5 25 t51.5 5q11 0 17 -6.5t6 -16.5q0 -17 -14 -37l-971 -1175q-24 -30 -61 -30q-45 0 -45 30zM868 352q0 151 79 227.5t212 76.5q135 0 213 -75.5t78 -230.5q0 -146 -80 -224t-211.5 -78t-211 76t-79.5 228zM960 352q0 -117 52 -167t147 -50q93 0 144 49.5t51 165.5 q0 119 -51 168.5t-144 49.5q-95 0 -147 -49.5t-52 -166.5z" />
<glyph unicode="&#x26;" horiz-adv-x="1313" d="M85 376q0 242 311 356q-106 82 -167 161.5t-61 166.5q0 133 103 216t282 83t276 -80.5t97 -209.5q0 -56 -22.5 -107t-55 -87t-82 -70t-89 -54.5t-91.5 -42.5l360 -286q61 97 61 248q0 23 14.5 36t35.5 13q22 0 37.5 -15t15.5 -41q0 -156 -75 -301l256 -222q20 -14 20 -36 q0 -18 -12.5 -31.5t-31.5 -13.5q-17 0 -35 13l-253 203q-75 -100 -200.5 -164.5t-282.5 -64.5q-183 0 -297 87.5t-114 242.5zM194 374q0 -47 17.5 -86.5t47 -65.5t69.5 -43.5t82.5 -25t87.5 -7.5q72 0 133.5 16t110.5 47t82 60.5t70 69.5l-417 329q-63 -22 -110.5 -46.5 t-88.5 -59.5t-62.5 -82.5t-21.5 -105.5zM279 1064q0 -23 4.5 -44.5t11 -37.5t22.5 -36.5t26 -32.5t34.5 -33t37 -31.5t43.5 -35t46 -35.5q70 24 121 49.5t96 60.5t68.5 80t23.5 101q0 90 -69 140t-193 50q-74 0 -133.5 -19.5t-99 -64.5t-39.5 -111z" />
<glyph unicode="'" horiz-adv-x="497" d="M197 1010.5v33.5v247q0 29 1 42t6 26.5t16 17.5t31 4q15 0 26 -6t16 -14.5t7 -25t2 -27t-0.5 -31t-0.5 -29.5v-204q0 -23 -0.5 -34t-3.5 -24.5t-8.5 -19.5t-16 -9.5t-25.5 -2.5q-16 0 -25.5 4.5t-14.5 9t-7.5 19.5t-2.5 23.5z" />
<glyph unicode="(" horiz-adv-x="776" d="M169 512q0 498 422 872q13 11 27 16t23.5 5.5t35.5 0.5q19 0 19 -16q0 -21 -21 -43q-67 -65 -120.5 -126.5t-108.5 -143.5t-91.5 -165t-59 -186.5t-22.5 -213.5t22.5 -213.5t59 -186.5t91.5 -165t108.5 -143.5t120.5 -126.5q16 -20 16 -33q0 -26 -42 -26q-34 0 -58 22 q-60 51 -115.5 110.5t-113 143.5t-99 175t-68 206.5t-26.5 236.5z" />
<glyph unicode=")" horiz-adv-x="776" d="M85 -356q0 14 19 33q67 65 120.5 126.5t107.5 143.5t90 165t59 186.5t23 213.5t-23 213.5t-59 186.5t-90 165t-107.5 143.5t-120.5 126.5q-19 19 -19 32q0 27 44 27q32 0 56 -22q422 -374 422 -872q0 -121 -27 -237t-68 -205t-99.5 -173.5t-112 -143t-115.5 -113.5 q-24 -22 -59 -22q-41 0 -41 26z" />
<glyph unicode="*" horiz-adv-x="1020" d="M149 881q0 28 32 41l252 114l-252 111q-32 13 -32 40q0 19 12 33.5t30 14.5q19 0 30 -6l252 -132q0 24 -3.5 104.5t-3.5 118.5q0 48 46 48q42 0 42 -48q0 -16 -7 -221l255 132q16 7 26 7q15 0 28.5 -13t13.5 -36q0 -28 -30 -41l-254 -112l254 -114q30 -16 30 -41 q0 -18 -11.5 -33t-27.5 -15q-11 0 -29 9l-255 130q0 -26 3.5 -110.5t3.5 -109.5q0 -49 -48 -49q-40 0 -40 44q0 13 7 225l-254 -131q-11 -8 -26 -8t-29.5 13.5t-14.5 34.5z" />
<glyph unicode="+" d="M158 666v2q0 50 50 50h370v320q0 50 48 50h2q48 0 48 -50v-320h372q51 0 51 -50v-2q0 -48 -51 -48h-372v-323q0 -47 -48 -47h-2q-48 0 -48 47v323h-370q-50 0 -50 48z" />
<glyph unicode="," horiz-adv-x="497" d="M28 -214q0 15 7 27l155 276q18 36 59 36h22q35 0 35 -27q0 -16 -11 -32l-170 -278q-21 -32 -58 -32q-39 0 -39 30z" />
<glyph unicode="-" horiz-adv-x="1001" d="M220 666v2q0 49 48 49h466q48 0 48 -49v-2q0 -48 -48 -48h-466q-48 0 -48 48z" />
<glyph unicode="." horiz-adv-x="497" d="M188 55v33q0 50 48 50h24q50 0 50 -50v-33q0 -48 -50 -48h-24q-48 0 -48 48z" />
<glyph unicode="/" horiz-adv-x="861" d="M76 104q0 5 7 23l594 1171q12 23 27.5 30t48 7t32.5 -30q0 -13 -7 -28l-597 -1172q-19 -35 -61 -35q-44 0 -44 34z" />
<glyph unicode="0" horiz-adv-x="1345" d="M132 698q0 169 39.5 296t113 206.5t171.5 119t220.5 39.5t219.5 -38t169 -116.5t111 -206t39 -298.5q0 -170 -39.5 -297t-113 -204t-171.5 -115t-221 -38q-121 0 -218 38t-169.5 115t-111.5 203.5t-39 295.5zM236 700q0 -290 111.5 -422t325.5 -132q215 0 325.5 132 t110.5 424q0 291 -111 424t-325 133q-437 0 -437 -559z" />
<glyph unicode="1" horiz-adv-x="788" d="M90 1183q0 34 39 50l240 94q91 33 116 33q60 0 60 -77v-1164q0 -47 -47 -47h-9q-51 0 -51 47v1134l-280 -109q-13 -5 -23 -5q-21 0 -33 12.5t-12 31.5z" />
<glyph unicode="2" horiz-adv-x="1257" d="M162 1069q14 41 41 81t70.5 78.5t98.5 67.5t129 46.5t157 17.5q210 0 334.5 -99.5t124.5 -276.5q0 -107 -52 -197t-175 -183l-573 -432h774q48 0 48 -51v-2q0 -47 -48 -47h-822q-28 0 -48.5 15.5t-27.5 39.5t4.5 53.5t43.5 54.5l561 432q118 90 161 163t43 151 q0 134 -95.5 207t-250.5 73q-162 0 -260.5 -61.5t-128.5 -149.5q-17 -49 -57 -49q-34 0 -49 28q-10 18 -3 40z" />
<glyph unicode="3" horiz-adv-x="1251" d="M111 1055q0 9 2 14q14 53 47 102t88.5 92.5t144 69.5t199.5 26q241 0 373 -91.5t132 -253.5q0 -217 -240 -297q271 -63 271 -316q0 -169 -141.5 -262t-377.5 -93q-52 0 -132 12t-161.5 33t-139.5 55.5t-58 73.5q0 20 14.5 39t33.5 19q14 0 33 -12q79 -58 187.5 -89 t224.5 -31q117 0 208.5 26.5t147 83.5t55.5 138q0 142 -108 203t-322 61h-98q-49 0 -49 50q0 46 49 46h104q176 0 282.5 73t106.5 183q0 117 -94.5 183t-294.5 66q-320 0 -380 -208q-11 -38 -47 -38q-28 0 -44 11t-16 31z" />
<glyph unicode="4" horiz-adv-x="1288" d="M72 452q0 15 7.5 31.5t15 26t24.5 28.5t21 25q99 107 296.5 322.5t297.5 322.5q35 38 53.5 57t54.5 44.5t62 25.5h30q29 0 39 -17t10 -48v-763h183q51 0 51 -53q0 -13 -3 -22t-10 -14.5t-13 -8.5t-18.5 -4t-19 -1.5t-23.5 0t-24 0.5h-123v-286q0 -48 -49 -48h-9 q-47 0 -47 48v286h-688q-8 0 -27 -0.5t-28.5 -0.5t-24 2.5t-21 7t-12 14.5t-5.5 25zM225 507h653v710z" />
<glyph unicode="5" horiz-adv-x="1242" d="M140 204q0 23 16 40t32 17q14 0 33 -13q146 -103 380 -103q188 0 294.5 77t106.5 220t-116 218.5t-318 75.5q-153 0 -273 -23q-7 -2 -23 -2q-24 0 -44 12l-5 4q-33 22 -33 58v501q0 15 6 25.5t15 15.5t24.5 7t27 1.5t31 -1t28.5 -0.5h686q48 0 48 -56q0 -16 -6.5 -27.5 t-16.5 -16.5t-26 -6.5t-28.5 -1.5t-31.5 1t-29 1h-627v-416q122 24 280 24q256 0 398 -103t142 -286q0 -184 -135.5 -293t-374.5 -109q-77 0 -181 18t-192 56.5t-88 84.5z" />
<glyph unicode="6" horiz-adv-x="1280" d="M132 697q0 173 40 302t114.5 206t173.5 114.5t224 37.5q83 0 153.5 -15t115 -37t79.5 -51.5t51.5 -53.5t27.5 -48q16 -34 -3 -60t-49.5 -24.5t-47.5 33.5q-37 75 -126.5 115.5t-207.5 40.5q-437 0 -440 -543q210 107 459 107q99 0 183 -23t148 -67.5t100.5 -117 t36.5 -165.5q0 -129 -65 -221t-177 -136.5t-259 -44.5q-121 0 -217 38t-166.5 115.5t-109 203.5t-38.5 294zM241 610q15 -240 122.5 -352t306.5 -112q181 0 285.5 77.5t104.5 219t-99 209t-268 67.5q-128 0 -245.5 -29t-206.5 -80z" />
<glyph unicode="7" horiz-adv-x="1187" d="M76 1283v4q0 48 50 48h936q50 0 50 -48q0 -9 -5 -21.5t-14 -28t-17.5 -28t-21 -31t-18.5 -26.5l-689 -1048q-23 -34 -59 -34h-15q-42 0 -42 30q0 9 2 14q8 25 28 56.5t52 73.5t41 55l618 934h-846q-50 0 -50 50z" />
<glyph unicode="8" horiz-adv-x="1315" d="M113 408q0 131 82.5 208t210.5 101q-116 39 -179.5 116t-63.5 181q0 163 127.5 253t367.5 90q238 0 365.5 -90.5t127.5 -252.5q0 -104 -63.5 -181t-177.5 -116q60 -11 111 -34.5t92.5 -60t65 -91.5t23.5 -123q0 -169 -148 -265.5t-395.5 -96.5t-396.5 96.5t-149 265.5z M222 402q0 -83 60.5 -142.5t156.5 -86.5t217.5 -27t219 27t159 86.5t61.5 142.5q0 256 -438 256q-222 0 -329 -64t-107 -192zM273 1010q0 -111 104 -183.5t281 -72.5q176 0 279 72.5t103 183.5q0 121 -91 184t-290.5 63t-292.5 -63t-93 -184z" />
<glyph unicode="9" horiz-adv-x="1279" d="M113 957q0 190 138 296t372 106q250 0 387 -162.5t137 -496.5q0 -170 -39 -296t-114 -204t-177 -116t-232 -38q-107 0 -215.5 26.5t-175.5 66t-67 75.5q0 12 10 32l4 3q13 24 35 24q17 0 32 -13q155 -112 377 -112q452 0 455 534q-202 -100 -442 -100q-104 0 -190.5 22 t-153 66.5t-104 117t-37.5 169.5zM220 962q0 -142 102 -210t276 -68q122 0 240 29.5t200 75.5q-15 242 -117.5 356t-302.5 114q-194 0 -296 -80t-102 -217z" />
<glyph unicode=":" horiz-adv-x="497" d="M188 101v33q0 50 48 50h24q50 0 50 -50v-33q0 -48 -50 -48h-24q-48 0 -48 48zM188 931v33q0 48 48 48h24q50 0 50 -48v-33q0 -48 -50 -48h-24q-48 0 -48 48z" />
<glyph unicode=";" horiz-adv-x="497" d="M28 -168q0 7 2 13q3 8 10.5 23l9.5 19l92 166q8 13 24 41t24 41q18 36 59 36q20 0 30 -1.5t18.5 -7.5t8.5 -18q0 -5 -3 -16q-4 -8 -23 -42l-109 -176q-4 -8 -21.5 -38.5t-30.5 -45.5t-29 -20q-14 -4 -23 -4q-39 0 -39 30zM188 918v33q0 48 48 48h24q50 0 50 -48v-33 q0 -48 -50 -48h-24q-48 0 -48 48z" />
<glyph unicode="&#x3c;" d="M158 649v39q0 17 7.5 30t23 22t28 14t34.5 11.5t30 10.5l760 292q9 3 22 3q36 0 36 -46q0 -41 -39 -55q-88 -33 -366.5 -138t-430.5 -164l797 -301q39 -13 39 -57t-36 -44q-12 0 -30.5 5.5t-42 15.5t-34.5 14l-759 291q-39 14 -39 57z" />
<glyph unicode="=" d="M158 433v2q0 48 50 48h840q51 0 51 -48v-2q0 -50 -51 -50h-840q-50 0 -50 50zM158 890v2q0 48 50 48h840q51 0 51 -48v-2q0 -50 -51 -50h-840q-50 0 -50 50z" />
<glyph unicode="&#x3e;" horiz-adv-x="1257" d="M157 310q0 17 7 30.5t22.5 22.5t26.5 13.5t33.5 11.5t28.5 9l717 271l-796 303q-39 13 -39 54v11q0 37 32 37q12 0 26 -5q127 -46 262 -98t320.5 -124.5t261.5 -101.5q39 -11 39 -56v-39q0 -43 -39 -56q-128 -46 -260.5 -96.5t-325.5 -126t-258 -101.5q-9 -3 -23 -3 q-35 0 -35 44z" />
<glyph unicode="?" horiz-adv-x="1057" d="M86 1058q0 9 2 14q12 56 43.5 105t85 91.5t138.5 67t192 24.5t191 -27t135 -72t77 -101.5t26 -118.5q0 -51 -13.5 -95.5t-33 -76t-55.5 -65t-67.5 -56t-80.5 -54.5q-47 -29 -70.5 -46t-51.5 -44t-41 -54t-22.5 -66t-11.5 -90q-3 -48 -51 -48h-5q-22 0 -35 12t-13 32 q0 76 16 134t49 102t71 76t97 68q54 35 86.5 59.5t63 57t44 68.5t13.5 81q0 94 -79.5 159.5t-236.5 65.5q-296 0 -356 -207q-11 -38 -46 -38q-27 0 -44 10.5t-17 31.5zM415 119v34q0 49 49 49h24q48 0 48 -49v-34q0 -47 -48 -47h-24q-49 0 -49 47z" />
<glyph unicode="@" horiz-adv-x="1526" d="M92 532q0 126 21.5 225t71 180.5t128 135t195.5 82.5t270 29q656 0 656 -635q0 -193 -64 -280t-202 -87q-43 0 -73 6.5t-51.5 23.5t-35.5 34.5t-33 49.5q-44 -34 -60.5 -45.5t-52.5 -33t-69.5 -28.5t-74.5 -7q-296 0 -296 362q0 81 18.5 144t50.5 104t77.5 68t97 38.5 t112.5 11.5q71 0 134 -12t107.5 -39.5t44.5 -66.5v-366q0 -40 3 -61.5t15 -42t36.5 -28t67.5 -7.5q30 0 53.5 7.5t39 17t26 30.5t16.5 38t8.5 49t3 54t0.5 62q0 99 -17 179.5t-57 149.5t-103 116.5t-158.5 74t-219.5 26.5q-139 0 -241.5 -26t-168.5 -72t-106 -118 t-56 -154.5t-16 -190.5q0 -107 17 -190t59.5 -153t110.5 -115.5t172 -70.5t242 -25q80 0 139.5 10t94.5 21.5t140 49.5q9 3 22 3q31 0 41 -31q3 -15 3 -20q0 -40 -86 -72t-184 -45.5t-170 -13.5q-190 0 -326.5 43.5t-217.5 130t-118 204.5t-37 276zM533 544 q0 -141 46.5 -200t145.5 -59q38 0 68.5 8t59 26.5t44 32t46.5 42.5q9 8 14 13v360q-11 4 -33 14t-31 13t-27.5 8t-38.5 7t-47 2q-117 0 -182 -60.5t-65 -206.5z" />
<glyph unicode="A" horiz-adv-x="1133" d="M30 105q0 12 5 28l459 1165q18 47 78 47q56 0 74 -47l453 -1161q6 -16 6 -30q0 -22 -15 -35.5t-36 -13.5q-39 0 -55 40l-132 347h-601l-129 -338q-9 -22 -26 -34t-37 -12q-19 0 -31.5 11.5t-12.5 32.5zM305 544h523l-260 680z" />
<glyph unicode="B" horiz-adv-x="1242" d="M243 118v1169q0 48 50 48h317q481 0 481 -321q0 -115 -67 -192t-187 -106q65 -10 118 -32t96 -57.5t66.5 -91.5t23.5 -127q0 -180 -128 -259t-388 -79h-332q-50 0 -50 48zM348 172h277q217 0 314 53t97 179q0 252 -411 252h-277v-484zM348 756h273q175 0 268.5 69.5 t93.5 184.5q0 223 -373 223h-262v-477z" />
<glyph unicode="C" horiz-adv-x="1297" d="M92 700q0 134 46 255.5t125 210.5t191 141t237 52q204 0 330 -82.5t149 -203.5q1 -6 1 -14q0 -20 -17 -33q-22 -16 -49.5 -8.5t-36.5 33.5q-30 91 -122.5 149.5t-254.5 58.5q-139 0 -252.5 -75t-176.5 -203t-63 -281q0 -159 64.5 -285t185 -197.5t278.5 -71.5 q89 0 165.5 14t113.5 27.5t97 39.5q15 6 27 6q20 0 32 -18q9 -12 9 -26t-10 -31q-11 -17 -31 -27q-50 -23 -91.5 -38.5t-127 -31t-184.5 -15.5q-186 0 -331 84.5t-224.5 233.5t-79.5 336z" />
<glyph unicode="D" horiz-adv-x="1395" d="M243 118v1169q0 48 50 48h303q161 0 290 -38.5t222.5 -114.5t144 -196t50.5 -278q0 -162 -51.5 -284.5t-147 -199.5t-224 -115.5t-287.5 -38.5h-300q-50 0 -50 48zM348 172h233q613 0 613 538q0 137 -44.5 238.5t-126.5 163.5t-192.5 91.5t-249.5 29.5h-233v-1061z" />
<glyph unicode="E" horiz-adv-x="1211" d="M243 118v1169q0 48 50 48h704q48 0 48 -52q0 -50 -48 -50h-649v-459h618q49 0 49 -49.5t-49 -49.5h-618v-503h683q49 0 49 -50q0 -52 -49 -52h-738q-50 0 -50 48z" />
<glyph unicode="F" horiz-adv-x="1102" d="M243 118v1169q0 48 50 48h667q48 0 48 -52q0 -50 -48 -50h-612v-470h517q48 0 48 -51q0 -50 -48 -50h-517v-544q0 -48 -47 -48h-8q-50 0 -50 48z" />
<glyph unicode="G" horiz-adv-x="1476" d="M92 700q0 135 45 256t124 210t193.5 141t245.5 52q89 0 166 -15t134 -38.5t103.5 -56.5t77 -66.5t50.5 -69.5q10 -18 9.5 -36t-13 -29t-27 -16t-32.5 2.5t-32 27.5q-61 89 -173 143t-263 54q-110 0 -204.5 -44t-159 -119.5t-101 -178t-36.5 -217.5q0 -113 38 -214.5 t105.5 -176.5t167.5 -119t217 -44q99 0 190 20.5t141 43t109 56.5v357h-396q-48 0 -48 48v4q0 50 48 50h450q47 0 47 -50v-557q0 -48 -47.5 -48t-47.5 48v42q-43 -23 -78 -39t-92 -35t-126.5 -29.5t-149.5 -10.5q-184 0 -330.5 88.5t-225.5 237.5t-79 328z" />
<glyph unicode="H" horiz-adv-x="1441" d="M243 118v1169q0 48 50 48h8q47 0 47 -48v-515h745v515q0 48 48 48h7q50 0 50 -48v-1169q0 -48 -50 -48h-7q-48 0 -48 48v553h-745v-553q0 -48 -47 -48h-8q-50 0 -50 48z" />
<glyph unicode="I" horiz-adv-x="591" d="M243 118v1169q0 48 50 48h8q47 0 47 -48v-1169q0 -48 -47 -48h-8q-50 0 -50 48z" />
<glyph unicode="J" horiz-adv-x="682" d="M30 115q0 23 12.5 40.5t29.5 17.5q18 0 67 -13.5t79 -13.5q69 0 101.5 32.5t32.5 106.5v1001q0 48 50 48h6q50 0 50 -48v-1007q0 -114 -59.5 -173t-178.5 -59q-41 0 -81.5 5t-74.5 22t-34 41z" />
<glyph unicode="K" horiz-adv-x="1194" d="M243 118v1169q0 48 50 48h8q47 0 47 -48v-613l612 659q22 25 44 25t37.5 -18t15.5 -40t-14 -35l-442 -463l529 -658q15 -21 15 -36q0 -22 -18.5 -38t-42.5 -16q-29 0 -46 22l-511 649l-179 -188v-419q0 -47 -47 -47h-8q-50 0 -50 47z" />
<glyph unicode="L" horiz-adv-x="1052" d="M243 118v1169q0 48 50 48h8q47 0 47 -48v-1115h620q47 0 47 -50v-4q0 -48 -47 -48h-675q-50 0 -50 48z" />
<glyph unicode="M" horiz-adv-x="1676" d="M239 131v1154q0 33 28 53.5t65 20.5q58 0 83 -47l423 -759l426 759q24 47 83 47q35 0 62.5 -21t27.5 -53v-1154q0 -32 -11.5 -45.5t-36.5 -13.5h-7q-25 0 -36.5 14t-11.5 47v1096l-424 -765q-20 -42 -72 -42q-48 0 -70 42l-424 765v-1096q0 -61 -47 -61h-8q-50 0 -50 59z " />
<glyph unicode="N" horiz-adv-x="1480" d="M243 118v1178q0 23 17 36.5t41 13.5q31 0 47 -22l783 -1060v1023q0 48 51 48h5q48 0 48 -48v-1169q0 -25 -15 -40t-36 -15q-34 0 -58 34l-779 1052v-1031q0 -48 -48 -48h-6q-50 0 -50 48z" />
<glyph unicode="O" horiz-adv-x="1494" d="M92 700q0 133 52 255t139.5 211t208 141t253.5 52t255 -52t210.5 -141t140.5 -211t52 -255q0 -132 -52 -253t-140.5 -209t-210.5 -140t-255 -52q-177 0 -327 88t-238 239t-88 327zM199 700q0 -149 73 -277t198.5 -202.5t274.5 -74.5q113 0 215 44t175 118.5t116 177 t43 214.5q0 114 -43 217.5t-116 178t-175 119t-215 44.5q-149 0 -274.5 -75t-198.5 -204t-73 -280z" />
<glyph unicode="P" horiz-adv-x="1227" d="M243 118v1169q0 48 50 48h300q241 0 379 -103t138 -305q0 -92 -29.5 -163t-76.5 -115.5t-114.5 -73t-138 -39t-150.5 -10.5q-101 0 -253 19v-427q0 -48 -47 -48h-8q-50 0 -50 48zM348 647q131 -21 257 -21q72 0 129.5 9t108.5 30t85 54.5t53.5 86.5t19.5 121 q0 156 -111 231t-297 75h-245v-586z" />
<glyph unicode="Q" horiz-adv-x="1494" d="M92 684q0 133 52 255t139.5 210.5t208 141t253.5 52.5t255 -52.5t210.5 -141t140.5 -210.5t52 -255q0 -225 -138.5 -400t-351.5 -230l180 -247q12 -18 12 -31q0 -19 -14 -31t-34 -12q-37 0 -54 27q-175 250 -192 273q-45 -3 -66 -3q-177 0 -327 88t-238 238.5t-88 327.5z M199 684q0 -150 73 -277.5t198.5 -202.5t274.5 -75q113 0 215 44.5t175 119t116 176.5t43 215t-43 216.5t-116 178.5t-175 119.5t-215 44.5q-149 0 -274.5 -75.5t-198.5 -204t-73 -279.5z" />
<glyph unicode="R" horiz-adv-x="1231" d="M243 117v1169q0 48 50 48h270q265 0 396.5 -93.5t131.5 -289.5q0 -148 -81 -239t-219 -119l302 -453q10 -15 10 -32q0 -20 -16.5 -34.5t-37.5 -14.5q-33 0 -55 37l-310 475q-100 -5 -148 -5q-59 0 -188 9v-458q0 -47 -47 -47h-8q-50 0 -50 47zM348 676q160 -9 199 -9 q221 0 328.5 67.5t107.5 214.5q0 68 -22 119t-58.5 82t-93 50t-115.5 25.5t-135 6.5h-211v-556z" />
<glyph unicode="S" horiz-adv-x="1186" d="M142 227q0 20 16.5 38t31.5 18q17 0 33 -14q85 -63 173 -92t207 -29q154 0 237 64t83 177q0 51 -26 91.5t-69.5 66.5t-101 48.5t-120.5 41.5t-126 40.5t-120 51.5t-100.5 68t-69.5 96t-26 132q0 156 120 245t307 89q80 0 149 -19t114.5 -47t80 -65.5t52 -71t26.5 -64.5 q5 -15 5 -26q0 -22 -14 -36q-20 -22 -50 -14t-40 41q-24 88 -107 145t-223 57q-147 0 -228.5 -58.5t-81.5 -168.5q0 -58 26.5 -104t70 -75.5t100.5 -53t120 -43t126 -39.5t120 -47t101 -62t70 -89t26 -123q0 -165 -118 -256.5t-319 -91.5q-105 0 -211 25.5t-175 68t-69 85.5 z" />
<glyph unicode="T" horiz-adv-x="1098" d="M76 1283v4q0 48 50 48h847q51 0 51 -48v-4q0 -50 -51 -50h-371v-1115q0 -48 -49 -48h-7q-50 0 -50 48v1115h-370q-50 0 -50 50z" />
<glyph unicode="U" horiz-adv-x="1343" d="M218 505v781q0 47 48 47h7q48 0 48 -47v-779q0 -366 356 -366q79 0 140 18t100.5 49.5t64 78.5t35 100.5t10.5 119.5v779q0 47 48 47h3q50 0 50 -47v-781q0 -103 -24.5 -185t-76.5 -145t-140.5 -96.5t-209.5 -33.5q-100 0 -178 22.5t-130.5 62.5t-86.5 98.5t-49 126.5 t-15 150z" />
<glyph unicode="V" horiz-adv-x="1279" d="M63 1310q0 22 14.5 35.5t35.5 13.5q36 0 51 -37l476 -1143l475 1143q15 37 50 37q20 0 35 -14t15 -36q0 -12 -6 -27l-495 -1187q-22 -49 -74 -49q-55 0 -74 49l-496 1187q-7 14 -7 28z" />
<glyph unicode="W" horiz-adv-x="1791" d="M74 1301q0 25 16.5 41.5t38.5 16.5q38 0 50 -45l319 -1128l317 1110q8 29 30.5 46t48.5 17q27 0 49.5 -16.5t31.5 -46.5l319 -1111l319 1129q13 45 55 45q20 0 35 -13t15 -36q0 -5 -3 -19l-332 -1173q-9 -34 -33.5 -53t-55.5 -19q-26 0 -49 14t-30 40l-321 1120 l-317 -1113q-8 -29 -30.5 -45t-50.5 -16t-48.5 15t-28.5 43l-341 1178q-4 14 -4 19z" />
<glyph unicode="X" horiz-adv-x="1204" d="M83 91q0 14 15 36l446 594l-402 553q-15 18 -15 36q0 20 14.5 34.5t34.5 14.5q33 0 62 -39l380 -522l390 528q25 33 56 33q19 0 31.5 -13t12.5 -32q0 -16 -11 -32l-420 -566l428 -583q14 -19 14 -40q0 -20 -14 -33.5t-34 -13.5q-35 0 -57 33l-409 559l-420 -559 q-25 -33 -58 -33q-19 0 -31.5 13t-12.5 32z" />
<glyph unicode="Y" horiz-adv-x="1123" d="M76 1312q0 21 14 34.5t34 13.5q29 0 47 -31l390 -649l391 647q19 33 51 33q19 0 32.5 -13t13.5 -32q0 -16 -11 -32l-426 -708v-456q0 -47 -47 -47h-8q-48 0 -48 47v456l-424 704q-9 13 -9 33z" />
<glyph unicode="Z" horiz-adv-x="1126" d="M106 141q0 32 23 62l748 1032h-703q-49 0 -49 52q0 48 49 48h747q54 0 71 -43q5 -15 5 -29q0 -28 -21 -57l-746 -1036h743q50 0 50 -50t-50 -50h-796q-54 0 -67 45q-4 14 -4 26z" />
<glyph unicode="[" horiz-adv-x="693" d="M243 -315v1674q0 48 50 48h275q48 0 48 -48q0 -51 -48 -51h-223v-1573h223q48 0 48 -48q0 -50 -48 -50h-275q-50 0 -50 48z" />
<glyph unicode="\" horiz-adv-x="861" d="M76 1301q0 34 44 34q19 1 33.5 -7t26 -24t19 -30.5t17.5 -38.5t17 -35l545 -1073q7 -18 7 -23q0 -16 -11 -25t-31 -9q-42 0 -62 35l-598 1172q-7 18 -7 24z" />
<glyph unicode="]" horiz-adv-x="693" d="M77 -315q0 50 50 50h221v1573h-221q-50 0 -50 49.5t50 49.5h274q49 0 49 -48v-1674q0 -48 -49 -48h-274q-50 0 -50 48z" />
<glyph unicode="^" d="M140 769q0 10 2 13q5 17 20 38.5t38.5 50t29.5 36.5q48 65 155 209.5t164 222.5q21 31 59 31h32q37 0 58 -30l325 -433q7 -9 30 -36.5t39 -49.5t21 -39q4 -7 4 -13q0 -29 -50 -29q-14 0 -26.5 4.5t-23 15t-17.5 18.5t-18.5 23.5t-17.5 23.5l-340 453l-335 -452 q-6 -8 -21 -28.5t-23.5 -30t-24 -18.5t-32.5 -9q-48 0 -48 29z" />
<glyph unicode="_" horiz-adv-x="1269" d="M67 -78q0 48 50 48h1032q49 0 49 -48v-2q0 -49 -49 -49h-1032q-50 0 -50 49v2z" />
<glyph unicode="`" horiz-adv-x="903" d="M313 1458q0 18 13 30.5t33 12.5q31 0 50 -28l170 -204q10 -14 10 -32q0 -17 -11 -28.5t-29 -11.5q-22 0 -41 22l-182 208q-13 16 -13 31z" />
<glyph unicode="a" horiz-adv-x="1038" d="M125 310q0 82 33.5 139.5t94 88.5t132.5 44t164 13t199 -13v162q0 94 -58 144t-168 50q-86 0 -142 -35.5t-102 -113.5q-15 -27 -44 -27q-20 0 -35.5 13t-15.5 31q0 5 3 16q34 97 122 154.5t218 57.5q325 0 325 -297v-529q0 -48 16 -70t51 -22q17 0 44.5 13.5t32.5 13.5 q16 0 26.5 -11.5t10.5 -34.5q0 -29 -43.5 -47.5t-87.5 -18.5q-64 0 -101.5 35t-45.5 114q-59 -61 -151 -105t-190 -44q-130 0 -209 73.5t-79 205.5zM229 310q0 -185 195 -185q93 0 176.5 44t147.5 120v197q-107 15 -201 15q-57 0 -102.5 -4.5t-87 -17.5t-69 -34t-43.5 -55 t-16 -80z" />
<glyph unicode="b" horiz-adv-x="1187" d="M220 209v1179q0 24 14.5 37.5t35.5 13.5t36 -13t15 -38v-429q87 52 139 70q77 26 161 26q142 0 247 -67.5t158 -180.5t53 -254q0 -138 -59 -253t-167 -182.5t-244 -67.5q-97 0 -191 24.5t-156 66.5q-42 32 -42 68zM321 217q39 -27 115.5 -49.5t172.5 -22.5q110 0 193 55 t126.5 147.5t43.5 205.5q0 175 -94 290.5t-257 115.5q-96 0 -166 -27t-134 -75v-640z" />
<glyph unicode="c" horiz-adv-x="1049" d="M109 532q0 139 57.5 253t165 181.5t243.5 67.5t224 -60t121 -163q6 -23 0.5 -41t-19.5 -26.5t-30.5 -9t-31.5 10.5t-23 33q-9 26 -26 51.5t-45 51t-72 41.5t-98 16q-164 0 -261.5 -116.5t-97.5 -289.5q0 -175 97.5 -292t261.5 -117q68 0 128 16t89.5 31t64.5 38 q18 12 36 12.5t29 -8.5t16 -22q3 -6 3 -16q0 -6 -3 -13q-5 -16 -23 -29q-145 -103 -340 -103q-136 0 -243.5 68t-165 182t-57.5 253z" />
<glyph unicode="d" horiz-adv-x="1202" d="M111 553.5q0 140.5 52.5 253.5t155.5 180.5t238 67.5q180 0 310 -70v403q0 24 15.5 37.5t35.5 13.5q22 0 37 -13t15 -38v-1159q0 -83 91 -83q18 0 50 10t43 10q15 0 23.5 -12.5t8.5 -34.5q0 -24 -23.5 -40t-54 -22.5t-63.5 -6.5q-151 0 -173 135q-41 -49 -128 -92 t-187 -43q-135 0 -238 68t-155.5 181.5t-52.5 254zM218 553q0 -115 37 -205.5t115 -146t187 -55.5q99 0 178.5 42.5t131.5 105.5v588q-133 77 -310 77q-109 0 -187 -55.5t-115 -145.5t-37 -205z" />
<glyph unicode="e" horiz-adv-x="1082" d="M109 532q0 147 48.5 259t146.5 177.5t234 65.5q105 0 189 -32.5t137 -87.5t81 -126t28 -149v-51q0 -48 -48 -48h-709q0 -116 41 -208.5t124 -149.5t194 -57q70 0 132.5 12.5t98 28t65 28t40.5 12.5q17 0 28.5 -14t11.5 -35q0 -29 -60.5 -59t-148.5 -49.5t-167 -19.5 q-136 0 -243.5 68t-165 182t-57.5 253zM225 634h642q0 141 -88.5 222.5t-240.5 81.5q-255 0 -313 -304z" />
<glyph unicode="f" horiz-adv-x="544" d="M-86 -287q0 23 14 38t30 15q21 0 58.5 -11.5t59.5 -11.5q139 0 139 134v1042h-139q-48 0 -48 50q0 42 48 42h140v83q0 166 72 239.5t219 73.5q24 0 37.5 -0.5t37 -1.5t38 -5t30 -9.5t22.5 -16t7 -24.5q0 -50 -40 -50q-21 0 -63 7.5t-71 7.5q-106 0 -148 -47.5t-42 -173.5 v-83h257q46 0 46 -40q0 -52 -53 -52h-250v-1049q0 -112 -64 -168.5t-173 -56.5q-26 0 -50.5 2.5t-52.5 9t-44.5 21.5t-16.5 35z" />
<glyph unicode="g" horiz-adv-x="1115" d="M109 510.5q0 139.5 53 253t156 181.5t238 68q26 0 50.5 -2.5t44.5 -5t41.5 -8.5t35.5 -10t33 -13t28 -12.5t26 -14t21.5 -13t19.5 -12.5t16 -11v24q0 26 11.5 37t38.5 11q47 0 47 -48v-898q0 -205 -110 -309t-315 -104q-95 0 -188.5 20.5t-150.5 50t-57 57.5 q0 22 12.5 36.5t29.5 14.5q23 0 75 -20.5t126 -41.5t153 -21q164 0 243.5 75.5t79.5 241.5v88q-127 -117 -311 -117q-135 0 -238 67.5t-156 181.5t-53 253.5zM216 511q0 -178 89 -292.5t251 -114.5q39 0 73 4.5t63 15.5t48.5 19.5t43 26.5t32 25.5t29 28l22.5 22.5v563 q-3 2 -40 24.5t-55.5 30.5l-55.5 24t-76.5 22.5t-83.5 6.5q-162 0 -251 -115.5t-89 -290.5z" />
<glyph unicode="h" horiz-adv-x="1167" d="M220 124v1266q0 23 14.5 36.5t35.5 13.5t36 -13t15 -37v-426q171 93 323 93q167 0 248 -76.5t81 -244.5v-612q0 -48 -47 -48h-6q-49 0 -49 48v603q0 124 -59 179t-180 55q-82 0 -165 -27t-146 -67v-743q0 -48 -48 -48h-5q-48 0 -48 48z" />
<glyph unicode="i" horiz-adv-x="540" d="M220 124v863q0 47 48 47h5q48 0 48 -47v-863q0 -48 -48 -48h-5q-48 0 -48 48zM220 1316v74q0 50 48 50h5q48 0 48 -50v-74q0 -48 -48 -48h-5q-48 0 -48 48z" />
<glyph unicode="j" horiz-adv-x="540" d="M-120 -286q0 26 14.5 41t31.5 15q20 0 67 -11.5t70 -11.5q66 0 111 29.5t45 97.5v1090q0 48 48 48h5q48 0 48 -48v-1009q0 -164 -58.5 -237t-196.5 -73q-64 0 -124.5 17t-60.5 52zM219 1293v74q0 51 48 51h5q48 0 48 -51v-74q0 -47 -48 -47h-5q-48 0 -48 47z" />
<glyph unicode="k" horiz-adv-x="982" d="M220 123v1266q0 23 14.5 36.5t35.5 13.5t36 -13t15 -37v-837l506 476q18 18 42 18q21 0 35 -14t14 -34q0 -22 -22 -42l-339 -311l386 -503q12 -18 12 -36q0 -20 -14.5 -33.5t-34.5 -13.5q-27 0 -45 23l-375 496l-165 -149v-306q0 -48 -48 -48h-5q-48 0 -48 48z" />
<glyph unicode="l" horiz-adv-x="594" d="M220 272v1116q0 24 14.5 37.5t35.5 13.5t36 -13t15 -38v-1109q0 -133 87 -133q40 0 79 17t48 17q18 0 30 -14t12 -37q0 -32 -61.5 -55.5t-115.5 -23.5q-91 0 -135.5 57.5t-44.5 164.5z" />
<glyph unicode="m" horiz-adv-x="1786" d="M216 102v863q0 48 48 48h5q46 0 46 -48v-48q150 119 325 119q211 0 278 -134q110 72 183 103t174 31q159 0 238 -81t79 -250v-603q0 -47 -48 -47h-5q-49 0 -49 47v594q0 128 -53.5 185.5t-173.5 57.5q-61 0 -124 -21.5t-98 -41.5t-86 -55v-719q0 -47 -48 -47h-6 q-48 0 -48 47v594q0 133 -47.5 188t-179.5 55q-27 0 -52.5 -3t-44 -6.5t-43 -13t-36.5 -14t-37 -19.5t-31.5 -19t-34 -22t-30.5 -21v-719q0 -47 -48 -47h-5q-48 0 -48 47z" />
<glyph unicode="n" horiz-adv-x="1163" d="M216 102v863q0 26 10 37t34 11h6q45 0 45 -48v-48q57 42 142.5 80.5t174.5 38.5q93 0 160 -24.5t106 -70t57 -104t18 -132.5v-603q0 -47 -47 -47h-6q-49 0 -49 47v594q0 121 -66 182t-173 61q-150 0 -311 -118v-719q0 -47 -48 -47h-5q-48 0 -48 47z" />
<glyph unicode="o" horiz-adv-x="1186" d="M109 532q0 138 62.5 253t173.5 182t246 67q103 0 193.5 -39.5t155 -107t101.5 -160t37 -195.5q0 -138 -63 -253t-175 -182.5t-249 -67.5q-135 0 -246 67.5t-173.5 182.5t-62.5 253zM216 532q0 -172 105.5 -289.5t269.5 -117.5q110 0 198 55t135 147.5t47 204.5 q0 170 -107 288t-273 118q-108 0 -194.5 -55t-133.5 -147t-47 -204z" />
<glyph unicode="p" horiz-adv-x="1187" d="M220 -324v1267q0 25 10 36t34 11h6q23 0 32.5 -11t9.5 -36v-49q29 22 69 45t115 48.5t144 25.5q135 0 236 -68t152 -181t51 -253t-54 -254t-158 -181.5t-240 -67.5q-90 0 -154.5 16t-151.5 52v-400q0 -52 -51 -52q-50 0 -50 52zM321 179q87 -39 151.5 -57t154.5 -18 q109 0 188.5 55.5t118 146t38.5 205t-36 204.5t-112 146t-184 56q-53 0 -104.5 -12.5t-96.5 -36t-66.5 -36.5t-51.5 -33v-620z" />
<glyph unicode="q" horiz-adv-x="1186" d="M109 510.5q0 140.5 52.5 253.5t155.5 181t238 68q25 0 49.5 -2.5t44.5 -5t41.5 -8.5t35.5 -10t33 -13t28 -12.5t26 -14t21.5 -13t20 -12.5t15.5 -11v41q0 38 45 38h5q48 0 48 -47v-1267q0 -52 -52 -52q-21 0 -36 12.5t-15 39.5v449q-50 -46 -130 -81.5t-180 -35.5 q-135 0 -238 67.5t-155.5 181t-52.5 254zM216 511q0 -116 37 -206t115 -145.5t187 -55.5q57 0 106.5 12.5t88.5 37t58.5 41t48.5 43.5l3 3l2.5 2.5l2.5 2.5v563q-3 2 -39.5 24.5t-55 30.5t-56 24t-76.5 22.5t-83 6.5q-109 0 -187 -56t-115 -146t-37 -204z" />
<glyph unicode="r" horiz-adv-x="837" d="M220 102v863q0 48 48 48h5q24 0 34 -11t10 -37v-54q50 50 118.5 87.5t131.5 37.5q92 0 147 -54t55 -122q0 -42 -53 -42q-15 0 -26 12.5t-19.5 30.5t-20.5 35.5t-37.5 30t-61.5 12.5q-57 0 -122.5 -36t-107.5 -89v-712q0 -47 -48 -47h-5q-48 0 -48 47z" />
<glyph unicode="s" horiz-adv-x="960" d="M132 184q0 15 12 33.5t29 18.5t35 -15q58 -50 114.5 -74t134.5 -24q115 0 188.5 44.5t73.5 123.5q0 42 -24.5 74.5t-64.5 52.5t-91 40t-105 36t-105 41.5t-91 55t-64.5 77.5t-24.5 110q0 119 90 187.5t231 68.5q151 0 243 -67.5t92 -167.5q0 -18 -11 -29t-31 -11 q-24 0 -37 8t-21 30q-46 141 -235 141q-97 0 -155.5 -39t-58.5 -116q0 -45 24.5 -80t64 -56t90.5 -41.5t104 -36t104 -39.5t90.5 -52.5t63.5 -75t24 -106.5q0 -128 -104 -197.5t-264 -69.5q-68 0 -130.5 16.5t-102.5 41.5t-64 51t-24 46z" />
<glyph unicode="t" horiz-adv-x="700" d="M53 980q0 46 50 46h118v223q0 25 11 38t39 13q48 0 48 -51v-223h240q21 0 33.5 -12.5t12.5 -34t-12.5 -33.5t-33.5 -12h-240v-659q0 -75 24.5 -103.5t85.5 -28.5q81 0 139 49q10 7 25 7q17 0 29 -14.5t12 -36.5q0 -39 -66 -72t-141 -33q-110 0 -159.5 53.5t-49.5 162.5 v675h-115q-50 0 -50 46z" />
<glyph unicode="u" horiz-adv-x="1125" d="M194 393v570q0 47 48 47h5q51 0 51 -47v-566q0 -129 71.5 -201t193.5 -72t194 72t72 201v566q0 47 47 47h6q49 0 49 -47v-570q0 -165 -99 -265t-269 -100q-174 0 -271.5 99.5t-97.5 265.5z" />
<glyph unicode="v" horiz-adv-x="1028" d="M37 986q0 20 14 34t34 14q37 0 54 -37l375 -842l376 840q17 39 50 39q20 0 35 -15t15 -37q0 -12 -5 -25l-397 -878q-24 -50 -74 -50q-48 0 -74 50l-396 880q-7 18 -7 27z" />
<glyph unicode="w" horiz-adv-x="1467" d="M30 987q0 22 14.5 34.5t35.5 12.5q37 0 47 -31l250 -843l287 829q14 45 70 45q25 0 44.5 -12t25.5 -33l287 -829l249 843q10 31 48 31q20 0 35 -12.5t15 -34.5q0 -11 -6 -25l-269 -888q-12 -45 -62 -45q-23 0 -43 10.5t-27 31.5l-297 835l-297 -835q-15 -42 -68 -42 q-21 0 -39.5 11.5t-24.5 33.5l-270 888q-5 14 -5 25z" />
<glyph unicode="x" horiz-adv-x="1026" d="M94 77q0 14 15 36l343 422l-335 412q-17 19 -17 39t14 34t34 14q23 0 41 -21l327 -404l320 399q20 26 46 26q19 0 32 -13.5t13 -33.5q0 -21 -16 -40l-334 -411l343 -423q13 -16 13 -34q0 -20 -15 -35t-35 -15t-37 19l-333 413l-333 -413q-17 -19 -37 -19t-34.5 14 t-14.5 34z" />
<glyph unicode="y" horiz-adv-x="1008" d="M-30 -342q0 19 12 35.5t32 16.5q9 0 38.5 -7.5t61.5 -7.5q50 0 95 20.5t76.5 51t66.5 85.5t58 102t56 123l-383 859q-6 16 -6 27q0 23 13.5 36t34.5 13q39 0 56 -39l336 -777l332 779q16 37 54 37q19 0 33.5 -13t14.5 -34q0 -14 -5 -27l-382 -876q-80 -182 -128 -256 q-102 -162 -244 -195q-40 -10 -85 -10q-63 0 -100 14.5t-37 42.5z" />
<glyph unicode="z" horiz-adv-x="982" d="M100 97q0 29 18 50l610 771h-569q-48 0 -48 50q0 44 48 44h659q25 0 38.5 -13.5t13.5 -34.5q0 -26 -17 -46l-604 -771h586q50 0 50 -50q0 -44 -50 -44h-685q-26 0 -38 12.5t-12 31.5z" />
<glyph unicode="{" horiz-adv-x="744" d="M35 528q0 18 24.5 31t58.5 24.5t68 27t58.5 46.5t24.5 74v352q0 182 70 261.5t227 79.5q28 0 46 -1t44 -5.5t39.5 -16.5t13.5 -31q0 -46 -40 -46q-16 0 -51 4t-50 4q-90 0 -144.5 -38t-54.5 -123v-351q0 -52 -2.5 -84.5t-11 -70t-24.5 -61.5t-45.5 -45t-71.5 -33 q76 -21 115.5 -75t39.5 -131v-436q0 -86 54.5 -124t144.5 -38q14 0 47.5 3.5t49.5 3.5q44 0 44 -51q0 -17 -14 -27t-40.5 -14.5t-43.5 -5t-45 -0.5q-60 0 -112 14.5t-94 44t-66.5 79.5t-24.5 115v438q0 142 -186 158q-48 3 -48 48z" />
<glyph unicode="|" horiz-adv-x="588" d="M243 -315v1674q0 48 50 48h4q48 0 48 -48v-1674q0 -48 -48 -48h-4q-50 0 -50 48z" />
<glyph unicode="}" horiz-adv-x="744" d="M35 -318q0 49 41 49q15 0 49.5 -4.5t51.5 -4.5q90 0 144.5 38t54.5 124v436q0 77 39.5 131t115.5 75q-42 12 -71.5 33t-45.5 45t-24.5 61.5t-11 70t-2.5 84.5v351q0 85 -54.5 123t-144.5 38q-17 0 -50 -4t-48 -4q-44 0 -44 50t144 50q157 0 226.5 -79.5t69.5 -261.5v-352 q0 -39 24.5 -69t58.5 -46.5t68.5 -29t58.5 -27t24 -31.5q0 -45 -48 -48q-186 -16 -186 -158v-438q0 -65 -24 -115t-66.5 -79.5t-94.5 -44t-111 -14.5h-30t-30 1t-32.5 4.5t-24.5 8.5t-20.5 14.5t-6.5 22.5z" />
<glyph unicode="~" d="M144 623q0 10 2 13q31 61 94 91.5t149 30.5q77 0 249.5 -43.5t223.5 -43.5q30 0 54 5t42 14.5t28 17t23.5 20.5t17.5 15q15 13 27 13q22 0 40 -14.5t18 -31.5q0 -10 -2 -13q-29 -58 -95 -91t-150 -33q-70 0 -242.5 43.5t-230.5 43.5q-45 0 -81 -13t-52 -28.5t-31.5 -28.5 t-26.5 -13q-20 0 -38.5 14t-18.5 32z" />
<glyph unicode="&#xa1;" horiz-adv-x="595" d="M232 913v34q0 47 50 47h24q48 0 48 -47v-34q0 -47 -48 -47h-24q-50 0 -50 47zM241 -228l4 892q0 49 50 49h2q48 0 48 -49l3 -892q0 -49 -48 -49h-9q-50 0 -50 49z" />
<glyph unicode="&#xa2;" horiz-adv-x="1219" d="M132 671q0 232 111.5 353.5t320.5 140.5v208q0 48 48 48q15 0 25.5 -5.5t15.5 -12t7 -21t2 -23.5t-0.5 -28.5t-0.5 -27.5v-134q169 -6 271 -74.5t126 -167.5q0 -2 1 -5.5t1 -5.5q0 -18 -14.5 -30t-34.5 -12h-9q-8 0 -25 19.5t-44.5 49t-65 58t-100 49.5t-135.5 21 q-91 0 -158.5 -19t-122 -63t-82.5 -123.5t-28 -194.5q0 -111 30.5 -190.5t88 -124t130 -64t166.5 -19.5q139 0 265 46q44 17 76 33q4 2 13 2q16 0 29 -16.5t13 -40.5q0 -29 -62.5 -57t-153 -45.5t-175.5 -19.5v-147q0 -8 0.5 -27.5t0.5 -29t-2 -24t-7 -21.5t-15.5 -12.5 t-26 -5.5t-25 6t-14.5 13.5t-7.5 22t-2.5 25t1 28.5t1 27v151q-202 21 -317 142t-115 348z" />
<glyph unicode="&#xa3;" horiz-adv-x="1257" d="M32 694q0 12 3 20t10.5 13t13.5 8t19.5 4t21 1.5t24 0t22.5 -0.5h133q-2 21 -8 69.5t-9 84.5t-3 69q0 64 13.5 119.5t47 107.5t85.5 89t134.5 59t189.5 22t191 -24.5t136 -68t82.5 -92.5t41.5 -105q2 -5 2 -14q0 -18 -14 -29t-36 -11q-4 -2 -11 -2q-35 0 -46 38 q-9 35 -22.5 62t-40 55.5t-63.5 47.5t-95.5 31t-133.5 12q-357 0 -357 -295q0 -33 3.5 -70.5t9 -84t8.5 -70.5h545q48 0 48 -49q0 -44 -48 -44h-538q2 -20 8 -70.5t8.5 -86t2.5 -68.5q0 -80 -33.5 -139t-105.5 -110h749q9 0 28.5 1t30.5 1t26.5 -2.5t24 -7t15 -15.5t6.5 -27 q0 -52 -48 -52h-900q-9 0 -28 -0.5t-30.5 -1t-27 1.5t-24 7t-14.5 15.5t-6 25.5q0 29 36 48q196 111 196 264q0 40 -8.5 119t-10.5 97h-138q-8 0 -26.5 -0.5t-28 -0.5t-23.5 2t-20.5 6.5t-12 15t-5.5 24.5z" />
<glyph unicode="&#xa4;" horiz-adv-x="1257" d="M76 295q0 13 11 26t23 21.5t33.5 22.5t30.5 20l112 81q-79 86 -79 202q0 117 79 203l-112 79q-7 5 -23.5 16l-27 18t-22.5 17.5t-18.5 20t-6.5 18.5q0 19 19.5 39t35.5 20q22 0 112 -70l125 -86q109 70 261 70q154 0 263 -70l124 86q2 3 19.5 16.5t26.5 19.5t23 15.5 t24.5 14t18.5 4.5q19 0 36.5 -20.5t17.5 -40.5q0 -15 -15 -29.5t-44.5 -33.5t-36.5 -25l-113 -79q80 -89 80 -203q0 -113 -80 -202l113 -81q3 -1 23 -14t27.5 -18.5t21 -17t19 -20.5t5.5 -18q0 -18 -18.5 -38.5t-35.5 -20.5q-22 0 -62.5 25.5t-102.5 74t-71 55.5 q-109 -68 -263 -68q-152 0 -261 68l-125 -87q-6 -4 -21 -16t-25 -19t-23 -15.5t-24 -13t-19 -4.5q-17 0 -36 20.5t-19 36.5zM315 668q0 -107 85.5 -174.5t228.5 -67.5q144 0 230 67.5t86 174.5q0 108 -85.5 175.5t-230.5 67.5q-143 0 -228.5 -67.5t-85.5 -175.5z" />
<glyph unicode="&#xa5;" d="M68 1305q0 17 13 23.5t42 6.5q36 0 59 -30q87 -106 243.5 -300.5t204.5 -253.5q57 70 191 237.5t207 256.5q4 4 15 19t16 21.5t16 18t19 17t20 10t23 4.5q52 0 52 -30q0 -8 -7.5 -20.5t-14.5 -21.5t-21 -26t-19 -22l-381 -478h291q8 0 24 0.5t24.5 0.5t21.5 -1t20.5 -4 t15 -8.5t11 -15t3.5 -21.5q0 -41 -48 -41h-429v-529q0 -26 -13 -37t-43 -11q-15 0 -25 6t-15 14t-7 23t-2 25.5t1 29t1 27.5v452h-428q-48 0 -48 48q0 11 3.5 18.5t11.5 12t15 7t20.5 3.5t21.5 1.5t25.5 0t24.5 -0.5h287l-429 538q-13 16 -13 30z" />
<glyph unicode="&#xa6;" horiz-adv-x="588" d="M243 295q0 51 50 51h4q48 0 48 -51v-610q0 -48 -48 -48h-4q-50 0 -50 48v610zM243 747v612q0 48 50 48h4q48 0 48 -48v-612q0 -48 -48 -48h-4q-50 0 -50 48z" />
<glyph unicode="&#xa7;" horiz-adv-x="1317" d="M132 775q0 122 107 211q-7 33 -7 63q0 77 37 136.5t97.5 94.5t132 52.5t148.5 17.5q98 0 176.5 -23t128 -61.5t80 -82t42.5 -91.5q2 -6 2 -18q0 -40 -51 -40q-33 0 -47 37q-17 39 -32 63q-94 123 -306 123q-133 0 -221.5 -55.5t-88.5 -148.5q0 -55 47.5 -99t123.5 -74.5 t167.5 -58.5t183.5 -58.5t168 -67t123 -92t47 -125.5q0 -123 -114 -197q11 -27 11 -69q0 -78 -35.5 -138t-98 -96t-143 -54t-176.5 -18q-50 0 -124.5 12t-149.5 31.5t-128 53t-53 71.5q0 16 13 33t29 17q1 0 15 -4q15 -5 50 -28.5t51 -30.5q138 -65 303 -65q154 0 250 53.5 t96 150.5q0 45 -37 83t-96.5 64.5t-136.5 54t-157 51t-156.5 55.5t-136.5 67t-97 86.5t-37 113.5zM230 791q0 -65 61.5 -115t160.5 -84.5t203 -65t209 -73.5t159 -93q66 48 66 109q0 53 -50.5 97.5t-127.5 73.5t-173.5 60t-184 56.5t-163.5 63.5t-109 82q-51 -44 -51 -111z " />
<glyph unicode="&#xa8;" horiz-adv-x="903" d="M220 1350q0 37 9 52t39 15h5q30 0 39 -15t9 -52q0 -38 -9 -54t-39 -16h-5q-30 0 -39 16t-9 54zM581 1350q0 37 9 52t39 15h6q30 0 39 -15t9 -52q0 -38 -9 -54t-39 -16h-6q-30 0 -39 16t-9 54z" />
<glyph unicode="&#xa9;" horiz-adv-x="1570" d="M92 702q0 149 43 269t127 206.5t217 133t306 46.5t305.5 -46.5t217.5 -133t127.5 -206.5t42.5 -269t-42.5 -269t-128 -206.5t-217.5 -132.5t-305 -46q-343 0 -518 174t-175 480zM185 702q0 -269 145.5 -417t454.5 -148q157 0 273 39.5t187.5 114t106 177.5t34.5 234 t-34.5 233.5t-106 177t-188 114t-272.5 39.5q-157 0 -273 -39.5t-187.5 -114t-105.5 -177t-34 -233.5zM396 700q0 204 103 305t288 101q122 0 213 -58.5t91 -134.5q0 -39 -51 -39q-21 0 -37 22q-3 4 -20 26.5t-28.5 33.5t-35.5 27t-57.5 23.5t-76.5 7.5q-140 0 -212.5 -73 t-72.5 -241q0 -164 76 -236.5t230 -72.5q114 0 206 40q16 6 24 6q15 0 29.5 -14t14.5 -36q0 -35 -91 -60.5t-189 -25.5q-191 0 -297.5 97.5t-106.5 301.5z" />
<glyph unicode="&#xaa;" horiz-adv-x="801" d="M72 900q0 52 21 90.5t56.5 62.5t89.5 38.5t112.5 20t131.5 5.5q46 0 62 -2v76q0 58 -45 87t-127 29q-42 0 -70 -5t-46 -17t-28.5 -23t-27 -31.5t-30.5 -34.5q-11 -10 -31 -10q-17 0 -27.5 10t-10.5 28q0 53 41.5 92t102.5 58t128 19q116 0 188.5 -52.5t72.5 -144.5v-344 q0 -48 51 -48q8 0 26 3.5t25 3.5q28 0 33 -32q0 -60 -99 -60q-45 0 -78.5 22.5t-39.5 62.5q-100 -85 -238 -85q-100 0 -171.5 46.5t-71.5 134.5zM164 902q0 -47 41.5 -72.5t113.5 -25.5q132 0 226 91v139q-18 2 -58 2q-71 0 -122.5 -4.5t-100.5 -18t-74.5 -41.5t-25.5 -70z " />
<glyph unicode="&#xab;" horiz-adv-x="1329" d="M139 600q0 17 18 35l325 312q3 2 10.5 10t10.5 12t10.5 11t12 10l12 8t14 7.5t14 4t15.5 1.5q51 0 51 -26q0 -9 -3 -14q-6 -8 -13.5 -17t-13.5 -15l-16 -16t-14 -13l-311 -310l311 -310q4 -3 14 -13l16.5 -16.5t14 -15.5t12.5 -16q3 -5 3 -14q0 -26 -51 -26 q-11 0 -21.5 3t-17.5 5.5t-16.5 11.5t-13.5 13t-15 16t-15 16l-325 311q-18 18 -18 35zM674 600q0 19 16 35l324 312q2 1 10.5 10.5t11 12t10 10.5t12 10.5t12.5 7.5t13.5 7.5t14 4t16.5 1.5q51 0 51 -26q0 -9 -4 -14q-17 -27 -56 -61l-312 -310l312 -310q41 -36 56 -61 q4 -5 4 -14q0 -26 -51 -26q-11 0 -22 3t-17 5.5t-17 11.5t-14 12.5t-15 16.5t-15 16l-324 311q-16 16 -16 35z" />
<glyph unicode="&#xac;" d="M158 646v1q0 50 50 50h840q51 0 51 -50v-372q0 -48 -51 -48h-3q-48 0 -48 48v322h-789q-50 0 -50 49z" />
<glyph unicode="&#xad;" horiz-adv-x="1001" d="M220 666v2q0 49 48 49h466q48 0 48 -49v-2q0 -48 -48 -48h-466q-48 0 -48 48z" />
<glyph unicode="&#xae;" horiz-adv-x="1229" d="M95 948q0 196 144 315t376 119t375.5 -118.5t143.5 -315.5q0 -198 -143.5 -316.5t-375.5 -118.5t-376 118.5t-144 316.5zM181 948q0 -162 115.5 -257t318.5 -95q202 0 317.5 95t115.5 257q0 160 -115.5 255t-317.5 95t-318 -95t-116 -255zM416 1119.5q0 11.5 2.5 27.5 t7.5 24.5t15.5 15.5t26.5 7h121q128 0 186 -32t58 -116q0 -99 -112 -131l81 -136q14 -31 2.5 -50.5t-39 -17.5t-43.5 29l-91 162q-33 -2 -49 -2q-27 0 -76 4v-142q0 -50 -47 -50q-41 0 -41 50v297q0 9 -1 29t-1 31.5zM506 978q62 -6 83 -6q79 0 115 16t36 54q0 52 -32 66.5 t-119 14.5h-83v-145z" />
<glyph unicode="&#xaf;" horiz-adv-x="902" d="M167 1348q0 20 13 32t37 12h467q49 0 49 -44q0 -47 -49 -47h-467q-50 0 -50 47z" />
<glyph unicode="&#xb0;" horiz-adv-x="726" d="M94 1190q0 96 74.5 154.5t191.5 58.5t193 -58.5t76 -154.5q0 -95 -76 -154.5t-193 -59.5t-191.5 59.5t-74.5 154.5zM185 1190q0 -58 47 -92.5t128 -34.5q82 0 129.5 34.5t47.5 92.5t-47 93.5t-130 35.5q-81 0 -128 -35.5t-47 -93.5z" />
<glyph unicode="&#xb1;" d="M158 103q0 14 3 24t11 15t15 9t20 4.5t22 0.5t25 -0.5t24 -0.5h698q8 0 28.5 0.5t29 0.5t23.5 -2.5t21.5 -7.5t12.5 -15.5t6 -25.5t-5 -25.5t-12.5 -15.5t-22 -7t-24 -2t-29.5 0.5t-28 0.5h-698q-8 0 -27.5 -0.5t-29 -0.5t-24 2t-21.5 6.5t-12.5 15t-5.5 24.5zM158 655 q0 17 7 28.5t16 16t26.5 7t30 2t32.5 -1.5t30 -1h278v201q0 10 -1 30t-1.5 34t1 31.5t6.5 28t16 18t27 7.5q17 0 28.5 -7t16.5 -17.5t6.5 -28.5t1 -31.5t-1.5 -34t-1 -30.5v-201h279q9 0 35.5 1.5t40 1t31.5 -4.5t26.5 -15.5t8.5 -31.5q0 -15 -4 -24.5t-13.5 -15t-19.5 -9 t-25.5 -3.5h-26.5t-27.5 0.5t-25.5 0.5h-279v-200q0 -10 1 -30.5t2 -34.5t-1 -31.5t-7 -27.5t-16 -18t-27 -8q-17 0 -28 7.5t-16.5 18t-7 28t-1 31t1.5 34.5t1 31v200h-278q-10 0 -29.5 -0.5t-32.5 -1t-30 1.5t-26.5 7t-16.5 15.5t-7 26.5z" />
<glyph unicode="&#xb2;" horiz-adv-x="726" d="M94 725q0 37 30 58l299 234q54 40 80 79.5t27 87.5q0 118 -164 118q-49 0 -83.5 -13t-51.5 -32t-29.5 -37.5t-24 -31.5t-25.5 -13q-22 0 -37 11t-15 30q0 64 78.5 119.5t189.5 55.5q121 0 190 -54t69 -158q0 -63 -32.5 -114t-98.5 -104l-244 -182h325q48 0 48 -50 q0 -39 -48 -39h-434q-49 0 -49 35z" />
<glyph unicode="&#xb3;" horiz-adv-x="725" d="M79 804q0 15 11.5 30.5t25.5 15.5q13 0 55.5 -19t94.5 -37.5t91 -18.5q84 0 133.5 27t49.5 80q0 63 -49 90.5t-146 27.5h-45q-49 0 -49 50q0 32 49 32h48q90 0 133 31t43 84q0 49 -44.5 79t-127.5 30q-52 0 -84.5 -11.5t-45 -24.5t-32 -40t-35.5 -42q-11 -11 -26 -11 q-20 0 -33 10.5t-13 29.5q0 68 78.5 121t192.5 53q121 0 191 -51.5t70 -140.5q0 -52 -27 -92t-81 -57q125 -42 125 -167q0 -90 -76.5 -141.5t-200.5 -51.5q-61 0 -140.5 23.5t-114.5 55.5q-21 18 -21 35z" />
<glyph unicode="&#xb4;" horiz-adv-x="903" d="M313 1237q0 21 11 32l170 204q20 28 49 28q20 0 33 -12.5t13 -30.5q0 -15 -12 -31l-183 -208q-19 -22 -40 -22q-18 0 -29.5 11.5t-11.5 28.5z" />
<glyph unicode="&#xb6;" horiz-adv-x="1675" d="M142 917q0 408 567 408h675q48 0 48 -48v-1354q0 -47 -48 -47h-7q-50 0 -50 47v1300h-312v-1300q0 -47 -49 -47h-11q-48 0 -48 47v598q-66 -7 -161 -7q-79 0 -151 8.5t-141.5 27.5t-125 50.5t-97.5 75t-65.5 105t-23.5 136.5zM253 917q0 -303 493 -303q103 0 161 7v602 h-198q-241 0 -348.5 -71.5t-107.5 -234.5z" />
<glyph unicode="&#xb7;" horiz-adv-x="497" d="M188 653v31q0 50 48 50h24q50 0 50 -50v-31q0 -50 -50 -50h-24q-48 0 -48 50z" />
<glyph unicode="&#xb8;" horiz-adv-x="902" d="M258 -257q0 13 11.5 28.5t25.5 15.5q12 0 25 -5q6 -2 26.5 -9.5t33 -11.5t30 -7.5t30.5 -3.5q114 0 114 88q0 19 -14.5 63.5t-14.5 56.5q0 24 29 24q31 0 53 -27.5t30 -59.5t8 -62q0 -84 -56 -126.5t-143 -42.5q-46 0 -99 14t-76 37q-13 15 -13 28z" />
<glyph unicode="&#xb9;" horiz-adv-x="639" d="M118 1246q0 30 35 48l132 61q32 12 60 12q49 0 49 -47v-583q0 -48 -45.5 -48t-45.5 48v529l-127 -57q-14 -5 -25 -5q-33 0 -33 42z" />
<glyph unicode="&#xba;" horiz-adv-x="801" d="M72 1047q0 169 88 257t241 88q154 0 240.5 -88t86.5 -260q0 -164 -88 -254t-239 -90q-153 0 -241 88t-88 259zM166 1047q0 -138 59.5 -198t175.5 -60q114 0 174 59.5t60 195.5q0 137 -60 198t-174 61q-116 0 -175.5 -60t-59.5 -196z" />
<glyph unicode="&#xbb;" horiz-adv-x="1328" d="M158 208q0 7 5 18q4 8 14.5 18.5t27 26.5t20.5 19l311 310l-311 310q-4 3 -18.5 16.5t-24 24t-15.5 20.5q-4 5 -4 14q0 26 54 26q11 0 21 -2.5t17 -6t16 -11.5t13.5 -12.5t15.5 -16t15 -15.5l325 -312q18 -15 18 -35t-18 -35l-325 -311q-3 -3 -12 -13t-12.5 -13.5 t-12 -11.5t-14 -11.5t-13.5 -8t-16.5 -6t-17.5 -1.5h-9.5h-10h-9t-8.5 0.5t-7 1t-6.5 2t-4.5 3.5t-3 5t-1 7zM691 208q0 7 5 18q9 18 63 64l310 310l-310 310q-46 39 -59 61q-4 5 -4 14q0 26 54 26q13 0 23.5 -2.5t22 -11t17 -13t19 -19t17.5 -18.5l323 -312q18 -15 18 -35 t-18 -35l-323 -311q-3 -4 -14 -15.5t-15.5 -16t-14.5 -12.5t-17 -11.5t-17.5 -6.5t-20.5 -3h-9.5h-10h-9t-8.5 0.5t-7 1t-6.5 2t-4.5 3.5t-3 5t-1 7z" />
<glyph unicode="&#xbc;" horiz-adv-x="1599" d="M118 1213q0 30 35 48l132 61q25 10 60 13q16 0 27 -7.5t16 -17.5t7 -27.5t1.5 -30.5t-1.5 -33.5t-1 -29.5v-387q0 -8 1.5 -36t0.5 -41t-5 -32.5t-14.5 -28t-28.5 -8.5q-15 0 -25.5 7.5t-15 17.5t-6 27t-1 30.5t1.5 32.5t1 29v433l-127 -57q-14 -5 -25 -5q-33 0 -33 42z M243 100q0 12 15 30l966 1175q15 20 33 25t52 5q11 0 18.5 -6.5t7.5 -16.5q0 -18 -19 -37l-968 -1175q-23 -30 -61 -30q-44 0 -44 30zM924 283q0 8 1 15t4.5 15t6.5 13t9 13l9 12t11.5 13.5t11.5 11.5q47 52 131 150t111 128q6 8 24 30.5t29 33.5t29.5 22t36.5 11 q53 0 63.5 -15.5t10.5 -70.5v-9v-326h69q47 0 47 -47q0 -42 -47 -42h-69q0 -11 2 -40.5t1.5 -47.5t-3.5 -39.5t-15.5 -32.5t-31.5 -11q-49 0 -49 48v123h-301h-26.5t-21.5 1.5t-19.5 3.5t-12.5 6.5t-9 12t-2 18.5zM1043 330h273v305z" />
<glyph unicode="&#xbd;" horiz-adv-x="1652" d="M118 1213q0 30 35 48l132 61q25 10 60 13q16 0 27 -7.5t16 -17.5t7 -27.5t1.5 -30.5t-1.5 -33.5t-1 -29.5v-387q0 -8 1.5 -36t0.5 -41t-5 -32.5t-14.5 -28t-28.5 -8.5q-15 0 -25.5 7.5t-15 17.5t-6 27t-1 30.5t1.5 32.5t1 29v433l-127 -57q-14 -5 -25 -5q-33 0 -33 42z M243 100q0 12 15 30l966 1175q15 20 33 25t52 5q11 0 18.5 -6.5t7.5 -16.5q0 -18 -19 -37l-968 -1175q-23 -30 -61 -30q-44 0 -44 30zM1020 107q0 18 7 30q6 12 16.5 22t31 25.5t24.5 18.5l248 193q54 42 80.5 82t27.5 88q0 116 -164 116q-49 0 -83.5 -13t-52 -31.5 t-30 -36.5t-23.5 -31t-25 -13q-52 0 -52 39q0 66 78 120t190 54q121 0 190 -53t69 -156q0 -63 -33 -114.5t-98 -103.5l-245 -185h260q8 0 23 0.5t23.5 0.5t21 -0.5t19 -4t14 -8.5t10.5 -14t3 -21q0 -41 -50 -41h-432q-48 0 -48 37z" />
<glyph unicode="&#xbe;" horiz-adv-x="1669" d="M79 772q0 14 11.5 30t25.5 16q13 0 55.5 -19t94.5 -38t91 -19q84 0 133.5 27t49.5 80q0 63 -49 90.5t-146 27.5h-45q-49 0 -49 50q0 33 49 33h48q90 0 133 31t43 83q0 50 -44.5 79.5t-127.5 29.5q-52 0 -84.5 -11t-45 -24.5t-32 -40.5t-35.5 -42q-11 -11 -26 -11 q-20 0 -33 11t-13 30q0 67 78.5 120.5t192.5 53.5q121 0 191 -52t70 -140q0 -52 -27 -92t-81 -58q125 -42 125 -166q0 -91 -76.5 -142.5t-200.5 -51.5q-61 0 -140.5 23.5t-114.5 56.5q-21 18 -21 35zM311 101q0 15 13 30l970 1175q14 20 31.5 25t51.5 5q23 0 23 -22 q0 -20 -14 -37l-971 -1176q-21 -29 -61 -29q-43 0 -43 29zM992 281q0 8 1 16t5 16.5t6 13t9 14t8.5 11t11.5 12.5t10 12l244 280q5 6 19 24t23 27t22 21t27 18t29 6q28 0 43.5 -3t22.5 -16t8 -24.5t1 -42.5v-2v-3v-4v-325h66q48 0 48 -48q0 -41 -48 -41h-66q0 -10 2 -41 t1 -48t-5 -39.5t-16 -32.5t-32 -10q-46 0 -46 47v124h-303h-6h-36.5t-25 4t-18.5 12t-5 22zM1113 332h273v302z" />
<glyph unicode="&#xbf;" horiz-adv-x="1026" d="M77 17q0 38 9 79q11 44 32.5 82t57.5 71t68 56.5t84 57.5q46 29 71 47t52 44.5t40.5 53.5t22.5 65.5t11 89.5q3 49 52 49h5q46 0 46 -47q0 -75 -16 -132.5t-49 -101.5t-70.5 -75.5t-95.5 -67.5q-55 -35 -87.5 -59t-63 -56.5t-43.5 -68.5t-13 -82q0 -94 78 -157.5 t237 -63.5q296 0 355 204q11 39 47 39h12q21 0 34.5 -12.5t13.5 -30.5q0 -9 -2 -12q-11 -57 -42.5 -106t-85 -91.5t-139 -66.5t-192.5 -24q-106 0 -190 26.5t-135 71t-77.5 100.5t-26.5 118zM517 912v34q0 47 51 47h21q51 0 51 -47v-34q0 -47 -51 -47h-21q-51 0 -51 47z" />
<glyph unicode="&#xc0;" horiz-adv-x="1133" d="M30 127q0 12 5 28l459 1165q18 48 78 48q56 0 74 -48l453 -1161q6 -16 6 -30q0 -22 -15 -35.5t-36 -13.5q-39 0 -55 40l-132 347h-601l-129 -338q-9 -22 -26 -34t-37 -12q-19 0 -31.5 11.5t-12.5 32.5zM305 566h523l-260 680zM331 1721q0 18 13 30.5t33 12.5q29 0 49 -27 l170 -206q11 -13 11 -30t-11.5 -29t-29.5 -12q-21 0 -40 22l-183 209q-12 15 -12 30z" />
<glyph unicode="&#xc1;" horiz-adv-x="1133" d="M30 127q0 12 5 28l459 1165q18 48 78 48q56 0 74 -48l453 -1161q6 -16 6 -30q0 -22 -15 -35.5t-36 -13.5q-39 0 -55 40l-132 347h-601l-129 -338q-9 -22 -26 -34t-37 -12q-19 0 -31.5 11.5t-12.5 32.5zM305 566h523l-260 680zM521 1501q0 20 10 30l170 206q19 27 50 27 q20 0 33 -12.5t13 -30.5q0 -14 -14 -30l-181 -209q-19 -22 -41 -22q-18 0 -29 12t-11 29z" />
<glyph unicode="&#xc2;" horiz-adv-x="1133" d="M30 128q0 11 5 27l459 1165q18 48 78 48q56 0 74 -48l453 -1161q6 -16 6 -30q0 -22 -15 -35.5t-36 -13.5q-39 0 -55 40l-132 347h-601l-129 -338q-9 -22 -26 -34t-37 -12q-19 0 -31.5 11.5t-12.5 33.5zM305 566h523l-260 680zM323 1496q0 14 13 30l151 197q34 45 79 45 q47 0 81 -45l152 -197q12 -12 12 -30q0 -16 -11.5 -26.5t-26.5 -10.5q-27 0 -46 25l-159 193l-160 -195q-21 -23 -47 -23q-16 0 -27 10t-11 27z" />
<glyph unicode="&#xc3;" horiz-adv-x="1133" d="M30 123q0 12 5 28l459 1165q18 48 78 48q56 0 74 -48l453 -1161q6 -16 6 -30q0 -22 -15 -35.5t-36 -13.5q-39 0 -55 40l-132 347h-601l-129 -338q-9 -22 -26 -34t-37 -12q-19 0 -31.5 11.5t-12.5 32.5zM264 1561q0 46 52 86.5t110 40.5q55 0 155 -36t127 -36q25 0 45 11 t30 24.5t23 24.5t26 11t26.5 -9t13.5 -25q0 -48 -56 -85.5t-114 -37.5q-47 0 -145.5 35.5t-130.5 35.5q-25 0 -45 -11.5t-29.5 -25t-21.5 -25.5t-25.5 -12t-27 8.5t-13.5 25.5zM305 562h523l-260 680z" />
<glyph unicode="&#xc4;" horiz-adv-x="1133" d="M30 123q0 11 5 28l459 1164q18 48 78 48q56 0 74 -48l453 -1161q6 -16 6 -30q0 -22 -15 -35.5t-36 -13.5q-39 0 -55 40l-132 347h-601l-129 -338q-9 -22 -26 -33.5t-37 -11.5q-19 0 -31.5 11t-12.5 33zM305 561h523l-260 680zM336 1609q0 36 9 51.5t39 15.5h5 q30 0 39 -15.5t9 -51.5q0 -38 -9 -54.5t-39 -16.5h-5q-30 0 -39 16.5t-9 54.5zM697 1609q0 36 9 51.5t39 15.5h6q30 0 39 -15.5t9 -51.5q0 -38 -9 -54.5t-39 -16.5h-6q-30 0 -39 16.5t-9 54.5z" />
<glyph unicode="&#xc5;" horiz-adv-x="1133" d="M30 127q0 11 5 28l459 1164q18 48 78 48q56 0 74 -48l453 -1161q6 -16 6 -29q0 -23 -15 -36.5t-36 -13.5q-39 0 -55 41l-132 346h-601l-129 -337q-9 -23 -26 -34.5t-37 -11.5q-19 0 -31.5 11t-12.5 33zM305 565h523l-260 680zM373 1611q0 67 54.5 105t138.5 38 q87 0 141.5 -37.5t54.5 -106t-55 -107t-141 -38.5q-84 0 -138.5 38.5t-54.5 107.5zM456 1611q0 -35 29 -53.5t81 -18.5q54 0 84.5 18.5t30.5 53.5q0 34 -30.5 51.5t-84.5 17.5q-52 0 -81 -17.5t-29 -51.5z" />
<glyph unicode="&#xc6;" horiz-adv-x="1886" d="M-79 105q0 17 13 35l923 1164q23 30 61 30h754q48 0 48 -51t-48 -51h-648v-459h617q49 0 49 -49.5t-49 -49.5h-617v-503h681q50 0 50 -50q0 -51 -50 -51h-739q-48 0 -48 47v332h-614l-286 -361q-22 -29 -51 -29q-20 0 -33 13t-13 33zM380 543h538v679z" />
<glyph unicode="&#xc7;" horiz-adv-x="1297" d="M92 684q0 134 46 255.5t125 210t191 141t237 52.5q204 0 330 -82.5t149 -203.5q6 -31 -16 -47t-49.5 -8.5t-36.5 33.5q-30 91 -122.5 149.5t-254.5 58.5q-139 0 -252.5 -75t-176.5 -203t-63 -281q0 -159 64.5 -285t185 -197.5t278.5 -71.5q89 0 165.5 13.5t113.5 27 t97 40.5q40 16 59 -12q18 -26 -1 -57q-11 -17 -31 -27q-161 -76 -345 -84q37 -69 37 -126q0 -84 -56 -127t-143 -43q-61 0 -123.5 22.5t-62.5 57.5q0 13 10 28.5t25 15.5q12 0 65.5 -18.5t81.5 -18.5q113 0 113 88q0 49 -37 121q-133 6 -245.5 57t-191 136.5t-122.5 204 t-44 255.5z" />
<glyph unicode="&#xc8;" horiz-adv-x="1211" d="M243 141v1169q0 47 50 47h704q48 0 48 -51q0 -50 -48 -50h-649v-459h618q49 0 49 -49.5t-49 -49.5h-618v-503h683q49 0 49 -51t-49 -51h-738q-50 0 -50 48zM457 1722q0 18 13 30.5t33 12.5q30 0 50 -28l170 -205q11 -13 11 -30.5t-11.5 -29t-29.5 -11.5q-22 0 -40 22 l-183 208q-13 16 -13 31z" />
<glyph unicode="&#xc9;" horiz-adv-x="1211" d="M243 141v1169q0 47 50 47h704q48 0 48 -51q0 -50 -48 -50h-649v-459h618q49 0 49 -49.5t-49 -49.5h-618v-503h683q49 0 49 -51t-49 -51h-738q-50 0 -50 48zM520 1501q0 20 11 31l169 205q20 28 51 28q19 0 32.5 -12.5t13.5 -30.5q0 -14 -14 -31l-182 -208 q-19 -22 -40 -22q-18 0 -29.5 11.5t-11.5 28.5z" />
<glyph unicode="&#xca;" horiz-adv-x="1211" d="M243 141v1169q0 48 50 48h704q48 0 48 -52q0 -50 -48 -50h-649v-459h618q49 0 49 -49.5t-49 -49.5h-618v-503h683q49 0 49 -51t-49 -51h-738q-50 0 -50 48zM406 1496q0 16 13 31l151 197q34 45 79 45q47 0 81 -45l151 -197q13 -13 13 -31q0 -15 -12 -26t-27 -11 q-26 0 -46 26l-158 193l-160 -195q-21 -24 -46 -24q-17 0 -28 10.5t-11 26.5z" />
<glyph unicode="&#xcb;" horiz-adv-x="1211" d="M243 136v1169q0 48 50 48h704q48 0 48 -52q0 -50 -48 -50h-649v-459h618q49 0 49 -49.5t-49 -49.5h-618v-503h683q49 0 49 -50q0 -52 -49 -52h-738q-50 0 -50 48zM400 1609q0 36 9.5 52t38.5 16h6q29 0 38 -15.5t9 -52.5q0 -38 -9 -54t-38 -16h-6q-29 0 -38.5 16t-9.5 54 zM761 1609q0 37 9 52.5t39 15.5h6q29 0 38 -15.5t9 -52.5q0 -38 -9 -54t-38 -16h-6q-30 0 -39 16t-9 54z" />
<glyph unicode="&#xcc;" horiz-adv-x="591" d="M55 1722q0 18 13.5 30.5t33.5 12.5q30 0 49 -28l170 -205q11 -14 11 -31t-11 -28.5t-29 -11.5q-22 0 -41 22l-182 208q-14 17 -14 31zM243 141v1169q0 47 51 47h7q47 0 47 -47v-1169q0 -48 -47 -48h-7q-51 0 -51 48z" />
<glyph unicode="&#xcd;" horiz-adv-x="591" d="M243 141v1169q0 47 50 47h8q47 0 47 -47v-1169q0 -48 -47 -48h-8q-50 0 -50 48zM264 1501q0 20 11 31l170 205q19 28 49 28q20 0 33 -12.5t13 -30.5q0 -15 -13 -31l-182 -208q-19 -22 -41 -22q-18 0 -29 11.5t-11 28.5z" />
<glyph unicode="&#xce;" horiz-adv-x="591" d="M53 1496q0 15 14 31l151 197q34 45 79 45q47 0 81 -45l151 -197q13 -13 13 -31q0 -15 -12 -26t-27 -11q-26 0 -46 26l-158 193l-160 -195q-21 -24 -47 -24q-16 0 -27.5 10.5t-11.5 26.5zM243 141v1169q0 48 50 48h8q47 0 47 -48v-1169q0 -48 -47 -48h-8q-50 0 -50 48z " />
<glyph unicode="&#xcf;" horiz-adv-x="592" d="M67 1609q0 37 9 52.5t39 15.5h5q30 0 39 -15.5t9 -52.5q0 -38 -9 -54t-39 -16h-5q-30 0 -39 16t-9 54zM243 136v1169q0 48 51 48h7q48 0 48 -48v-1169q0 -48 -48 -48h-7q-51 0 -51 48zM428 1609q0 37 9 52.5t39 15.5h6q30 0 39 -15.5t9 -52.5q0 -38 -9 -54t-39 -16h-6 q-30 0 -39 16t-9 54z" />
<glyph unicode="&#xd0;" horiz-adv-x="1413" d="M51 716q0 45 50 45h142v526q0 48 50 48h303q161 0 290 -38.5t222.5 -114.5t144 -196t50.5 -278q0 -162 -52 -284.5t-147 -199.5t-224 -115.5t-287 -38.5h-300q-50 0 -50 48v548h-142q-50 0 -50 50zM348 172h232q614 0 614 538q0 137 -44.5 238.5t-127 163.5t-192.5 91.5 t-250 29.5h-232v-472h336q55 0 55 -45q0 -50 -55 -50h-336v-494z" />
<glyph unicode="&#xd1;" horiz-adv-x="1480" d="M243 136v1178q0 23 17 36.5t41 13.5q31 0 47 -22l783 -1060v1023q0 48 51 48h5q48 0 48 -48v-1169q0 -25 -15 -40t-36 -15q-34 0 -58 34l-779 1052v-1031q0 -47 -48 -47h-6q-50 0 -50 47zM470 1561q0 47 51.5 87.5t110.5 40.5q55 0 155 -36t127 -36q32 0 54.5 17.5t38 35 t31.5 17.5q13 0 26.5 -9t13.5 -24q0 -49 -55.5 -86.5t-113.5 -37.5q-48 0 -146.5 35.5t-130.5 35.5q-25 0 -45 -11.5t-29.5 -25t-21.5 -25t-25.5 -11.5t-27 8t-13.5 25z" />
<glyph unicode="&#xd2;" horiz-adv-x="1494" d="M92 722q0 133 52 255t139.5 210.5t208 140.5t253.5 52t255 -52t210.5 -140.5t140.5 -210.5t52 -255t-52 -254t-140.5 -208.5t-210.5 -140t-255 -52.5q-177 0 -327 88.5t-238 239t-88 327.5zM199 722q0 -150 73 -277.5t198.5 -202.5t274.5 -75q113 0 215 44t175 119 t116 177t43 215t-43 216.5t-116 178t-175 119t-215 44.5q-149 0 -274.5 -75t-198.5 -203.5t-73 -279.5zM538 1721q0 18 13.5 30.5t32.5 12.5q31 0 51 -28l169 -205q11 -14 11 -31t-11.5 -28.5t-29.5 -11.5q-21 0 -40 21l-183 209q-13 15 -13 31z" />
<glyph unicode="&#xd3;" horiz-adv-x="1494" d="M92 722q0 133 52 255t139.5 210.5t208 140.5t253.5 52t255 -52t210.5 -140.5t140.5 -210.5t52 -255t-52 -254t-140.5 -208.5t-210.5 -140t-255 -52.5q-177 0 -327 88.5t-238 239t-88 327.5zM199 722q0 -150 73 -277.5t198.5 -202.5t274.5 -75q113 0 215 44t175 119 t116 177t43 215t-43 216.5t-116 178t-175 119t-215 44.5q-149 0 -274.5 -75t-198.5 -203.5t-73 -279.5zM699 1500q0 20 10 31l171 205q19 28 49 28q20 0 33 -12.5t13 -30.5q0 -16 -13 -31l-182 -209q-19 -21 -41 -21q-18 0 -29 11.5t-11 28.5z" />
<glyph unicode="&#xd4;" horiz-adv-x="1494" d="M92 722q0 133 52 255t139.5 210.5t208 141t253.5 52.5t255 -52.5t210.5 -141t140.5 -210.5t52 -255t-52 -254t-140.5 -208.5t-210.5 -140t-255 -52.5q-177 0 -327 88.5t-238 239t-88 327.5zM199 722q0 -150 73 -277.5t198.5 -202.5t274.5 -75q113 0 215 44.5t175 119 t116 176.5t43 215t-43 216.5t-116 178.5t-175 119.5t-215 44.5q-149 0 -274.5 -75.5t-198.5 -204t-73 -279.5zM502 1495q0 15 12 30l151 198q35 45 80 45q47 0 81 -45l151 -198q13 -13 13 -30q0 -15 -11.5 -26t-26.5 -11q-27 0 -46 25l-160 194l-160 -196q-21 -23 -46 -23 q-16 0 -27 10.5t-11 26.5z" />
<glyph unicode="&#xd5;" horiz-adv-x="1494" d="M92 718q0 133 52 255t139.5 210.5t208 140.5t253.5 52t255 -52t210.5 -140.5t140.5 -210.5t52 -255t-52 -254t-140.5 -208.5t-210.5 -140t-255 -52.5q-177 0 -327 88.5t-238 239t-88 327.5zM199 718q0 -150 73 -277.5t198.5 -202.5t274.5 -75q113 0 215 44t175 119 t116 177t43 215t-43 216.5t-116 178t-175 119t-215 44.5q-149 0 -274.5 -75t-198.5 -203.5t-73 -279.5zM443 1560q0 47 52 87.5t110 40.5q55 0 155 -36t127 -36q31 0 53.5 17.5t38.5 35t31 17.5q14 0 27.5 -9t13.5 -24q0 -49 -56 -86.5t-114 -37.5q-47 0 -145.5 35.5 t-130.5 35.5q-25 0 -45 -11.5t-29.5 -25t-21.5 -25t-25.5 -11.5t-27 8t-13.5 25z" />
<glyph unicode="&#xd6;" horiz-adv-x="1494" d="M92 717q0 133 52 255t139.5 210.5t208 141t253.5 52.5t255 -52.5t210.5 -141t140.5 -210.5t52 -255q0 -132 -52 -253t-140.5 -209t-210.5 -140t-255 -52q-177 0 -327 88t-238 239t-88 327zM199 717q0 -149 73 -277t198.5 -202.5t274.5 -74.5q113 0 215 44t175 118.5 t116 176.5t43 215t-43 216.5t-116 178.5t-175 119.5t-215 44.5q-149 0 -274.5 -75t-198.5 -204t-73 -280zM514 1608q0 36 9.5 51.5t39.5 15.5h5q30 0 39 -15t9 -52q0 -38 -9 -54t-39 -16h-5q-30 0 -39.5 16t-9.5 54zM876 1608q0 37 9 52t39 15h5q30 0 39 -15t9 -52 q0 -38 -9 -54t-39 -16h-5q-30 0 -39 16t-9 54z" />
<glyph unicode="&#xd7;" d="M216 337q0 19 16 35l324 304l-324 306q-16 16 -16 33q0 18 14 36l2 1q18 18 37 18q17 0 33 -16l326 -309l325 309q16 16 33 16q19 0 37 -18l2 -1q15 -15 15 -36q0 -19 -17 -33l-323 -306l323 -304q17 -14 17 -35t-15 -35l-2 -2q-19 -16 -37 -16q-16 0 -33 14l-325 310 l-326 -310q-17 -14 -33 -14q-17 0 -37 16l-2 2q-14 17 -14 35z" />
<glyph unicode="&#xd8;" horiz-adv-x="1576" d="M132 74q0 20 14 33l147 164q-76 87 -118.5 198t-42.5 231q0 133 52 255t139.5 211t208 141t253.5 52q201 0 374 -119l107 123q14 16 37 16q17 0 33 -16t16 -34q0 -19 -14 -33l-105 -114q99 -94 154.5 -218t55.5 -264q0 -132 -52 -253t-140.5 -209t-210.5 -140t-255 -52 q-236 0 -424 159l-142 -163q-15 -18 -37 -18q-18 0 -34 16t-16 34zM239 700q0 -194 123 -350l729 815q-136 94 -306 94q-149 0 -274.5 -75t-198.5 -204t-73 -280zM429 280q155 -134 356 -134q113 0 215 44t175 118.5t116 177t43 214.5q0 116 -44.5 221.5t-123.5 182.5z" />
<glyph unicode="&#xd9;" horiz-adv-x="1343" d="M218 528v780q0 48 48 48h7q48 0 48 -48v-778q0 -366 356 -366q79 0 140 18t100.5 49.5t64 78t35 100t10.5 120.5v778q0 48 48 48h3q50 0 50 -48v-780q0 -103 -24.5 -185t-76.5 -145t-140.5 -97t-209.5 -34q-100 0 -178 22.5t-130.5 62.5t-86.5 98.5t-49 126.5t-15 151z M482 1721q0 18 13 30.5t33 12.5q29 0 49 -28l169 -205q12 -15 12 -31q0 -17 -11 -28.5t-29 -11.5q-22 0 -41 21l-183 209q-12 15 -12 31z" />
<glyph unicode="&#xda;" horiz-adv-x="1343" d="M218 528v780q0 48 48 48h7q48 0 48 -48v-778q0 -366 356 -366q79 0 140 18t100.5 49.5t64 78t35 100t10.5 120.5v778q0 48 48 48h3q50 0 50 -48v-780q0 -103 -24.5 -185t-76.5 -145t-140.5 -97t-209.5 -34q-100 0 -178 22.5t-130.5 62.5t-86.5 98.5t-49 126.5t-15 151z M603 1500q0 20 11 31l169 205q20 28 51 28q19 0 32.5 -12.5t13.5 -30.5q0 -16 -13 -31l-183 -209q-19 -21 -40 -21q-18 0 -29.5 11.5t-11.5 28.5z" />
<glyph unicode="&#xdb;" horiz-adv-x="1343" d="M218 528v781q0 47 48 47h7q48 0 48 -47v-779q0 -366 356 -366q79 0 140 18t100.5 49.5t64 78t35 100t10.5 120.5v779q0 47 48 47h3q50 0 50 -47v-781q0 -103 -24.5 -185t-76.5 -145t-140.5 -97t-209.5 -34q-100 0 -178 22.5t-130.5 63t-86.5 99t-49 126t-15 150.5z M428 1495q0 15 12 30l152 198q34 45 79 45q47 0 82 -45l151 -198q12 -12 12 -30q0 -15 -11.5 -26t-26.5 -11q-26 0 -46 25l-159 194l-161 -196q-20 -23 -46 -23q-16 0 -27 10.5t-11 26.5z" />
<glyph unicode="&#xdc;" horiz-adv-x="1343" d="M218 523v781q0 47 48 47h7q48 0 48 -47v-779q0 -366 356 -366q79 0 140 18t100.5 49.5t64 78.5t35 100.5t10.5 119.5v779q0 47 48 47h3q50 0 50 -47v-781q0 -103 -24.5 -185t-76.5 -145t-140.5 -96.5t-209.5 -33.5q-100 0 -178 22.5t-130.5 62.5t-86.5 98.5t-49 126.5 t-15 150zM440 1608q0 36 9.5 51.5t39.5 15.5h5q30 0 39 -15t9 -52q0 -38 -9 -54t-39 -16h-5q-30 0 -39.5 16t-9.5 54zM802 1608q0 37 9 52t39 15h5q30 0 39.5 -15.5t9.5 -51.5q0 -38 -9.5 -54t-39.5 -16h-5q-30 0 -39 16t-9 54z" />
<glyph unicode="&#xdd;" horiz-adv-x="1123" d="M76 1333q0 21 14 35t34 14q29 0 47 -32l390 -649l391 647q19 34 51 34q19 0 32.5 -13t13.5 -32q0 -16 -11 -33l-426 -708v-455q0 -48 -47 -48h-8q-48 0 -48 48v455l-424 704q-9 13 -9 33zM496 1501q0 20 11 31l170 205q20 28 50 28q20 0 33 -12.5t13 -30.5q0 -15 -13 -31 l-183 -208q-19 -22 -40 -22q-18 0 -29.5 11.5t-11.5 28.5z" />
<glyph unicode="&#xde;" horiz-adv-x="1227" d="M243 118v1169q0 48 50 48h9q48 0 48 -48v-165h243q241 0 379 -102.5t138 -303.5q0 -92 -29.5 -163.5t-76.5 -116t-114.5 -72.5t-138 -39.5t-150.5 -11.5q-92 0 -251 21v-216q0 -48 -49 -48h-8q-50 0 -50 48zM350 436q131 -21 255 -21q72 0 129.5 8.5t108.5 29.5t85 55 t53.5 86.5t19.5 121.5q0 155 -111 230.5t-297 75.5h-243v-586z" />
<glyph unicode="&#xdf;" horiz-adv-x="1111" d="M208 122v973q0 159 83.5 246t241.5 87q157 0 244.5 -81t87.5 -216q0 -50 -21.5 -95.5t-52.5 -79t-62 -65t-53 -65.5t-22 -66t21 -61t54 -53t72.5 -49t79 -53.5t72.5 -61t53.5 -77t20.5 -95.5q0 -118 -81 -189t-220 -71q-54 0 -108 16t-91 40t-60.5 50.5t-23.5 46.5 q0 19 15 35.5t31 16.5q11 0 33 -17t46 -37.5t67 -37.5t90 -17q103 0 150 40t47 120q0 35 -16 65.5t-42 53t-59.5 45.5t-68.5 42.5t-68 44.5t-59.5 51t-42 63t-15.5 80q0 51 21.5 95t52 75.5t61.5 62t52.5 66.5t21.5 74q0 93 -57.5 152t-160.5 59q-124 0 -177 -59.5 t-53 -180.5v-973q0 -48 -50 -48h-5q-49 0 -49 48z" />
<glyph unicode="&#xe0;" horiz-adv-x="1038" d="M125 331q0 82 33.5 139.5t94 88.5t132.5 44t164 13t199 -12v162q0 93 -58 143t-168 50q-86 0 -142 -35.5t-102 -113.5q-15 -26 -44 -26q-20 0 -35.5 12.5t-15.5 30.5q0 5 3 16q34 97 122 155t218 58q325 0 325 -297v-530q0 -47 16 -69t51 -22q17 0 44.5 13.5t32.5 13.5 q16 0 26.5 -12t10.5 -34q0 -30 -43.5 -48.5t-87.5 -18.5q-64 0 -101.5 35t-45.5 115q-59 -62 -151 -106t-190 -44q-130 0 -209 74t-79 205zM229 331q0 -184 195 -184q93 0 176.5 43.5t147.5 119.5v198q-107 15 -201 15q-57 0 -102.5 -5t-87 -17.5t-69 -34t-43.5 -55.5 t-16 -80zM302 1398q0 18 13 30.5t33 12.5q30 0 50 -28l170 -204q11 -14 11 -32q0 -17 -11.5 -28.5t-29.5 -11.5q-21 0 -40 21l-183 209q-13 15 -13 31z" />
<glyph unicode="&#xe1;" horiz-adv-x="1038" d="M125 331q0 82 33.5 139.5t94 88.5t132.5 44t164 13t199 -12v162q0 93 -58 143t-168 50q-86 0 -142 -35.5t-102 -113.5q-15 -26 -44 -26q-20 0 -35.5 12.5t-15.5 30.5q0 5 3 16q34 97 122 155t218 58q325 0 325 -297v-530q0 -47 16 -69t51 -22q17 0 44.5 13.5t32.5 13.5 q16 0 26.5 -12t10.5 -34q0 -30 -43.5 -48.5t-87.5 -18.5q-64 0 -101.5 35t-45.5 115q-59 -62 -151 -106t-190 -44q-130 0 -209 74t-79 205zM229 331q0 -184 195 -184q93 0 176.5 43.5t147.5 119.5v198q-107 15 -201 15q-57 0 -102.5 -5t-87 -17.5t-69 -34t-43.5 -55.5 t-16 -80zM485 1177q0 21 11 32l169 204q20 28 50 28q20 0 33 -12.5t13 -30.5q0 -15 -13 -31l-182 -209q-19 -21 -40 -21q-18 0 -29.5 11.5t-11.5 28.5z" />
<glyph unicode="&#xe2;" horiz-adv-x="1038" d="M125 331q0 82 33.5 139.5t94 89t132.5 44.5t164 13t199 -13v162q0 94 -58 144t-168 50q-86 0 -142 -36t-102 -114q-15 -26 -44 -26q-20 0 -35.5 12.5t-15.5 30.5q0 6 3 16q34 98 122 155.5t218 57.5q325 0 325 -297v-529q0 -48 16 -70t51 -22q17 0 44.5 13.5t32.5 13.5 q16 0 26.5 -12t10.5 -34q0 -30 -43.5 -48.5t-87.5 -18.5q-64 0 -101.5 35.5t-45.5 114.5q-59 -61 -151 -105.5t-190 -44.5q-130 0 -209 74t-79 205zM229 331q0 -184 195 -184q93 0 176.5 43.5t147.5 120.5v197q-107 15 -201 15q-57 0 -102.5 -5t-87 -17.5t-69 -33.5 t-43.5 -55.5t-16 -80.5zM302 1172q0 15 13 31l151 198q33 44 79 44q48 0 81 -44l152 -198q13 -14 13 -31q0 -15 -11.5 -26t-27.5 -11q-27 0 -46 25l-159 194l-160 -196q-21 -23 -46 -23q-16 0 -27.5 10.5t-11.5 26.5z" />
<glyph unicode="&#xe3;" horiz-adv-x="1038" d="M125 327q0 82 33.5 139.5t94 88.5t132.5 44t164 13t199 -12v162q0 93 -58 143t-168 50q-86 0 -142 -35.5t-102 -113.5q-15 -26 -44 -26q-20 0 -35.5 12.5t-15.5 30.5q0 5 3 16q34 97 122 155t218 58q325 0 325 -297v-530q0 -47 16 -69t51 -22q17 0 44.5 13.5t32.5 13.5 q16 0 26.5 -12t10.5 -34q0 -30 -43.5 -48.5t-87.5 -18.5q-64 0 -101.5 35t-45.5 115q-59 -62 -151 -106t-190 -44q-130 0 -209 74t-79 205zM229 327q0 -184 195 -184q93 0 176.5 43.5t147.5 119.5v198q-107 15 -201 15q-57 0 -102.5 -5t-87 -17.5t-69 -34t-43.5 -55.5 t-16 -80zM248 1237q0 47 52.5 87.5t110.5 40.5q55 0 155 -36t127 -36q31 0 53.5 17.5t38.5 35t31 17.5q14 0 27.5 -9t13.5 -24q0 -49 -56 -86.5t-113 -37.5q-48 0 -146 36t-131 36q-25 0 -45 -11.5t-29 -25.5t-21.5 -25t-26 -11t-27.5 7.5t-14 24.5z" />
<glyph unicode="&#xe4;" horiz-adv-x="1038" d="M125 327q0 81 33.5 139t94 89t132.5 44t164 13t199 -13v162q0 94 -58 144t-168 50q-86 0 -142 -35.5t-102 -114.5q-15 -26 -44 -26q-20 0 -35.5 12.5t-15.5 30.5q0 6 3 17q34 97 122 154.5t218 57.5q325 0 325 -297v-529q0 -48 16 -70t51 -22q17 0 44.5 13.5t32.5 13.5 q16 0 26.5 -11.5t10.5 -34.5q0 -30 -43.5 -48t-87.5 -18q-64 0 -101.5 35t-45.5 114q-59 -61 -151 -105t-190 -44q-130 0 -209 73.5t-79 205.5zM229 327q0 -185 195 -185q93 0 176.5 43.5t147.5 120.5v197q-107 15 -201 15q-57 0 -102.5 -5t-87 -17.5t-69 -33.5t-43.5 -55.5 t-16 -79.5zM308 1285q0 37 9 52.5t38 15.5h6q30 0 39 -16t9 -52q0 -38 -9 -54t-39 -16h-6q-29 0 -38 16t-9 54zM669 1285q0 36 9.5 52t38.5 16h6q29 0 38 -15.5t9 -52.5q0 -38 -9 -54t-38 -16h-6q-29 0 -38.5 16t-9.5 54z" />
<glyph unicode="&#xe5;" horiz-adv-x="1038" d="M125 331q0 82 33.5 139.5t94 88.5t132.5 44t164 13t199 -13v162q0 94 -58 144t-168 50q-86 0 -142 -35.5t-102 -114.5q-15 -26 -44 -26q-20 0 -35.5 13t-15.5 31q0 5 3 16q34 97 122 154.5t218 57.5q325 0 325 -297v-529q0 -48 16 -70t51 -22q17 0 44.5 13.5t32.5 13.5 q16 0 26.5 -11.5t10.5 -34.5q0 -29 -43.5 -47.5t-87.5 -18.5q-64 0 -101.5 35t-45.5 114q-59 -61 -151 -105t-190 -44q-130 0 -209 73.5t-79 205.5zM229 331q0 -185 195 -185q93 0 176.5 43.5t147.5 120.5v197q-107 15 -201 15q-57 0 -102.5 -5t-87 -17.5t-69 -33.5 t-43.5 -55t-16 -80zM345 1287q0 68 54.5 105.5t138.5 37.5q87 0 141 -37t54 -105.5t-54.5 -107t-140.5 -38.5q-84 0 -138.5 38.5t-54.5 106.5zM427 1287q0 -35 29.5 -53.5t81.5 -18.5q54 0 84 18.5t30 53.5t-30 52.5t-84 17.5q-52 0 -81.5 -17.5t-29.5 -52.5z" />
<glyph unicode="&#xe6;" horiz-adv-x="1724" d="M125 310q0 82 33.5 139.5t94 88.5t132.5 44t164 13t199 -13v162q0 94 -58 144t-168 50q-86 0 -142 -35.5t-102 -114.5q-14 -23 -40.5 -25t-44 16t-7.5 43q34 97 122 154.5t218 57.5q252 0 309 -179q116 179 347 179q104 0 188 -32.5t137.5 -87.5t81 -126t27.5 -149v-51 q0 -48 -47 -48h-710q0 -86 24 -161.5t68.5 -132t113.5 -89t154 -32.5q69 0 131.5 13t97.5 28.5t65 28.5t40 13q17 0 29.5 -14t12.5 -36q0 -28 -61 -59t-149.5 -50.5t-165.5 -19.5q-128 0 -230.5 60t-165.5 158q-90 -103 -197 -160.5t-213 -57.5q-130 0 -209 74.5t-79 206.5z M229 310q0 -187 195 -187q92 0 175.5 44.5t148.5 121.5v197q-107 15 -201 15q-57 0 -102.5 -5t-87 -17.5t-69 -33.5t-43.5 -55t-16 -80zM868 634h641q0 142 -88 223t-239 81q-256 0 -314 -304z" />
<glyph unicode="&#xe7;" horiz-adv-x="1048" d="M109 516q0 138 57.5 252.5t165 182t243.5 67.5t224 -60.5t121 -162.5q6 -23 0.5 -41t-19.5 -26.5t-30.5 -9.5t-31.5 10.5t-23 32.5q-9 26 -26 52t-45 51.5t-72 41.5t-98 16q-164 0 -261.5 -117t-97.5 -289q0 -175 97.5 -292t261.5 -117q68 0 128 16t89.5 30.5t64.5 38.5 q18 11 36 12t29 -8t16 -22t-0.5 -29t-22.5 -29q-125 -89 -294 -102q33 -79 33 -127q0 -83 -55.5 -126t-142.5 -43q-62 0 -125.5 22.5t-63.5 56.5q0 14 11.5 29.5t25.5 15.5q13 0 66 -18.5t80 -18.5q114 0 114 88q0 53 -33 121q-125 11 -221.5 81t-148.5 179.5t-52 241.5z " />
<glyph unicode="&#xe8;" horiz-adv-x="1087" d="M114 553q0 147 48.5 259t146.5 178t234 66q105 0 189 -32.5t137 -88t81 -126t28 -149.5v-51q0 -48 -48 -48h-709q0 -116 41 -208.5t124 -149t194 -56.5q70 0 132.5 12.5t98 27.5t65 28t40.5 13q17 0 28.5 -14t11.5 -36q0 -29 -60.5 -59t-148.5 -49.5t-167 -19.5 q-136 0 -243.5 68t-165 182.5t-57.5 252.5zM230 655h642q0 141 -88.5 222.5t-240.5 81.5q-255 0 -313 -304zM361 1398q0 18 13.5 30.5t32.5 12.5q30 0 50 -28l169 -204q12 -15 12 -32t-11.5 -28.5t-29.5 -11.5q-22 0 -41 21l-182 209q-13 16 -13 31z" />
<glyph unicode="&#xe9;" horiz-adv-x="1087" d="M114 553q0 147 48.5 259t146.5 178t234 66q105 0 189 -32.5t137 -88t81 -126t28 -149.5v-51q0 -48 -48 -48h-709q0 -116 41 -208.5t124 -149t194 -56.5q70 0 132.5 12.5t98 27.5t65 28t40.5 13q17 0 28.5 -14t11.5 -36q0 -29 -60.5 -59t-148.5 -49.5t-167 -19.5 q-136 0 -243.5 68t-165 182.5t-57.5 252.5zM230 655h642q0 141 -88.5 222.5t-240.5 81.5q-255 0 -313 -304zM510 1177q0 20 12 32l169 204q20 28 49 28q20 0 33 -12.5t13 -30.5q0 -16 -12 -31l-183 -209q-19 -21 -40 -21q-18 0 -29.5 11.5t-11.5 28.5z" />
<glyph unicode="&#xea;" horiz-adv-x="1087" d="M114 554q0 146 48.5 258t146.5 178t234 66q105 0 189 -32.5t137 -88t81 -126t28 -148.5v-52q0 -47 -48 -47h-709q0 -116 41 -209t124 -149.5t194 -56.5q70 0 132.5 12.5t98 28t65 28t40.5 12.5q17 0 28.5 -14t11.5 -36q0 -29 -60.5 -59t-148.5 -49.5t-167 -19.5 q-136 0 -243.5 68t-165 182.5t-57.5 253.5zM230 655h642q0 142 -88.5 223t-240.5 81q-255 0 -313 -304zM317 1172q0 14 13 30l151 198q34 45 79 45q48 0 81 -45l152 -198q12 -12 12 -30q0 -15 -11.5 -26t-26.5 -11q-27 0 -46 25l-159 194l-161 -196q-21 -23 -46 -23 q-16 0 -27 10.5t-11 26.5z" />
<glyph unicode="&#xeb;" horiz-adv-x="1087" d="M114 549q0 146 48.5 258.5t146.5 178t234 65.5q105 0 189 -32.5t137 -88t81 -126t28 -148.5v-51q0 -48 -48 -48h-709q0 -116 41 -209t124 -149.5t194 -56.5q70 0 132.5 12.5t98 28t65 28t40.5 12.5q17 0 28.5 -14t11.5 -36q0 -28 -60.5 -58.5t-148.5 -49.5t-167 -19 q-136 0 -243.5 68t-165 182t-57.5 253zM230 650h642q0 142 -88.5 223.5t-240.5 81.5q-255 0 -313 -305zM317 1285q0 36 9 51.5t39 15.5h6q29 0 38 -15t9 -52q0 -38 -9 -54t-38 -16h-6q-30 0 -39 16t-9 54zM678 1285q0 37 9 52t39 15h5q30 0 39 -15t9 -52q0 -38 -9 -54 t-39 -16h-5q-30 0 -39 16t-9 54z" />
<glyph unicode="&#xec;" horiz-adv-x="540" d="M132 1399q0 18 13.5 30.5t33.5 12.5q30 0 49 -28l170 -204q11 -14 11 -31.5t-11 -29t-29 -11.5q-22 0 -41 22l-182 208q-14 17 -14 31zM219 124v863q0 47 48 47h5q48 0 48 -47v-863q0 -48 -48 -48h-5q-48 0 -48 48z" />
<glyph unicode="&#xed;" horiz-adv-x="540" d="M132 1178q0 20 12 32l169 204q20 28 49 28q20 0 33.5 -12.5t13.5 -30.5q0 -14 -13 -31l-182 -208q-19 -22 -41 -22q-18 0 -29.5 11.5t-11.5 28.5zM219 124v863q0 47 48 47h5q48 0 48 -47v-863q0 -48 -48 -48h-5q-48 0 -48 48z" />
<glyph unicode="&#xee;" horiz-adv-x="540" d="M26 1173q0 16 13 31l151 198q33 44 79 44q48 0 81 -44l151 -198q13 -13 13 -31q0 -15 -12 -26t-27 -11q-26 0 -46 26l-158 193l-160 -195q-21 -24 -46 -24q-16 0 -27.5 10.5t-11.5 26.5zM220 124v863q0 48 47 48h6q47 0 47 -48v-863q0 -48 -47 -48h-6q-47 0 -47 48z" />
<glyph unicode="&#xef;" horiz-adv-x="540" d="M39 1286q0 37 9 52.5t39 15.5h5q30 0 39.5 -16t9.5 -52q0 -38 -9.5 -54t-39.5 -16h-5q-30 0 -39 16t-9 54zM220 119v863q0 48 48 48h5q48 0 48 -48v-863q0 -48 -48 -48h-5q-48 0 -48 48zM400 1286q0 36 9.5 52t39.5 16h5q30 0 39 -15.5t9 -52.5q0 -38 -9 -54t-39 -16h-5 q-30 0 -39.5 16t-9.5 54z" />
<glyph unicode="&#xf0;" horiz-adv-x="1195" d="M74 553q0 136 67.5 252t183 183t252.5 67q195 0 338 -128q-37 75 -91.5 156.5t-96.5 121.5l-308 -36h-9q-43 0 -43 46q0 33 45 39l244 31l-64 53q-33 33 -33 48q0 16 12.5 27.5t29.5 11.5q27 0 67 -32t101 -93l225 27h9q42 0 42 -45q0 -33 -44 -38l-155 -20 q111 -133 172.5 -310.5t61.5 -360.5q0 -103 -39.5 -196t-107 -160.5t-160.5 -107.5t-195.5 -40t-196 40t-161 107.5t-107 160.5t-39.5 196zM181 553q0 -171 114.5 -289t281.5 -118t281.5 118.5t114.5 288.5q0 168 -114.5 286.5t-281.5 118.5t-281.5 -118.5t-114.5 -286.5z " />
<glyph unicode="&#xf1;" horiz-adv-x="1163" d="M216 120v863q0 25 10 36t34 11h6q45 0 45 -47v-49q57 42 142.5 80.5t174.5 38.5q93 0 160 -24.5t106 -70t57 -104t18 -131.5v-603q0 -48 -47 -48h-6q-49 0 -49 48v594q0 120 -66 181.5t-173 61.5q-150 0 -311 -118v-719q0 -48 -48 -48h-5q-48 0 -48 48zM301 1238 q0 47 51.5 87.5t110.5 40.5q55 0 154.5 -36t126.5 -36q26 0 45.5 11t30 24.5t23.5 24t26 10.5t26.5 -9t13.5 -24q0 -49 -56 -86t-114 -37q-48 0 -146 35.5t-130 35.5q-26 0 -45.5 -11.5t-29 -25.5t-21.5 -25t-25.5 -11t-27 7.5t-13.5 24.5z" />
<glyph unicode="&#xf2;" horiz-adv-x="1186" d="M109 553.5q0 137.5 62.5 252.5t173.5 182.5t246 67.5q103 0 193.5 -40t155 -107.5t101.5 -160t37 -195.5q0 -137 -63 -252.5t-175 -183t-249 -67.5q-135 0 -246 67.5t-173.5 183t-62.5 253zM216 553q0 -172 105.5 -289t269.5 -117q110 0 198 54.5t135 147.5t47 204 q0 170 -107 288t-273 118q-108 0 -194.5 -55t-133.5 -147t-47 -204zM382 1398q0 18 13 30.5t33 12.5q29 0 49 -28l170 -204q11 -14 11 -32q0 -17 -11 -28.5t-29 -11.5q-22 0 -41 21l-183 209q-12 15 -12 31z" />
<glyph unicode="&#xf3;" horiz-adv-x="1186" d="M109 553.5q0 137.5 62.5 252.5t173.5 182.5t246 67.5q103 0 193.5 -40t155 -107.5t101.5 -160t37 -195.5q0 -137 -63 -252.5t-175 -183t-249 -67.5q-135 0 -246 67.5t-173.5 183t-62.5 253zM216 553q0 -172 105.5 -289t269.5 -117q110 0 198 54.5t135 147.5t47 204 q0 170 -107 288t-273 118q-108 0 -194.5 -55t-133.5 -147t-47 -204zM537 1177q0 21 10 32l170 204q20 28 50 28q20 0 33 -12.5t13 -30.5q0 -16 -13 -31l-182 -209q-19 -21 -41 -21q-18 0 -29 11.5t-11 28.5z" />
<glyph unicode="&#xf4;" horiz-adv-x="1186" d="M109 553.5q0 137.5 62.5 253t173.5 182.5t246 67q103 0 193.5 -39.5t155 -107t101.5 -160.5t37 -195q0 -138 -63 -253.5t-175 -183t-249 -67.5q-135 0 -246 67.5t-173.5 183t-62.5 253zM216 554q0 -172 105.5 -289.5t269.5 -117.5q110 0 198 55t135 147.5t47 204.5 q0 170 -107 287.5t-273 117.5q-108 0 -194.5 -54.5t-133.5 -147t-47 -203.5zM348 1172q0 15 13 30l151 198q34 45 79 45q49 0 82 -45l151 -198q13 -13 13 -30q0 -15 -11.5 -26t-27.5 -11q-26 0 -45 25l-160 194l-160 -196q-21 -23 -46 -23q-16 0 -27.5 10.5t-11.5 26.5z" />
<glyph unicode="&#xf5;" horiz-adv-x="1186" d="M109 549.5q0 137.5 62.5 252.5t173.5 182.5t246 67.5q103 0 193.5 -40t155 -107.5t101.5 -160t37 -195.5q0 -137 -63 -252.5t-175 -183t-249 -67.5q-135 0 -246 67.5t-173.5 183t-62.5 253zM216 549q0 -172 105.5 -289t269.5 -117q110 0 198 54.5t135 147.5t47 204 q0 170 -107 288t-273 118q-108 0 -194.5 -55t-133.5 -147t-47 -204zM287 1237q0 47 52.5 87.5t110.5 40.5q55 0 155 -36t127 -36q31 0 53.5 17.5t38.5 35t31 17.5q14 0 27.5 -9t13.5 -24q0 -49 -56 -86.5t-114 -37.5q-47 0 -145 35.5t-131 35.5q-25 0 -45 -11t-29.5 -25 t-21.5 -25t-25.5 -11t-27.5 7.5t-14 24.5z" />
<glyph unicode="&#xf6;" horiz-adv-x="1186" d="M109 548.5q0 137.5 62.5 253t173.5 182.5t246 67q103 0 193.5 -39.5t155 -107t101.5 -160.5t37 -195q0 -138 -63 -253t-175 -182.5t-249 -67.5q-135 0 -246 67.5t-173.5 182.5t-62.5 252.5zM216 549q0 -172 105.5 -289.5t269.5 -117.5q110 0 198 55t135 147.5t47 204.5 q0 170 -107 288t-273 118q-108 0 -194.5 -55t-133.5 -147.5t-47 -203.5zM361 1285q0 36 9.5 51.5t39.5 15.5h5q30 0 39 -15t9 -52q0 -38 -9 -54t-39 -16h-5q-30 0 -39.5 16t-9.5 54zM723 1285q0 37 9 52t39 15h5q30 0 39 -15t9 -52q0 -38 -9 -54t-39 -16h-5q-30 0 -39 16 t-9 54z" />
<glyph unicode="&#xf7;" d="M158 666v2q0 49 50 49h838q51 0 51 -49v-2q0 -48 -51 -48h-838q-50 0 -50 48zM568 294v33q0 49 47 49h25q47 0 47 -49v-33q0 -48 -47 -48h-25q-47 0 -47 48zM568 1006v32q0 50 47 50h25q47 0 47 -50v-32q0 -49 -47 -49h-25q-47 0 -47 49z" />
<glyph unicode="&#xf8;" horiz-adv-x="1233" d="M83 49q0 20 19 39l123 125q-110 136 -110 319q0 102 39.5 195t106.5 160.5t159.5 108t195.5 40.5q180 0 313 -111l102 102q13 19 33 19q16 0 33 -14.5t17 -31.5q0 -15 -18 -33l-102 -103q127 -145 127 -332q0 -137 -68 -253t-184 -183.5t-253 -67.5q-92 0 -177 33 t-152 92l-125 -128q-16 -16 -33 -16q-14 0 -30 11.5t-16 28.5zM222 532q0 -137 77 -247l558 570q-106 84 -241 84q-82 0 -155.5 -32.5t-125.5 -87t-82.5 -130t-30.5 -157.5zM356 220q110 -95 260 -95q168 0 283 118.5t115 288.5q0 146 -92 260z" />
<glyph unicode="&#xf9;" horiz-adv-x="1125" d="M194 416v569q0 48 48 48h5q51 0 51 -48v-566q0 -128 71.5 -200t193.5 -72t194 72t72 200v566q0 48 47 48h6q49 0 49 -48v-569q0 -165 -99 -265.5t-269 -100.5q-174 0 -271.5 100t-97.5 266zM373 1398q0 18 13 30.5t33 12.5q30 0 50 -28l170 -204q10 -14 10 -32 q0 -17 -11 -28.5t-29 -11.5q-22 0 -41 21l-182 209q-13 15 -13 31z" />
<glyph unicode="&#xfa;" horiz-adv-x="1125" d="M194 416v569q0 48 48 48h5q51 0 51 -48v-566q0 -128 71.5 -200t193.5 -72t194 72t72 200v566q0 48 47 48h6q49 0 49 -48v-569q0 -165 -99 -265.5t-269 -100.5q-174 0 -271.5 100t-97.5 266zM502 1177q0 21 11 32l170 204q20 28 49 28q20 0 33 -12.5t13 -30.5 q0 -16 -12 -31l-183 -209q-19 -21 -41 -21q-18 0 -29 11.5t-11 28.5z" />
<glyph unicode="&#xfb;" horiz-adv-x="1125" d="M194 416v570q0 47 48 47h5q51 0 51 -47v-567q0 -128 71.5 -200t193.5 -72t194 72t72 200v567q0 47 47 47h6q49 0 49 -47v-570q0 -165 -99 -265.5t-269 -100.5q-174 0 -271.5 100t-97.5 266zM316 1172q0 14 13 30l150 198q34 45 80 45q48 0 81 -45l152 -198q12 -12 12 -30 q0 -15 -11.5 -26t-26.5 -11q-27 0 -46 25l-159 194l-161 -196q-21 -23 -46 -23q-16 0 -27 10.5t-11 26.5z" />
<glyph unicode="&#xfc;" horiz-adv-x="1125" d="M194 411v570q0 47 48 47h5q51 0 51 -47v-566q0 -129 71.5 -201t193.5 -72t194 72t72 201v566q0 47 47 47h6q49 0 49 -47v-570q0 -165 -99 -265t-269 -100q-174 0 -271.5 99.5t-97.5 265.5zM329 1285q0 37 9 52t39 15h5q30 0 39 -15t9 -52q0 -38 -9 -54t-39 -16h-5 q-30 0 -39 16t-9 54zM690 1285q0 37 9 52t39 15h5q30 0 39.5 -15.5t9.5 -51.5q0 -38 -9.5 -54t-39.5 -16h-5q-30 0 -39 16t-9 54z" />
<glyph unicode="&#xfd;" horiz-adv-x="1008" d="M-30 -321q0 19 12 36t32 17q9 0 38.5 -8t61.5 -8q50 0 95 21t76.5 51t66.5 85.5t58 102t56 122.5l-383 859q-6 17 -6 27q0 23 13.5 36t34.5 13q39 0 56 -39l336 -776l332 778q16 37 54 37q19 0 33.5 -12.5t14.5 -34.5q0 -13 -5 -27l-382 -875q-80 -182 -128 -257 q-102 -162 -244 -194q-40 -10 -85 -10q-63 0 -100 14.5t-37 41.5zM457 1155q0 20 11 31l170 204q20 28 49 28q20 0 33 -12.5t13 -30.5q0 -15 -12 -31l-183 -208q-19 -22 -41 -22q-18 0 -29 11.5t-11 29.5z" />
<glyph unicode="&#xfe;" horiz-adv-x="1272" d="M220 -302v1669q0 51 48 51q49 0 49 -51v-424q64 34 154.5 62.5t186.5 28.5q103 0 194.5 -39.5t156.5 -107t103.5 -160t38.5 -195.5q0 -137 -68 -253t-184 -183t-253 -67q-93 0 -167.5 17.5t-157.5 50.5v-399q0 -53 -51 -53q-50 0 -50 53zM321 201q82 -38 157.5 -57 t167.5 -19q166 0 282 119t116 288t-110 287.5t-276 118.5q-91 0 -186 -30t-151 -60v-647z" />
<glyph unicode="&#xff;" horiz-adv-x="1008" d="M-30 -325q0 19 12 35.5t32 16.5q9 0 38.5 -7.5t61.5 -7.5q50 0 95 20.5t76.5 50.5t66.5 85.5t58 102.5t56 122l-383 860q-6 16 -6 27q0 22 13.5 35t34.5 13q39 0 56 -38l336 -777l332 779q16 36 54 36q19 0 33.5 -12.5t14.5 -33.5q0 -14 -5 -27l-382 -876 q-80 -182 -128 -257q-102 -162 -244 -194q-40 -10 -85 -10q-63 0 -100 14.5t-37 42.5zM300 1262q0 37 9 52.5t39 15.5h5q30 0 39 -15.5t9 -52.5t-9 -53.5t-39 -16.5h-5q-30 0 -39 16.5t-9 53.5zM661 1262q0 37 9 52.5t39 15.5h6q30 0 39 -15.5t9 -52.5t-9 -53.5t-39 -16.5 h-6q-30 0 -39 16.5t-9 53.5z" />
<glyph unicode="&#x152;" horiz-adv-x="2299" d="M132 700q0 133 52 255t139.5 211t208 141t253.5 52q170 0 315.5 -81t235.5 -220v229q0 48 50 48h700q50 0 50 -52q0 -50 -50 -50h-644v-459h615q48 0 48 -49.5t-48 -49.5h-615v-503h679q48 0 48 -50q0 -52 -48 -52h-735q-50 0 -50 48v225q-90 -137 -235.5 -217 t-315.5 -80q-177 0 -327 88t-238 239t-88 327zM239 700q0 -149 73 -277t198.5 -202.5t274.5 -74.5q113 0 215 44t175 118.5t116 177t43 214.5q0 114 -43 217.5t-116 178t-175 119t-215 44.5q-149 0 -274.5 -75t-198.5 -204t-73 -280z" />
<glyph unicode="&#x153;" horiz-adv-x="1993" d="M114 532q0 103 39.5 196t106.5 160.5t160 107.5t195 40q143 0 262.5 -74t184.5 -197q56 123 166 197t252 74q104 0 190.5 -33t143.5 -88t88 -126.5t31 -149.5v-51q0 -48 -50 -48h-763q0 -173 112 -294t282 -121q62 0 122.5 13t99 28.5t75.5 28.5t58 13q17 0 29.5 -14 t12.5 -35q0 -45 -125.5 -87.5t-271.5 -42.5q-144 0 -265 76t-184 201q-63 -125 -184 -201t-266 -76q-136 0 -252 67.5t-182.5 183t-66.5 252.5zM221 532q0 -170 114 -288.5t280 -118.5t282 117t116 290q0 168 -115 288t-283 120q-82 0 -155 -32.5t-125.5 -87.5t-83 -130 t-30.5 -158zM1127 634h700q0 139 -97.5 222.5t-249.5 83.5q-138 0 -232 -85t-121 -221z" />
<glyph unicode="&#x178;" horiz-adv-x="1123" d="M76 1328q0 21 14 35t34 14q29 0 47 -31l390 -649l391 647q19 33 51 33q19 0 32.5 -13t13.5 -32q0 -16 -11 -32l-426 -709v-455q0 -48 -47 -48h-8q-48 0 -48 48v455l-424 704q-9 14 -9 33zM329 1609q0 37 9 52.5t39 15.5h5q30 0 39 -15.5t9 -52.5q0 -38 -9 -54t-39 -16h-5 q-30 0 -39 16t-9 54zM690 1609q0 37 9 52.5t39 15.5h5q30 0 39.5 -16t9.5 -52q0 -38 -9.5 -54t-39.5 -16h-5q-30 0 -39 16t-9 54z" />
<glyph unicode="&#x2c6;" horiz-adv-x="903" d="M206 1232q0 15 14 31l151 198q33 44 79 44q48 0 81 -44l151 -198q13 -13 13 -31q0 -15 -12 -26t-27 -11q-26 0 -46 25l-158 194l-160 -195q-21 -24 -47 -24q-16 0 -27.5 10.5t-11.5 26.5z" />
<glyph unicode="&#x2dc;" horiz-adv-x="903" d="M148 1301q0 47 52 87.5t110 40.5q55 0 155 -36t127 -36q25 0 45 11t30 24.5t23 24t26 10.5t26.5 -9t13.5 -24q0 -49 -56 -86t-114 -37q-47 0 -145.5 35.5t-130.5 35.5q-25 0 -45 -11.5t-29.5 -25.5t-21.5 -25t-25.5 -11t-27 7.5t-13.5 24.5z" />
<glyph unicode="&#x2000;" horiz-adv-x="884" />
<glyph unicode="&#x2001;" horiz-adv-x="1769" />
<glyph unicode="&#x2002;" horiz-adv-x="884" />
<glyph unicode="&#x2003;" horiz-adv-x="1769" />
<glyph unicode="&#x2004;" horiz-adv-x="589" />
<glyph unicode="&#x2005;" horiz-adv-x="442" />
<glyph unicode="&#x2006;" horiz-adv-x="294" />
<glyph unicode="&#x2007;" horiz-adv-x="294" />
<glyph unicode="&#x2008;" horiz-adv-x="221" />
<glyph unicode="&#x2009;" horiz-adv-x="353" />
<glyph unicode="&#x200a;" horiz-adv-x="98" />
<glyph unicode="&#x2010;" horiz-adv-x="1001" d="M220 666v2q0 49 48 49h466q48 0 48 -49v-2q0 -48 -48 -48h-466q-48 0 -48 48z" />
<glyph unicode="&#x2011;" horiz-adv-x="1001" d="M220 666v2q0 49 48 49h466q48 0 48 -49v-2q0 -48 -48 -48h-466q-48 0 -48 48z" />
<glyph unicode="&#x2012;" horiz-adv-x="1001" d="M220 666v2q0 49 48 49h466q48 0 48 -49v-2q0 -48 -48 -48h-466q-48 0 -48 48z" />
<glyph unicode="&#x2013;" horiz-adv-x="1355" d="M220 666v2q0 49 48 49h820q48 0 48 -49v-2q0 -48 -48 -48h-820q-48 0 -48 48z" />
<glyph unicode="&#x2014;" horiz-adv-x="2312" d="M220 666v2q0 49 48 49h1776q51 0 51 -49v-2q0 -48 -51 -48h-1776q-48 0 -48 48z" />
<glyph unicode="&#x2018;" horiz-adv-x="494" d="M131 1008q0 11 6 26l134 328q16 37 50 37q19 0 32 -11.5t13 -29.5q0 -4 -5 -18l-119 -328q-18 -50 -62 -50q-21 0 -35 12.5t-14 33.5z" />
<glyph unicode="&#x2019;" horiz-adv-x="494" d="M129 995q0 3 4 18l120 328q18 50 62 50q21 0 34.5 -12.5t13.5 -33.5q0 -13 -5 -26l-134 -328q-16 -37 -50 -37q-19 0 -32 11.5t-13 29.5z" />
<glyph unicode="&#x201a;" horiz-adv-x="494" d="M129 -295q0 3 4 18l120 328q18 50 62 50q21 0 34.5 -12.5t13.5 -33.5q0 -13 -5 -26l-134 -328q-16 -37 -50 -37q-19 0 -32 11.5t-13 29.5z" />
<glyph unicode="&#x201c;" horiz-adv-x="752" d="M131 1008q0 11 6 26l134 328q16 37 50 37q19 0 32 -11.5t13 -29.5q0 -4 -5 -18l-119 -328q-18 -50 -62 -50q-21 0 -35 12.5t-14 33.5zM389 1008q0 13 6 26l135 328q15 37 49 37q19 0 31.5 -11.5t12.5 -29.5q0 -7 -3 -18l-120 -328q-18 -50 -63 -50q-21 0 -34.5 12.5 t-13.5 33.5z" />
<glyph unicode="&#x201d;" horiz-adv-x="752" d="M129 995q0 3 4 18l120 328q18 50 62 50q21 0 34.5 -12.5t13.5 -33.5q0 -13 -5 -26l-134 -328q-16 -37 -50 -37q-19 0 -32 11.5t-13 29.5zM387 995q0 3 4 18l120 328q18 50 63 50q20 0 33.5 -12.5t13.5 -33.5q0 -13 -5 -26l-134 -328q-15 -37 -51 -37q-18 0 -31 11.5 t-13 29.5z" />
<glyph unicode="&#x201e;" horiz-adv-x="752" d="M129 -295q0 3 4 18l120 328q18 50 62 50q21 0 34.5 -12.5t13.5 -33.5q0 -13 -5 -26l-134 -328q-16 -37 -50 -37q-19 0 -32 11.5t-13 29.5zM387 -295q0 3 4 18l120 328q18 50 63 50q20 0 33.5 -12.5t13.5 -33.5q0 -13 -5 -26l-134 -328q-15 -37 -51 -37q-18 0 -31 11.5 t-13 29.5z" />
<glyph unicode="&#x2022;" horiz-adv-x="880" d="M208 666q0 82 65.5 131t164.5 49q101 0 168 -49t67 -131q0 -81 -67.5 -131t-167.5 -50q-99 0 -164.5 50t-65.5 131z" />
<glyph unicode="&#x2026;" horiz-adv-x="1645" d="M188 55v33q0 50 48 50h24q50 0 50 -50v-33q0 -48 -50 -48h-24q-48 0 -48 48zM763 55v33q0 50 48 50h24q48 0 48 -50v-33q0 -48 -48 -48h-24q-48 0 -48 48zM1335 55v33q0 50 49 50h23q49 0 49 -50v-33q0 -48 -49 -48h-23q-49 0 -49 48z" />
<glyph unicode="&#x202f;" horiz-adv-x="353" />
<glyph unicode="&#x2039;" horiz-adv-x="796" d="M139 600q0 17 18 35l325 312q3 2 10.5 10t10.5 12t10.5 11t12 10l12 8t14 7.5t14 4t15.5 1.5q51 0 51 -26q0 -9 -3 -14q-6 -8 -13.5 -17t-13.5 -15l-16 -16t-14 -13l-311 -310l311 -310q4 -3 14 -13l16.5 -16.5t14 -15.5t12.5 -16q3 -5 3 -14q0 -26 -51 -26 q-11 0 -21.5 3t-17.5 5.5t-16.5 11.5t-13.5 13t-15 16t-15 16l-325 311q-18 18 -18 35z" />
<glyph unicode="&#x203a;" horiz-adv-x="795" d="M158 208q0 7 5 18q4 8 14.5 18.5t27 26.5t20.5 19l311 310l-311 310q-4 3 -18.5 16.5t-24 24t-15.5 20.5q-4 5 -4 14q0 26 54 26q11 0 21 -2.5t17 -6t16 -11.5t13.5 -12.5t15.5 -16t15 -15.5l325 -312q18 -15 18 -35t-18 -35l-325 -311q-3 -3 -12 -13t-12.5 -13.5 t-12 -11.5t-14 -11.5t-13.5 -8t-16.5 -6t-17.5 -1.5h-9.5h-10h-9t-8.5 0.5t-7 1t-6.5 2t-4.5 3.5t-3 5t-1 7z" />
<glyph unicode="&#x205f;" horiz-adv-x="442" />
<glyph unicode="&#x20ac;" horiz-adv-x="1353" d="M85 549q0 21 14 32q13 13 36 13h101q-3 67 -3 104q0 15 0.5 43t0.5 41h-99q-50 0 -50 50q0 44 50 44h110q37 251 167 367t370 116q86 0 157 -16t119.5 -43.5t83.5 -66t54 -79t28 -87.5q2 -5 2 -14q0 -40 -59 -40q-15 0 -26.5 13.5t-22.5 35.5t-25 48t-39.5 52t-60 48 t-91.5 35.5t-129 13.5q-195 0 -291 -89t-128 -294h594q44 0 44 -39q0 -27 -15 -41t-41 -14h-591q-3 -56 -3 -82q0 -73 3 -106h531q44 0 44 -37q0 -28 -15.5 -42.5t-41.5 -14.5h-503q36 -191 144 -273.5t318 -82.5q141 0 267 41q8 2 27 10.5t35 13.5t29 5q18 0 30.5 -14.5 t12.5 -41t-63.5 -53t-157.5 -43t-182 -16.5q-250 0 -388.5 109t-182.5 345h-114q-50 0 -50 49z" />
<glyph unicode="&#x2122;" horiz-adv-x="1925" d="M111 1329q0 40 48 40h462q8 0 23.5 0.5t24 0.5t21 -0.5t20 -4t14.5 -8.5t10 -14t3 -21q0 -41 -49 -41h-218v-441q0 -8 0.5 -23.5t0.5 -24t-1 -20.5t-4 -18t-8.5 -13.5t-15 -10t-21.5 -2.5q-11 0 -19 2.5t-13 10t-8 13.5t-3.5 18.5t-1 20t0 24t0.5 23.5v441h-162h-19.5 h-18.5t-15.5 0.5t-14.5 1.5t-12 3t-10.5 6t-7 9t-5 12t-1.5 16zM815 765q0 11 2 17l91 475q1 8 4 28.5t4.5 28t6.5 21.5t11.5 19.5t17.5 10t27 4.5q14 0 26 -4.5t22 -17t16 -21t16 -27.5t14 -26l218 -373l215 373q4 6 14.5 26t16 28t16.5 20.5t22 17t26 4.5q16 0 27.5 -5 t18.5 -12t11.5 -20.5t6 -22t4.5 -27t4 -25.5l90 -475q0 -2 0.5 -4.5t0.5 -3.5q0 -23 -9.5 -34.5t-34.5 -11.5q-10 0 -18 3t-14 10t-10 13.5t-7 19t-4.5 19.5t-4 22.5t-3.5 21.5l-76 388l-237 -413q-19 -32 -57 -32q-37 0 -56 32l-237 413l-74 -388q-1 -6 -4 -24.5t-5 -26 t-7 -21.5t-10.5 -20t-16 -11.5t-24.5 -5.5q-40 0 -40 37z" />
<glyph unicode="&#xfb03;" horiz-adv-x="1972" d="M-92 -257q0 23 14 38t32 15q20 0 66 -11t68 -11q42 0 74.5 10.5t56.5 42t24 81.5v1013h-155q-48 0 -48 49q0 43 48 43h157v82q0 82 27 144t75 98.5t109 54t135 17.5q24 0 38.5 -0.5t40.5 -2t42.5 -5t34 -9.5t26 -16.5t8.5 -23.5q0 -50 -40 -50q-21 0 -72 7.5t-80 7.5 q-114 0 -178.5 -51t-64.5 -171v-82h602v82q0 82 27 144t75 98.5t109.5 54t136.5 17.5q37 0 60 -1t58 -6t53.5 -17.5t18.5 -32.5q0 -50 -43 -50q-20 0 -70.5 7.5t-78.5 7.5q-116 0 -181 -51t-65 -171v-82h655q50 0 50 -48v-863q0 -48 -50 -48h-6q-47 0 -47 48v819h-602v-1020 q0 -111 -72 -169t-183 -58q-25 0 -53 3.5t-59 10t-51 21t-20 34.5q0 23 14 38t32 15q20 0 66 -11t69 -11q67 0 112 30.5t45 103.5v1013h-602v-1020q0 -111 -72.5 -169t-183.5 -58q-25 0 -53 3.5t-58.5 10t-50.5 21t-20 34.5zM1650 1195v76q0 48 47 48h6q50 0 50 -48v-76 q0 -48 -50 -48h-6q-47 0 -47 48z" />
<glyph unicode="&#xfb04;" horiz-adv-x="2097" d="M-92 -257q0 24 14 38.5t32 14.5q20 0 66 -10.5t68 -10.5q42 0 75 10.5t56.5 42t23.5 81.5v1012h-155q-48 0 -48 50q0 42 48 42h157v83q0 82 27 143.5t75 98t109 54t135 17.5q24 0 38.5 -0.5t40.5 -1.5t42.5 -5t34 -9.5t26 -16t8.5 -23.5q0 -51 -40 -51q-21 0 -72 7.5 t-80 7.5q-114 0 -178.5 -50.5t-64.5 -170.5v-83h602v83q0 82 27 143.5t75 98t109.5 54t136.5 17.5q37 0 60 -1t58 -5.5t53.5 -17.5t18.5 -32q0 -51 -43 -51q-20 0 -70.5 7.5t-78.5 7.5q-116 0 -181 -50.5t-65 -170.5v-83h292q48 0 48 -40q0 -20 -8.5 -31.5t-28 -16t-33 -5.5 t-42.5 0t-38 1h-190v-927q0 -170 -57 -244.5t-198 -74.5q-63 0 -123 16t-60 52q0 24 14 38.5t32 14.5q20 0 66 -10.5t69 -10.5q42 0 75.5 10.5t57.5 42t24 81.5v1012h-602v-927q0 -170 -57.5 -244.5t-198.5 -74.5q-37 0 -75 5t-72.5 21.5t-34.5 41.5zM1650 348v1021 q0 23 14 36.5t35 13.5q23 0 38.5 -13.5t15.5 -36.5v-1147q0 -93 122 -93q29 0 85 16.5t77 16.5q18 0 30 -14t12 -37q0 -35 -71.5 -57t-141.5 -22q-69 0 -111 15t-65.5 54t-31.5 96t-8 151z" />
</font>
</defs>
</svg>
